G04*
G04 #@! TF.GenerationSoftware,Altium Limited,Altium Designer,24.5.2 (23)*
G04*
G04 Layer_Physical_Order=4*
G04 Layer_Color=16711680*
%FSLAX25Y25*%
%MOIN*%
G70*
G04*
G04 #@! TF.SameCoordinates,DA11F9B2-49B4-46D7-84E3-7535E75C2908*
G04*
G04*
G04 #@! TF.FilePolarity,Positive*
G04*
G01*
G75*
%ADD19C,0.11811*%
%ADD23C,0.01968*%
%ADD71C,0.00591*%
%ADD73C,0.01000*%
%ADD77C,0.05512*%
%ADD78R,0.11811X0.14567*%
G36*
X50115Y1463D02*
X49428D01*
X48182Y4665D01*
X48865D01*
X49132Y3937D01*
X50413D01*
X50694Y4665D01*
X51398D01*
X50115Y1463D01*
D02*
G37*
G36*
X73863Y4044D02*
X73822Y3975D01*
X73780Y3916D01*
X73742Y3857D01*
X73707Y3805D01*
X73676Y3756D01*
X73645Y3715D01*
X73617Y3677D01*
X73593Y3642D01*
X73572Y3614D01*
X73551Y3590D01*
X73534Y3569D01*
X73520Y3552D01*
X73509Y3541D01*
X73502Y3531D01*
X73495Y3524D01*
X73443Y3472D01*
X73384Y3420D01*
X73325Y3375D01*
X73270Y3336D01*
X73221Y3302D01*
X73183Y3277D01*
X73169Y3267D01*
X73159Y3264D01*
X73152Y3257D01*
X73148D01*
X73225Y3243D01*
X73298Y3225D01*
X73364Y3205D01*
X73426Y3184D01*
X73485Y3159D01*
X73537Y3135D01*
X73582Y3111D01*
X73624Y3083D01*
X73662Y3059D01*
X73693Y3035D01*
X73721Y3014D01*
X73745Y2996D01*
X73763Y2979D01*
X73773Y2969D01*
X73780Y2962D01*
X73783Y2958D01*
X73822Y2913D01*
X73853Y2864D01*
X73881Y2816D01*
X73905Y2764D01*
X73926Y2715D01*
X73943Y2667D01*
X73967Y2569D01*
X73978Y2528D01*
X73985Y2486D01*
X73988Y2452D01*
X73992Y2420D01*
X73995Y2396D01*
Y2379D01*
Y2365D01*
Y2361D01*
X73988Y2257D01*
X73974Y2164D01*
X73950Y2077D01*
X73926Y2004D01*
X73912Y1973D01*
X73898Y1942D01*
X73887Y1917D01*
X73874Y1896D01*
X73867Y1879D01*
X73860Y1869D01*
X73853Y1862D01*
Y1858D01*
X73797Y1782D01*
X73735Y1716D01*
X73676Y1664D01*
X73617Y1619D01*
X73561Y1588D01*
X73541Y1577D01*
X73520Y1567D01*
X73502Y1560D01*
X73492Y1553D01*
X73485Y1549D01*
X73482D01*
X73436Y1536D01*
X73384Y1522D01*
X73325Y1508D01*
X73266Y1501D01*
X73145Y1483D01*
X73020Y1473D01*
X72965Y1470D01*
X72909Y1466D01*
X72860D01*
X72819Y1463D01*
X71375Y1463D01*
Y4665D01*
X72021D01*
Y3330D01*
X72229D01*
X72295Y3336D01*
X72350Y3340D01*
X72395Y3347D01*
X72430Y3354D01*
X72454Y3361D01*
X72472Y3364D01*
X72475Y3368D01*
X72513Y3382D01*
X72548Y3402D01*
X72583Y3423D01*
X72611Y3447D01*
X72635Y3468D01*
X72656Y3482D01*
X72666Y3496D01*
X72670Y3500D01*
X72690Y3520D01*
X72711Y3548D01*
X72736Y3579D01*
X72763Y3614D01*
X72819Y3690D01*
X72878Y3770D01*
X72930Y3847D01*
X72954Y3878D01*
X72971Y3909D01*
X72989Y3933D01*
X73003Y3951D01*
X73010Y3965D01*
X73013Y3968D01*
X73482Y4665D01*
X74255D01*
X73863Y4044D01*
D02*
G37*
G36*
X28382Y4044D02*
X28340Y3975D01*
X28299Y3916D01*
X28260Y3857D01*
X28226Y3805D01*
X28195Y3756D01*
X28163Y3715D01*
X28136Y3677D01*
X28111Y3642D01*
X28091Y3614D01*
X28070Y3590D01*
X28052Y3569D01*
X28038Y3552D01*
X28028Y3541D01*
X28021Y3531D01*
X28014Y3524D01*
X27962Y3472D01*
X27903Y3420D01*
X27844Y3375D01*
X27789Y3336D01*
X27740Y3302D01*
X27702Y3277D01*
X27688Y3267D01*
X27678Y3263D01*
X27671Y3257D01*
X27667D01*
X27744Y3243D01*
X27816Y3225D01*
X27882Y3204D01*
X27945Y3184D01*
X28004Y3159D01*
X28056Y3135D01*
X28101Y3111D01*
X28142Y3083D01*
X28181Y3059D01*
X28212Y3035D01*
X28240Y3014D01*
X28264Y2996D01*
X28281Y2979D01*
X28292Y2969D01*
X28299Y2962D01*
X28302Y2958D01*
X28340Y2913D01*
X28372Y2864D01*
X28399Y2816D01*
X28424Y2764D01*
X28444Y2715D01*
X28462Y2667D01*
X28486Y2569D01*
X28497Y2528D01*
X28503Y2486D01*
X28507Y2452D01*
X28510Y2420D01*
X28514Y2396D01*
Y2379D01*
Y2365D01*
Y2361D01*
X28507Y2257D01*
X28493Y2164D01*
X28469Y2077D01*
X28444Y2004D01*
X28431Y1973D01*
X28417Y1942D01*
X28406Y1917D01*
X28392Y1896D01*
X28385Y1879D01*
X28378Y1869D01*
X28372Y1862D01*
Y1858D01*
X28316Y1782D01*
X28254Y1716D01*
X28195Y1664D01*
X28136Y1619D01*
X28080Y1588D01*
X28059Y1577D01*
X28038Y1567D01*
X28021Y1560D01*
X28011Y1553D01*
X28004Y1549D01*
X28000D01*
X27955Y1536D01*
X27903Y1522D01*
X27844Y1508D01*
X27785Y1501D01*
X27664Y1483D01*
X27539Y1473D01*
X27483Y1469D01*
X27428Y1466D01*
X27379D01*
X27338Y1463D01*
X25894D01*
Y4665D01*
X26539D01*
Y3330D01*
X26748D01*
X26814Y3336D01*
X26869Y3340D01*
X26914Y3347D01*
X26949Y3354D01*
X26973Y3361D01*
X26991Y3364D01*
X26994Y3368D01*
X27032Y3382D01*
X27067Y3402D01*
X27101Y3423D01*
X27129Y3447D01*
X27154Y3468D01*
X27174Y3482D01*
X27185Y3496D01*
X27188Y3500D01*
X27209Y3520D01*
X27230Y3548D01*
X27254Y3579D01*
X27282Y3614D01*
X27338Y3690D01*
X27397Y3770D01*
X27448Y3847D01*
X27473Y3878D01*
X27490Y3909D01*
X27507Y3933D01*
X27521Y3951D01*
X27528Y3965D01*
X27532Y3968D01*
X28000Y4665D01*
X28774D01*
X28382Y4044D01*
D02*
G37*
G36*
X64227Y1463D02*
X63630D01*
Y3614D01*
X62312Y1463D01*
X61687D01*
Y4665D01*
X62284D01*
Y2563D01*
X63582Y4665D01*
X64227D01*
Y1463D01*
D02*
G37*
G36*
X45094D02*
X44497D01*
Y3614D01*
X43178Y1463D01*
X42553D01*
Y4665D01*
X43150D01*
Y2563D01*
X44448Y4665D01*
X45094D01*
Y1463D01*
D02*
G37*
G36*
X35152D02*
X34555D01*
Y3614D01*
X33237Y1463D01*
X32612D01*
Y4665D01*
X33209D01*
Y2563D01*
X34506Y4665D01*
X35152D01*
Y1463D01*
D02*
G37*
G36*
X20984D02*
X20387D01*
Y3614D01*
X19069Y1463D01*
X18444D01*
Y4665D01*
X19041D01*
Y2563D01*
X20338Y4665D01*
X20984D01*
Y1463D01*
D02*
G37*
G36*
X38913D02*
X37942D01*
X37373Y3649D01*
X36797Y1463D01*
X35829D01*
Y4665D01*
X36425D01*
Y2146D01*
X37057Y4665D01*
X37681D01*
X38313Y2146D01*
X38317Y4665D01*
X38913D01*
Y1463D01*
D02*
G37*
G36*
X54008Y4124D02*
X52401D01*
Y1490D01*
X51756D01*
Y4665D01*
X54008D01*
Y4124D01*
D02*
G37*
G36*
X61132D02*
X59341D01*
Y3253D01*
X60948D01*
Y2712D01*
X59341D01*
Y2004D01*
X61069D01*
Y1463D01*
X58696D01*
Y4665D01*
X61132D01*
Y4124D01*
D02*
G37*
G36*
X47148Y2004D02*
X48092D01*
Y1463D01*
X45551D01*
Y2004D01*
X46502D01*
Y4665D01*
X47148D01*
Y2004D01*
D02*
G37*
G36*
X41998Y4124D02*
X40208D01*
Y3253D01*
X41814D01*
Y2712D01*
X40208D01*
Y2004D01*
X41936D01*
Y1463D01*
X39562D01*
Y4665D01*
X41998D01*
Y4124D01*
D02*
G37*
G36*
X25276Y1463D02*
X24631D01*
Y4665D01*
X25276D01*
Y1463D01*
D02*
G37*
G36*
X24322D02*
X23635D01*
X22851Y3833D01*
X22039Y1463D01*
X21341D01*
X22483Y4665D01*
X23177D01*
X24322Y1463D01*
D02*
G37*
G36*
X17889Y4124D02*
X16098D01*
Y3253D01*
X17705D01*
Y2712D01*
X16098D01*
Y2004D01*
X17826D01*
Y1463D01*
X15453D01*
Y4665D01*
X17889D01*
Y4124D01*
D02*
G37*
G36*
X69446Y4721D02*
X69571Y4707D01*
X69685Y4683D01*
X69793Y4655D01*
X69894Y4624D01*
X69987Y4586D01*
X70070Y4547D01*
X70147Y4506D01*
X70216Y4464D01*
X70275Y4426D01*
X70327Y4388D01*
X70369Y4357D01*
X70404Y4329D01*
X70424Y4304D01*
X70442Y4291D01*
X70445Y4287D01*
X70522Y4200D01*
X70584Y4110D01*
X70643Y4013D01*
X70692Y3912D01*
X70730Y3812D01*
X70764Y3711D01*
X70792Y3610D01*
X70817Y3517D01*
X70834Y3427D01*
X70848Y3340D01*
X70855Y3267D01*
X70862Y3201D01*
X70865Y3146D01*
X70869Y3125D01*
Y3107D01*
Y3094D01*
Y3083D01*
Y3076D01*
Y3073D01*
X70865Y2930D01*
X70851Y2795D01*
X70831Y2670D01*
X70803Y2552D01*
X70771Y2445D01*
X70733Y2344D01*
X70695Y2250D01*
X70657Y2170D01*
X70615Y2094D01*
X70577Y2032D01*
X70542Y1976D01*
X70508Y1931D01*
X70480Y1896D01*
X70459Y1872D01*
X70445Y1855D01*
X70442Y1851D01*
X70359Y1775D01*
X70272Y1705D01*
X70182Y1647D01*
X70088Y1598D01*
X69991Y1553D01*
X69897Y1518D01*
X69807Y1490D01*
X69717Y1466D01*
X69633Y1449D01*
X69557Y1435D01*
X69488Y1424D01*
X69429Y1417D01*
X69380Y1414D01*
X69342Y1411D01*
X69311D01*
X69168Y1417D01*
X69037Y1431D01*
X68977Y1442D01*
X68919Y1452D01*
X68866Y1463D01*
X68818Y1473D01*
X68773Y1487D01*
X68735Y1497D01*
X68700Y1508D01*
X68672Y1518D01*
X68651Y1529D01*
X68634Y1532D01*
X68624Y1539D01*
X68620D01*
X68537Y1577D01*
X68461Y1622D01*
X68388Y1671D01*
X68329Y1719D01*
X68277Y1761D01*
X68256Y1778D01*
X68238Y1796D01*
X68225Y1810D01*
X68214Y1820D01*
X68207Y1823D01*
X68204Y1827D01*
X68138Y1903D01*
X68079Y1976D01*
X68027Y2052D01*
X67985Y2118D01*
X67954Y2181D01*
X67940Y2205D01*
X67930Y2226D01*
X67919Y2243D01*
X67912Y2257D01*
X67909Y2264D01*
Y2268D01*
X67884Y2330D01*
X67860Y2400D01*
X67825Y2535D01*
X67798Y2674D01*
X67791Y2740D01*
X67780Y2802D01*
X67777Y2864D01*
X67770Y2916D01*
X67766Y2965D01*
Y3007D01*
X67763Y3042D01*
Y3069D01*
Y3083D01*
Y3090D01*
X67766Y3229D01*
X67780Y3361D01*
X67801Y3486D01*
X67829Y3600D01*
X67860Y3708D01*
X67895Y3805D01*
X67933Y3895D01*
X67975Y3975D01*
X68013Y4048D01*
X68051Y4110D01*
X68086Y4166D01*
X68117Y4211D01*
X68145Y4246D01*
X68165Y4270D01*
X68179Y4284D01*
X68183Y4291D01*
X68266Y4367D01*
X68353Y4433D01*
X68443Y4492D01*
X68537Y4541D01*
X68630Y4582D01*
X68728Y4617D01*
X68818Y4648D01*
X68908Y4669D01*
X68991Y4690D01*
X69068Y4700D01*
X69141Y4710D01*
X69200Y4718D01*
X69248Y4721D01*
X69286Y4724D01*
X69318D01*
X69446Y4721D01*
D02*
G37*
G36*
X66212D02*
X66285Y4714D01*
X66347Y4707D01*
X66410Y4697D01*
X66469Y4690D01*
X66521Y4679D01*
X66569Y4665D01*
X66611Y4655D01*
X66649Y4645D01*
X66684Y4638D01*
X66712Y4627D01*
X66732Y4620D01*
X66746Y4613D01*
X66757Y4610D01*
X66760D01*
X66861Y4561D01*
X66948Y4506D01*
X67020Y4443D01*
X67083Y4388D01*
X67131Y4336D01*
X67149Y4312D01*
X67166Y4291D01*
X67177Y4277D01*
X67187Y4263D01*
X67194Y4256D01*
Y4253D01*
X67222Y4207D01*
X67246Y4159D01*
X67284Y4069D01*
X67312Y3982D01*
X67329Y3902D01*
X67336Y3867D01*
X67343Y3836D01*
X67347Y3805D01*
Y3781D01*
X67350Y3763D01*
Y3746D01*
Y3739D01*
Y3735D01*
X67343Y3628D01*
X67329Y3527D01*
X67308Y3441D01*
X67298Y3402D01*
X67288Y3368D01*
X67274Y3336D01*
X67263Y3309D01*
X67253Y3284D01*
X67242Y3263D01*
X67232Y3246D01*
X67229Y3236D01*
X67222Y3229D01*
Y3225D01*
X67170Y3153D01*
X67111Y3087D01*
X67052Y3031D01*
X66996Y2983D01*
X66944Y2948D01*
X66902Y2920D01*
X66885Y2913D01*
X66875Y2906D01*
X66868Y2899D01*
X66864D01*
X66819Y2878D01*
X66771Y2854D01*
X66715Y2833D01*
X66659Y2812D01*
X66545Y2774D01*
X66430Y2740D01*
X66378Y2726D01*
X66326Y2712D01*
X66285Y2698D01*
X66243Y2688D01*
X66212Y2681D01*
X66188Y2674D01*
X66174Y2670D01*
X66167D01*
X66084Y2649D01*
X66007Y2629D01*
X65938Y2608D01*
X65875Y2587D01*
X65820Y2569D01*
X65771Y2552D01*
X65730Y2535D01*
X65695Y2521D01*
X65664Y2507D01*
X65636Y2493D01*
X65615Y2483D01*
X65601Y2472D01*
X65587Y2465D01*
X65580Y2458D01*
X65573Y2455D01*
X65542Y2424D01*
X65518Y2393D01*
X65504Y2358D01*
X65490Y2327D01*
X65483Y2302D01*
X65480Y2278D01*
Y2264D01*
Y2261D01*
X65483Y2216D01*
X65497Y2177D01*
X65511Y2143D01*
X65532Y2115D01*
X65549Y2094D01*
X65566Y2077D01*
X65577Y2066D01*
X65580Y2063D01*
X65646Y2025D01*
X65716Y1994D01*
X65792Y1973D01*
X65861Y1959D01*
X65927Y1952D01*
X65955Y1948D01*
X65979Y1945D01*
X66025D01*
X66122Y1948D01*
X66205Y1962D01*
X66274Y1980D01*
X66333Y2001D01*
X66378Y2021D01*
X66410Y2039D01*
X66427Y2052D01*
X66434Y2056D01*
X66483Y2101D01*
X66521Y2157D01*
X66552Y2216D01*
X66576Y2271D01*
X66594Y2323D01*
X66601Y2348D01*
X66607Y2368D01*
X66611Y2382D01*
Y2396D01*
X66614Y2403D01*
Y2406D01*
X67260Y2382D01*
X67253Y2302D01*
X67242Y2226D01*
X67225Y2153D01*
X67201Y2087D01*
X67177Y2025D01*
X67149Y1966D01*
X67121Y1914D01*
X67093Y1865D01*
X67062Y1823D01*
X67034Y1785D01*
X67010Y1751D01*
X66986Y1726D01*
X66965Y1705D01*
X66951Y1688D01*
X66941Y1681D01*
X66937Y1678D01*
X66878Y1629D01*
X66812Y1591D01*
X66739Y1553D01*
X66667Y1522D01*
X66594Y1497D01*
X66517Y1476D01*
X66441Y1459D01*
X66372Y1445D01*
X66302Y1431D01*
X66236Y1424D01*
X66181Y1417D01*
X66129Y1414D01*
X66090Y1411D01*
X66031D01*
X65896Y1414D01*
X65837Y1421D01*
X65775Y1428D01*
X65719Y1438D01*
X65667Y1445D01*
X65622Y1456D01*
X65577Y1466D01*
X65535Y1480D01*
X65500Y1490D01*
X65473Y1497D01*
X65445Y1508D01*
X65428Y1515D01*
X65410Y1522D01*
X65403Y1525D01*
X65400D01*
X65310Y1570D01*
X65226Y1622D01*
X65161Y1674D01*
X65101Y1726D01*
X65060Y1775D01*
X65025Y1813D01*
X65015Y1827D01*
X65008Y1837D01*
X65001Y1844D01*
Y1848D01*
X64956Y1928D01*
X64921Y2007D01*
X64897Y2087D01*
X64879Y2157D01*
X64869Y2216D01*
X64865Y2243D01*
Y2264D01*
X64862Y2282D01*
Y2295D01*
Y2302D01*
Y2306D01*
X64865Y2375D01*
X64876Y2441D01*
X64890Y2507D01*
X64907Y2566D01*
X64931Y2622D01*
X64956Y2677D01*
X64983Y2726D01*
X65011Y2771D01*
X65036Y2812D01*
X65063Y2847D01*
X65088Y2878D01*
X65112Y2903D01*
X65129Y2923D01*
X65143Y2937D01*
X65153Y2948D01*
X65157Y2951D01*
X65199Y2986D01*
X65247Y3017D01*
X65303Y3048D01*
X65358Y3080D01*
X65480Y3132D01*
X65601Y3180D01*
X65657Y3198D01*
X65709Y3215D01*
X65757Y3232D01*
X65802Y3243D01*
X65837Y3253D01*
X65861Y3260D01*
X65879Y3267D01*
X65886D01*
X65959Y3284D01*
X66025Y3302D01*
X66084Y3316D01*
X66136Y3330D01*
X66184Y3343D01*
X66226Y3354D01*
X66264Y3364D01*
X66295Y3375D01*
X66323Y3382D01*
X66344Y3388D01*
X66365Y3395D01*
X66378Y3399D01*
X66389Y3402D01*
X66396D01*
X66403Y3406D01*
X66462Y3430D01*
X66510Y3451D01*
X66549Y3475D01*
X66583Y3496D01*
X66604Y3517D01*
X66621Y3531D01*
X66632Y3541D01*
X66635Y3545D01*
X66659Y3576D01*
X66677Y3607D01*
X66687Y3642D01*
X66698Y3673D01*
X66701Y3697D01*
X66705Y3718D01*
Y3735D01*
Y3739D01*
Y3770D01*
X66698Y3801D01*
X66680Y3860D01*
X66653Y3916D01*
X66625Y3961D01*
X66597Y3996D01*
X66569Y4024D01*
X66552Y4041D01*
X66549Y4048D01*
X66545D01*
X66514Y4072D01*
X66479Y4093D01*
X66403Y4124D01*
X66323Y4148D01*
X66247Y4162D01*
X66177Y4173D01*
X66149Y4176D01*
X66122D01*
X66101Y4180D01*
X66070D01*
X65965Y4173D01*
X65872Y4155D01*
X65792Y4135D01*
X65723Y4107D01*
X65695Y4093D01*
X65671Y4079D01*
X65646Y4069D01*
X65629Y4058D01*
X65615Y4048D01*
X65605Y4041D01*
X65601Y4034D01*
X65598D01*
X65566Y4003D01*
X65539Y3971D01*
X65490Y3899D01*
X65448Y3819D01*
X65417Y3742D01*
X65396Y3673D01*
X65386Y3645D01*
X65379Y3618D01*
X65376Y3597D01*
X65372Y3579D01*
X65369Y3569D01*
Y3565D01*
X64741Y3628D01*
X64754Y3725D01*
X64775Y3819D01*
X64800Y3902D01*
X64827Y3982D01*
X64859Y4055D01*
X64890Y4124D01*
X64925Y4183D01*
X64959Y4239D01*
X64990Y4287D01*
X65022Y4329D01*
X65053Y4363D01*
X65077Y4395D01*
X65098Y4416D01*
X65115Y4433D01*
X65126Y4443D01*
X65129Y4447D01*
X65195Y4495D01*
X65265Y4537D01*
X65338Y4575D01*
X65414Y4606D01*
X65490Y4634D01*
X65566Y4655D01*
X65643Y4676D01*
X65719Y4690D01*
X65789Y4700D01*
X65855Y4710D01*
X65913Y4718D01*
X65962Y4721D01*
X66004D01*
X66035Y4724D01*
X66139D01*
X66212Y4721D01*
D02*
G37*
G36*
X57013D02*
X57086Y4714D01*
X57148Y4707D01*
X57211Y4697D01*
X57270Y4690D01*
X57322Y4679D01*
X57370Y4665D01*
X57412Y4655D01*
X57450Y4645D01*
X57485Y4638D01*
X57513Y4627D01*
X57533Y4620D01*
X57547Y4613D01*
X57558Y4610D01*
X57561D01*
X57662Y4561D01*
X57749Y4506D01*
X57821Y4443D01*
X57884Y4388D01*
X57933Y4336D01*
X57950Y4312D01*
X57967Y4291D01*
X57978Y4277D01*
X57988Y4263D01*
X57995Y4256D01*
Y4253D01*
X58023Y4207D01*
X58047Y4159D01*
X58085Y4069D01*
X58113Y3982D01*
X58130Y3902D01*
X58137Y3867D01*
X58144Y3836D01*
X58148Y3805D01*
Y3781D01*
X58151Y3763D01*
Y3746D01*
Y3739D01*
Y3735D01*
X58144Y3628D01*
X58130Y3527D01*
X58109Y3441D01*
X58099Y3402D01*
X58089Y3368D01*
X58075Y3336D01*
X58064Y3309D01*
X58054Y3284D01*
X58043Y3263D01*
X58033Y3246D01*
X58030Y3236D01*
X58023Y3229D01*
Y3225D01*
X57971Y3153D01*
X57912Y3087D01*
X57853Y3031D01*
X57797Y2983D01*
X57745Y2948D01*
X57703Y2920D01*
X57686Y2913D01*
X57676Y2906D01*
X57669Y2899D01*
X57665D01*
X57620Y2878D01*
X57572Y2854D01*
X57516Y2833D01*
X57461Y2812D01*
X57346Y2774D01*
X57231Y2740D01*
X57179Y2726D01*
X57127Y2712D01*
X57086Y2698D01*
X57044Y2688D01*
X57013Y2681D01*
X56989Y2674D01*
X56975Y2670D01*
X56968D01*
X56884Y2649D01*
X56808Y2629D01*
X56739Y2608D01*
X56676Y2587D01*
X56621Y2569D01*
X56572Y2552D01*
X56531Y2535D01*
X56496Y2521D01*
X56465Y2507D01*
X56437Y2493D01*
X56416Y2483D01*
X56402Y2472D01*
X56388Y2465D01*
X56381Y2458D01*
X56374Y2455D01*
X56343Y2424D01*
X56319Y2393D01*
X56305Y2358D01*
X56291Y2327D01*
X56284Y2302D01*
X56281Y2278D01*
Y2264D01*
Y2261D01*
X56284Y2216D01*
X56298Y2177D01*
X56312Y2143D01*
X56333Y2115D01*
X56350Y2094D01*
X56367Y2077D01*
X56378Y2066D01*
X56381Y2063D01*
X56447Y2025D01*
X56517Y1994D01*
X56593Y1973D01*
X56662Y1959D01*
X56728Y1952D01*
X56756Y1948D01*
X56780Y1945D01*
X56826D01*
X56923Y1948D01*
X57006Y1962D01*
X57075Y1980D01*
X57134Y2001D01*
X57179Y2021D01*
X57211Y2039D01*
X57228Y2052D01*
X57235Y2056D01*
X57284Y2101D01*
X57322Y2157D01*
X57353Y2216D01*
X57377Y2271D01*
X57395Y2323D01*
X57402Y2348D01*
X57408Y2368D01*
X57412Y2382D01*
Y2396D01*
X57415Y2403D01*
Y2406D01*
X58061Y2382D01*
X58054Y2302D01*
X58043Y2226D01*
X58026Y2153D01*
X58002Y2087D01*
X57978Y2025D01*
X57950Y1966D01*
X57922Y1914D01*
X57894Y1865D01*
X57863Y1823D01*
X57835Y1785D01*
X57811Y1751D01*
X57787Y1726D01*
X57766Y1705D01*
X57752Y1688D01*
X57742Y1681D01*
X57738Y1678D01*
X57679Y1629D01*
X57613Y1591D01*
X57540Y1553D01*
X57468Y1522D01*
X57395Y1497D01*
X57318Y1476D01*
X57242Y1459D01*
X57173Y1445D01*
X57103Y1431D01*
X57037Y1424D01*
X56982Y1417D01*
X56930Y1414D01*
X56892Y1411D01*
X56832D01*
X56697Y1414D01*
X56638Y1421D01*
X56576Y1428D01*
X56520Y1438D01*
X56468Y1445D01*
X56423Y1456D01*
X56378Y1466D01*
X56336Y1480D01*
X56302Y1490D01*
X56274Y1497D01*
X56246Y1508D01*
X56229Y1515D01*
X56211Y1522D01*
X56204Y1525D01*
X56201D01*
X56111Y1570D01*
X56027Y1622D01*
X55962Y1674D01*
X55902Y1726D01*
X55861Y1775D01*
X55826Y1813D01*
X55816Y1827D01*
X55809Y1837D01*
X55802Y1844D01*
Y1848D01*
X55757Y1928D01*
X55722Y2007D01*
X55698Y2087D01*
X55680Y2157D01*
X55670Y2216D01*
X55667Y2243D01*
Y2264D01*
X55663Y2282D01*
Y2295D01*
Y2302D01*
Y2306D01*
X55667Y2375D01*
X55677Y2441D01*
X55691Y2507D01*
X55708Y2566D01*
X55733Y2622D01*
X55757Y2677D01*
X55784Y2726D01*
X55812Y2771D01*
X55837Y2812D01*
X55864Y2847D01*
X55889Y2878D01*
X55913Y2903D01*
X55930Y2923D01*
X55944Y2937D01*
X55955Y2948D01*
X55958Y2951D01*
X56000Y2986D01*
X56048Y3017D01*
X56104Y3048D01*
X56159Y3080D01*
X56281Y3132D01*
X56402Y3180D01*
X56458Y3198D01*
X56510Y3215D01*
X56558Y3232D01*
X56603Y3243D01*
X56638Y3253D01*
X56662Y3260D01*
X56680Y3267D01*
X56687D01*
X56760Y3284D01*
X56826Y3302D01*
X56884Y3316D01*
X56937Y3330D01*
X56985Y3343D01*
X57027Y3354D01*
X57065Y3364D01*
X57096Y3375D01*
X57124Y3382D01*
X57145Y3388D01*
X57166Y3395D01*
X57179Y3399D01*
X57190Y3402D01*
X57197D01*
X57204Y3406D01*
X57263Y3430D01*
X57311Y3451D01*
X57349Y3475D01*
X57384Y3496D01*
X57405Y3517D01*
X57422Y3531D01*
X57433Y3541D01*
X57436Y3545D01*
X57461Y3576D01*
X57478Y3607D01*
X57488Y3642D01*
X57499Y3673D01*
X57502Y3697D01*
X57506Y3718D01*
Y3735D01*
Y3739D01*
Y3770D01*
X57499Y3801D01*
X57481Y3860D01*
X57454Y3916D01*
X57426Y3961D01*
X57398Y3996D01*
X57370Y4024D01*
X57353Y4041D01*
X57349Y4048D01*
X57346D01*
X57315Y4072D01*
X57280Y4093D01*
X57204Y4124D01*
X57124Y4148D01*
X57048Y4162D01*
X56978Y4173D01*
X56950Y4176D01*
X56923D01*
X56902Y4180D01*
X56871D01*
X56766Y4173D01*
X56673Y4155D01*
X56593Y4135D01*
X56524Y4107D01*
X56496Y4093D01*
X56472Y4079D01*
X56447Y4069D01*
X56430Y4058D01*
X56416Y4048D01*
X56406Y4041D01*
X56402Y4034D01*
X56399D01*
X56367Y4003D01*
X56340Y3971D01*
X56291Y3899D01*
X56249Y3819D01*
X56218Y3742D01*
X56198Y3673D01*
X56187Y3645D01*
X56180Y3618D01*
X56177Y3597D01*
X56173Y3579D01*
X56170Y3569D01*
Y3565D01*
X55542Y3628D01*
X55555Y3725D01*
X55576Y3819D01*
X55601Y3902D01*
X55628Y3982D01*
X55660Y4055D01*
X55691Y4124D01*
X55726Y4183D01*
X55760Y4239D01*
X55791Y4287D01*
X55823Y4329D01*
X55854Y4363D01*
X55878Y4395D01*
X55899Y4416D01*
X55916Y4433D01*
X55927Y4443D01*
X55930Y4447D01*
X55996Y4495D01*
X56066Y4537D01*
X56138Y4575D01*
X56215Y4606D01*
X56291Y4634D01*
X56367Y4655D01*
X56444Y4676D01*
X56520Y4690D01*
X56590Y4700D01*
X56656Y4710D01*
X56714Y4718D01*
X56763Y4721D01*
X56805D01*
X56836Y4724D01*
X56940D01*
X57013Y4721D01*
D02*
G37*
G36*
X30676D02*
X30801Y4707D01*
X30915Y4683D01*
X31023Y4655D01*
X31123Y4624D01*
X31217Y4586D01*
X31300Y4547D01*
X31377Y4506D01*
X31446Y4464D01*
X31505Y4426D01*
X31557Y4388D01*
X31599Y4357D01*
X31633Y4329D01*
X31654Y4304D01*
X31672Y4291D01*
X31675Y4287D01*
X31751Y4200D01*
X31814Y4110D01*
X31873Y4013D01*
X31921Y3912D01*
X31960Y3812D01*
X31994Y3711D01*
X32022Y3610D01*
X32046Y3517D01*
X32064Y3427D01*
X32078Y3340D01*
X32084Y3267D01*
X32091Y3201D01*
X32095Y3146D01*
X32098Y3125D01*
Y3107D01*
Y3094D01*
Y3083D01*
Y3076D01*
Y3073D01*
X32095Y2930D01*
X32081Y2795D01*
X32060Y2670D01*
X32032Y2552D01*
X32001Y2445D01*
X31963Y2344D01*
X31925Y2250D01*
X31887Y2170D01*
X31845Y2094D01*
X31807Y2032D01*
X31772Y1976D01*
X31737Y1931D01*
X31710Y1896D01*
X31689Y1872D01*
X31675Y1855D01*
X31672Y1851D01*
X31588Y1775D01*
X31501Y1705D01*
X31411Y1647D01*
X31318Y1598D01*
X31220Y1553D01*
X31127Y1518D01*
X31036Y1490D01*
X30946Y1466D01*
X30863Y1449D01*
X30787Y1435D01*
X30717Y1424D01*
X30658Y1417D01*
X30610Y1414D01*
X30571Y1411D01*
X30540D01*
X30398Y1417D01*
X30266Y1431D01*
X30207Y1442D01*
X30148Y1452D01*
X30096Y1463D01*
X30048Y1473D01*
X30002Y1487D01*
X29964Y1497D01*
X29930Y1508D01*
X29902Y1518D01*
X29881Y1529D01*
X29864Y1532D01*
X29853Y1539D01*
X29850D01*
X29766Y1577D01*
X29690Y1622D01*
X29617Y1671D01*
X29558Y1719D01*
X29506Y1761D01*
X29485Y1778D01*
X29468Y1796D01*
X29454Y1810D01*
X29444Y1820D01*
X29437Y1823D01*
X29433Y1827D01*
X29367Y1903D01*
X29308Y1976D01*
X29256Y2052D01*
X29215Y2118D01*
X29184Y2181D01*
X29170Y2205D01*
X29159Y2226D01*
X29149Y2243D01*
X29142Y2257D01*
X29138Y2264D01*
Y2268D01*
X29114Y2330D01*
X29090Y2400D01*
X29055Y2535D01*
X29027Y2674D01*
X29020Y2740D01*
X29010Y2802D01*
X29006Y2864D01*
X29000Y2916D01*
X28996Y2965D01*
Y3007D01*
X28993Y3042D01*
Y3069D01*
Y3083D01*
Y3090D01*
X28996Y3229D01*
X29010Y3361D01*
X29031Y3486D01*
X29059Y3600D01*
X29090Y3708D01*
X29125Y3805D01*
X29163Y3895D01*
X29204Y3975D01*
X29243Y4048D01*
X29281Y4110D01*
X29315Y4166D01*
X29347Y4211D01*
X29374Y4246D01*
X29395Y4270D01*
X29409Y4284D01*
X29412Y4291D01*
X29496Y4367D01*
X29583Y4433D01*
X29673Y4492D01*
X29766Y4541D01*
X29860Y4582D01*
X29957Y4617D01*
X30048Y4648D01*
X30138Y4669D01*
X30221Y4690D01*
X30297Y4700D01*
X30370Y4710D01*
X30429Y4718D01*
X30478Y4721D01*
X30516Y4724D01*
X30547D01*
X30676Y4721D01*
D02*
G37*
G36*
X32608Y7686D02*
X32567Y7617D01*
X32525Y7558D01*
X32487Y7499D01*
X32452Y7447D01*
X32421Y7398D01*
X32390Y7356D01*
X32362Y7318D01*
X32338Y7283D01*
X32317Y7256D01*
X32296Y7231D01*
X32279Y7211D01*
X32265Y7193D01*
X32254Y7183D01*
X32247Y7173D01*
X32241Y7165D01*
X32188Y7113D01*
X32130Y7061D01*
X32071Y7016D01*
X32015Y6978D01*
X31967Y6943D01*
X31928Y6919D01*
X31914Y6909D01*
X31904Y6905D01*
X31897Y6898D01*
X31894D01*
X31970Y6884D01*
X32043Y6867D01*
X32109Y6846D01*
X32171Y6825D01*
X32230Y6801D01*
X32282Y6777D01*
X32327Y6753D01*
X32369Y6725D01*
X32407Y6701D01*
X32438Y6676D01*
X32466Y6655D01*
X32490Y6638D01*
X32508Y6621D01*
X32518Y6610D01*
X32525Y6603D01*
X32529Y6600D01*
X32567Y6555D01*
X32598Y6506D01*
X32626Y6458D01*
X32650Y6406D01*
X32671Y6357D01*
X32688Y6308D01*
X32713Y6211D01*
X32723Y6170D01*
X32730Y6128D01*
X32733Y6093D01*
X32737Y6062D01*
X32740Y6038D01*
Y6020D01*
Y6007D01*
Y6003D01*
X32733Y5899D01*
X32719Y5805D01*
X32695Y5719D01*
X32671Y5646D01*
X32657Y5614D01*
X32643Y5583D01*
X32633Y5559D01*
X32619Y5538D01*
X32612Y5521D01*
X32605Y5510D01*
X32598Y5503D01*
Y5500D01*
X32542Y5424D01*
X32480Y5358D01*
X32421Y5306D01*
X32362Y5260D01*
X32307Y5229D01*
X32286Y5219D01*
X32265Y5208D01*
X32247Y5201D01*
X32237Y5195D01*
X32230Y5191D01*
X32227D01*
X32182Y5177D01*
X32130Y5163D01*
X32071Y5150D01*
X32012Y5142D01*
X31890Y5125D01*
X31765Y5115D01*
X31710Y5111D01*
X31654Y5108D01*
X31606D01*
X31564Y5104D01*
X30120D01*
Y8307D01*
X30766D01*
Y6971D01*
X30974D01*
X31040Y6978D01*
X31095Y6982D01*
X31141Y6989D01*
X31175Y6995D01*
X31200Y7002D01*
X31217Y7006D01*
X31220Y7009D01*
X31259Y7023D01*
X31293Y7044D01*
X31328Y7065D01*
X31356Y7089D01*
X31380Y7110D01*
X31401Y7124D01*
X31411Y7138D01*
X31415Y7141D01*
X31436Y7162D01*
X31456Y7190D01*
X31481Y7221D01*
X31508Y7256D01*
X31564Y7332D01*
X31623Y7412D01*
X31675Y7488D01*
X31699Y7519D01*
X31717Y7551D01*
X31734Y7575D01*
X31748Y7592D01*
X31755Y7606D01*
X31758Y7610D01*
X32227Y8307D01*
X33000D01*
X32608Y7686D01*
D02*
G37*
G36*
X21674D02*
X21633Y7617D01*
X21591Y7558D01*
X21553Y7499D01*
X21518Y7447D01*
X21487Y7398D01*
X21456Y7356D01*
X21428Y7318D01*
X21404Y7283D01*
X21383Y7256D01*
X21362Y7231D01*
X21345Y7211D01*
X21331Y7193D01*
X21320Y7183D01*
X21314Y7173D01*
X21307Y7165D01*
X21255Y7113D01*
X21196Y7061D01*
X21137Y7016D01*
X21081Y6978D01*
X21033Y6943D01*
X20994Y6919D01*
X20980Y6909D01*
X20970Y6905D01*
X20963Y6898D01*
X20960D01*
X21036Y6884D01*
X21109Y6867D01*
X21175Y6846D01*
X21237Y6825D01*
X21296Y6801D01*
X21348Y6777D01*
X21393Y6753D01*
X21435Y6725D01*
X21473Y6701D01*
X21504Y6676D01*
X21532Y6655D01*
X21556Y6638D01*
X21574Y6621D01*
X21584Y6610D01*
X21591Y6603D01*
X21595Y6600D01*
X21633Y6555D01*
X21664Y6506D01*
X21692Y6458D01*
X21716Y6406D01*
X21737Y6357D01*
X21754Y6308D01*
X21779Y6211D01*
X21789Y6170D01*
X21796Y6128D01*
X21799Y6093D01*
X21803Y6062D01*
X21806Y6038D01*
Y6020D01*
Y6007D01*
Y6003D01*
X21799Y5899D01*
X21786Y5805D01*
X21761Y5719D01*
X21737Y5646D01*
X21723Y5614D01*
X21709Y5583D01*
X21699Y5559D01*
X21685Y5538D01*
X21678Y5521D01*
X21671Y5510D01*
X21664Y5503D01*
Y5500D01*
X21609Y5424D01*
X21546Y5358D01*
X21487Y5306D01*
X21428Y5260D01*
X21373Y5229D01*
X21352Y5219D01*
X21331Y5208D01*
X21314Y5201D01*
X21303Y5195D01*
X21296Y5191D01*
X21293D01*
X21248Y5177D01*
X21196Y5163D01*
X21137Y5150D01*
X21078Y5142D01*
X20956Y5125D01*
X20831Y5115D01*
X20776Y5111D01*
X20720Y5108D01*
X20672D01*
X20630Y5104D01*
X19186D01*
Y8307D01*
X19832D01*
Y6971D01*
X20040D01*
X20106Y6978D01*
X20162Y6982D01*
X20207Y6989D01*
X20241Y6995D01*
X20266Y7002D01*
X20283Y7006D01*
X20286Y7009D01*
X20325Y7023D01*
X20359Y7044D01*
X20394Y7065D01*
X20422Y7089D01*
X20446Y7110D01*
X20467Y7124D01*
X20477Y7138D01*
X20481Y7141D01*
X20502Y7162D01*
X20522Y7190D01*
X20547Y7221D01*
X20574Y7256D01*
X20630Y7332D01*
X20689Y7412D01*
X20741Y7488D01*
X20765Y7519D01*
X20783Y7551D01*
X20800Y7575D01*
X20814Y7592D01*
X20821Y7606D01*
X20824Y7610D01*
X21293Y8307D01*
X22067D01*
X21674Y7686D01*
D02*
G37*
G36*
X42127Y5104D02*
X41481D01*
Y6364D01*
X40211D01*
Y5104D01*
X39566D01*
Y8307D01*
X40211D01*
Y6905D01*
X41481D01*
Y8307D01*
X42127D01*
Y5104D01*
D02*
G37*
G36*
X34971Y6350D02*
X36182Y5104D01*
X35311D01*
X34003Y6527D01*
Y5104D01*
X33358D01*
Y8307D01*
X34003D01*
Y7343D01*
X34524Y6805D01*
X35409Y8307D01*
X36245D01*
X34971Y6350D01*
D02*
G37*
G36*
X26300Y5104D02*
X25648D01*
X25162Y7343D01*
X24607Y5104D01*
X23833D01*
X23246Y7308D01*
X22768Y5104D01*
X22105D01*
X22861Y8307D01*
X23566D01*
X24204Y5913D01*
X24836Y8307D01*
X25533D01*
X26300Y5104D01*
D02*
G37*
G36*
X18538D02*
X17566D01*
X16997Y7290D01*
X16421Y5104D01*
X15453D01*
Y8307D01*
X16050D01*
Y5788D01*
X16681Y8307D01*
X17306D01*
X17937Y5788D01*
X17941Y8307D01*
X18538D01*
Y5104D01*
D02*
G37*
G36*
X46922Y7100D02*
X47422D01*
X47498Y7096D01*
X47568D01*
X47633Y7093D01*
X47692Y7089D01*
X47748Y7086D01*
X47800Y7082D01*
X47845Y7075D01*
X47883Y7072D01*
X47918Y7068D01*
X47949Y7065D01*
X47974Y7061D01*
X47991Y7058D01*
X48005D01*
X48012Y7055D01*
X48015D01*
X48078Y7037D01*
X48140Y7016D01*
X48196Y6992D01*
X48244Y6968D01*
X48289Y6943D01*
X48321Y6923D01*
X48341Y6909D01*
X48345Y6905D01*
X48348D01*
X48407Y6857D01*
X48463Y6805D01*
X48508Y6753D01*
X48550Y6704D01*
X48581Y6659D01*
X48602Y6621D01*
X48612Y6607D01*
X48619Y6596D01*
X48623Y6593D01*
Y6589D01*
X48657Y6510D01*
X48685Y6426D01*
X48702Y6343D01*
X48716Y6267D01*
X48720Y6229D01*
X48723Y6197D01*
X48727Y6166D01*
X48730Y6142D01*
Y6121D01*
Y6107D01*
Y6097D01*
Y6093D01*
X48727Y6024D01*
X48723Y5954D01*
X48713Y5892D01*
X48702Y5833D01*
X48688Y5777D01*
X48671Y5725D01*
X48654Y5680D01*
X48636Y5635D01*
X48619Y5597D01*
X48602Y5566D01*
X48588Y5535D01*
X48570Y5510D01*
X48560Y5493D01*
X48550Y5479D01*
X48546Y5472D01*
X48543Y5469D01*
X48508Y5424D01*
X48470Y5385D01*
X48432Y5351D01*
X48390Y5316D01*
X48314Y5260D01*
X48241Y5219D01*
X48178Y5188D01*
X48151Y5177D01*
X48126Y5167D01*
X48109Y5160D01*
X48095Y5156D01*
X48085Y5153D01*
X48081D01*
X48043Y5146D01*
X47998Y5136D01*
X47946Y5129D01*
X47887Y5125D01*
X47824Y5122D01*
X47762Y5115D01*
X47630Y5111D01*
X47568Y5108D01*
X47512D01*
X47456Y5104D01*
X46277D01*
Y8307D01*
X46922D01*
Y7100D01*
D02*
G37*
G36*
X44347Y8363D02*
X44472Y8349D01*
X44587Y8325D01*
X44694Y8297D01*
X44795Y8265D01*
X44889Y8227D01*
X44972Y8189D01*
X45048Y8147D01*
X45118Y8106D01*
X45177Y8068D01*
X45229Y8030D01*
X45270Y7998D01*
X45305Y7971D01*
X45326Y7946D01*
X45343Y7932D01*
X45347Y7929D01*
X45423Y7842D01*
X45486Y7752D01*
X45545Y7655D01*
X45593Y7554D01*
X45631Y7453D01*
X45666Y7353D01*
X45694Y7252D01*
X45718Y7159D01*
X45735Y7068D01*
X45749Y6982D01*
X45756Y6909D01*
X45763Y6843D01*
X45767Y6787D01*
X45770Y6767D01*
Y6749D01*
Y6735D01*
Y6725D01*
Y6718D01*
Y6714D01*
X45767Y6572D01*
X45753Y6437D01*
X45732Y6312D01*
X45704Y6194D01*
X45673Y6086D01*
X45635Y5986D01*
X45597Y5892D01*
X45559Y5812D01*
X45517Y5736D01*
X45479Y5673D01*
X45444Y5618D01*
X45409Y5573D01*
X45382Y5538D01*
X45361Y5514D01*
X45347Y5497D01*
X45343Y5493D01*
X45260Y5417D01*
X45173Y5347D01*
X45083Y5288D01*
X44989Y5240D01*
X44892Y5195D01*
X44798Y5160D01*
X44708Y5132D01*
X44618Y5108D01*
X44535Y5091D01*
X44458Y5077D01*
X44389Y5066D01*
X44330Y5059D01*
X44282Y5056D01*
X44243Y5052D01*
X44212D01*
X44070Y5059D01*
X43938Y5073D01*
X43879Y5083D01*
X43820Y5094D01*
X43768Y5104D01*
X43719Y5115D01*
X43674Y5129D01*
X43636Y5139D01*
X43601Y5150D01*
X43574Y5160D01*
X43553Y5170D01*
X43535Y5174D01*
X43525Y5181D01*
X43522D01*
X43438Y5219D01*
X43362Y5264D01*
X43289Y5313D01*
X43230Y5361D01*
X43178Y5403D01*
X43157Y5420D01*
X43140Y5438D01*
X43126Y5451D01*
X43116Y5462D01*
X43109Y5465D01*
X43105Y5469D01*
X43039Y5545D01*
X42980Y5618D01*
X42928Y5694D01*
X42887Y5760D01*
X42855Y5823D01*
X42841Y5847D01*
X42831Y5868D01*
X42821Y5885D01*
X42814Y5899D01*
X42810Y5906D01*
Y5909D01*
X42786Y5972D01*
X42762Y6041D01*
X42727Y6177D01*
X42699Y6315D01*
X42692Y6381D01*
X42682Y6444D01*
X42678Y6506D01*
X42671Y6558D01*
X42668Y6607D01*
Y6649D01*
X42665Y6683D01*
Y6711D01*
Y6725D01*
Y6732D01*
X42668Y6871D01*
X42682Y7002D01*
X42703Y7127D01*
X42730Y7242D01*
X42762Y7349D01*
X42796Y7447D01*
X42834Y7537D01*
X42876Y7617D01*
X42914Y7689D01*
X42952Y7752D01*
X42987Y7807D01*
X43018Y7853D01*
X43046Y7887D01*
X43067Y7912D01*
X43081Y7925D01*
X43084Y7932D01*
X43168Y8009D01*
X43254Y8075D01*
X43345Y8134D01*
X43438Y8182D01*
X43532Y8224D01*
X43629Y8259D01*
X43719Y8290D01*
X43810Y8311D01*
X43893Y8331D01*
X43969Y8342D01*
X44042Y8352D01*
X44101Y8359D01*
X44150Y8363D01*
X44188Y8366D01*
X44219D01*
X44347Y8363D01*
D02*
G37*
G36*
X37883D02*
X37956Y8356D01*
X38018Y8349D01*
X38081Y8338D01*
X38140Y8331D01*
X38192Y8321D01*
X38240Y8307D01*
X38282Y8297D01*
X38320Y8286D01*
X38355Y8279D01*
X38383Y8269D01*
X38403Y8262D01*
X38417Y8255D01*
X38428Y8252D01*
X38431D01*
X38532Y8203D01*
X38618Y8147D01*
X38691Y8085D01*
X38754Y8030D01*
X38802Y7977D01*
X38820Y7953D01*
X38837Y7932D01*
X38848Y7919D01*
X38858Y7905D01*
X38865Y7898D01*
Y7894D01*
X38893Y7849D01*
X38917Y7801D01*
X38955Y7710D01*
X38983Y7624D01*
X39000Y7544D01*
X39007Y7509D01*
X39014Y7478D01*
X39018Y7447D01*
Y7422D01*
X39021Y7405D01*
Y7388D01*
Y7381D01*
Y7377D01*
X39014Y7270D01*
X39000Y7169D01*
X38979Y7082D01*
X38969Y7044D01*
X38958Y7009D01*
X38945Y6978D01*
X38934Y6950D01*
X38924Y6926D01*
X38913Y6905D01*
X38903Y6888D01*
X38899Y6877D01*
X38893Y6871D01*
Y6867D01*
X38840Y6794D01*
X38781Y6728D01*
X38723Y6673D01*
X38667Y6624D01*
X38615Y6589D01*
X38573Y6562D01*
X38556Y6555D01*
X38546Y6548D01*
X38539Y6541D01*
X38535D01*
X38490Y6520D01*
X38442Y6496D01*
X38386Y6475D01*
X38331Y6454D01*
X38216Y6416D01*
X38101Y6381D01*
X38049Y6367D01*
X37997Y6353D01*
X37956Y6340D01*
X37914Y6329D01*
X37883Y6322D01*
X37859Y6315D01*
X37845Y6312D01*
X37838D01*
X37754Y6291D01*
X37678Y6270D01*
X37609Y6250D01*
X37546Y6229D01*
X37491Y6211D01*
X37442Y6194D01*
X37400Y6177D01*
X37366Y6163D01*
X37335Y6149D01*
X37307Y6135D01*
X37286Y6125D01*
X37272Y6114D01*
X37258Y6107D01*
X37251Y6100D01*
X37244Y6097D01*
X37213Y6066D01*
X37189Y6034D01*
X37175Y6000D01*
X37161Y5968D01*
X37154Y5944D01*
X37151Y5920D01*
Y5906D01*
Y5903D01*
X37154Y5857D01*
X37168Y5819D01*
X37182Y5785D01*
X37203Y5757D01*
X37220Y5736D01*
X37237Y5719D01*
X37248Y5708D01*
X37251Y5705D01*
X37317Y5666D01*
X37387Y5635D01*
X37463Y5614D01*
X37532Y5601D01*
X37598Y5594D01*
X37626Y5590D01*
X37650Y5587D01*
X37695D01*
X37793Y5590D01*
X37876Y5604D01*
X37945Y5621D01*
X38004Y5642D01*
X38049Y5663D01*
X38081Y5680D01*
X38098Y5694D01*
X38105Y5698D01*
X38153Y5743D01*
X38192Y5798D01*
X38223Y5857D01*
X38247Y5913D01*
X38265Y5965D01*
X38271Y5989D01*
X38278Y6010D01*
X38282Y6024D01*
Y6038D01*
X38285Y6045D01*
Y6048D01*
X38931Y6024D01*
X38924Y5944D01*
X38913Y5868D01*
X38896Y5795D01*
X38872Y5729D01*
X38848Y5666D01*
X38820Y5607D01*
X38792Y5555D01*
X38764Y5507D01*
X38733Y5465D01*
X38705Y5427D01*
X38681Y5392D01*
X38657Y5368D01*
X38636Y5347D01*
X38622Y5330D01*
X38612Y5323D01*
X38608Y5319D01*
X38549Y5271D01*
X38483Y5233D01*
X38410Y5195D01*
X38337Y5163D01*
X38265Y5139D01*
X38188Y5118D01*
X38112Y5101D01*
X38042Y5087D01*
X37973Y5073D01*
X37907Y5066D01*
X37852Y5059D01*
X37800Y5056D01*
X37761Y5052D01*
X37702D01*
X37567Y5056D01*
X37508Y5063D01*
X37446Y5070D01*
X37390Y5080D01*
X37338Y5087D01*
X37293Y5097D01*
X37248Y5108D01*
X37206Y5122D01*
X37172Y5132D01*
X37144Y5139D01*
X37116Y5150D01*
X37099Y5156D01*
X37081Y5163D01*
X37074Y5167D01*
X37071D01*
X36981Y5212D01*
X36897Y5264D01*
X36831Y5316D01*
X36772Y5368D01*
X36731Y5417D01*
X36696Y5455D01*
X36686Y5469D01*
X36679Y5479D01*
X36672Y5486D01*
Y5489D01*
X36627Y5569D01*
X36592Y5649D01*
X36568Y5729D01*
X36550Y5798D01*
X36540Y5857D01*
X36536Y5885D01*
Y5906D01*
X36533Y5923D01*
Y5937D01*
Y5944D01*
Y5948D01*
X36536Y6017D01*
X36547Y6083D01*
X36561Y6149D01*
X36578Y6208D01*
X36602Y6263D01*
X36627Y6319D01*
X36654Y6367D01*
X36682Y6413D01*
X36707Y6454D01*
X36734Y6489D01*
X36759Y6520D01*
X36783Y6544D01*
X36800Y6565D01*
X36814Y6579D01*
X36825Y6589D01*
X36828Y6593D01*
X36870Y6628D01*
X36918Y6659D01*
X36974Y6690D01*
X37029Y6721D01*
X37151Y6773D01*
X37272Y6822D01*
X37328Y6839D01*
X37380Y6857D01*
X37428Y6874D01*
X37473Y6884D01*
X37508Y6895D01*
X37532Y6902D01*
X37550Y6909D01*
X37557D01*
X37630Y6926D01*
X37695Y6943D01*
X37754Y6957D01*
X37806Y6971D01*
X37855Y6985D01*
X37897Y6995D01*
X37935Y7006D01*
X37966Y7016D01*
X37994Y7023D01*
X38015Y7030D01*
X38036Y7037D01*
X38049Y7041D01*
X38060Y7044D01*
X38067D01*
X38074Y7047D01*
X38133Y7072D01*
X38181Y7093D01*
X38219Y7117D01*
X38254Y7138D01*
X38275Y7159D01*
X38292Y7173D01*
X38303Y7183D01*
X38306Y7186D01*
X38331Y7218D01*
X38348Y7249D01*
X38358Y7283D01*
X38369Y7315D01*
X38372Y7339D01*
X38376Y7360D01*
Y7377D01*
Y7381D01*
Y7412D01*
X38369Y7443D01*
X38351Y7502D01*
X38324Y7558D01*
X38296Y7603D01*
X38268Y7637D01*
X38240Y7665D01*
X38223Y7683D01*
X38219Y7689D01*
X38216D01*
X38185Y7714D01*
X38150Y7735D01*
X38074Y7766D01*
X37994Y7790D01*
X37918Y7804D01*
X37848Y7814D01*
X37820Y7818D01*
X37793D01*
X37772Y7821D01*
X37741D01*
X37637Y7814D01*
X37543Y7797D01*
X37463Y7776D01*
X37394Y7749D01*
X37366Y7735D01*
X37341Y7721D01*
X37317Y7710D01*
X37300Y7700D01*
X37286Y7689D01*
X37276Y7683D01*
X37272Y7676D01*
X37269D01*
X37237Y7644D01*
X37210Y7613D01*
X37161Y7540D01*
X37119Y7461D01*
X37088Y7384D01*
X37067Y7315D01*
X37057Y7287D01*
X37050Y7259D01*
X37047Y7238D01*
X37043Y7221D01*
X37040Y7211D01*
Y7207D01*
X36411Y7270D01*
X36425Y7367D01*
X36446Y7461D01*
X36470Y7544D01*
X36498Y7624D01*
X36529Y7696D01*
X36561Y7766D01*
X36595Y7825D01*
X36630Y7880D01*
X36661Y7929D01*
X36693Y7971D01*
X36724Y8005D01*
X36748Y8037D01*
X36769Y8057D01*
X36786Y8075D01*
X36797Y8085D01*
X36800Y8089D01*
X36866Y8137D01*
X36935Y8179D01*
X37008Y8217D01*
X37085Y8248D01*
X37161Y8276D01*
X37237Y8297D01*
X37314Y8318D01*
X37390Y8331D01*
X37459Y8342D01*
X37525Y8352D01*
X37584Y8359D01*
X37633Y8363D01*
X37675D01*
X37706Y8366D01*
X37810D01*
X37883Y8363D01*
D02*
G37*
G36*
X28191D02*
X28316Y8349D01*
X28431Y8325D01*
X28538Y8297D01*
X28639Y8265D01*
X28732Y8227D01*
X28816Y8189D01*
X28892Y8147D01*
X28962Y8106D01*
X29020Y8068D01*
X29072Y8030D01*
X29114Y7998D01*
X29149Y7971D01*
X29170Y7946D01*
X29187Y7932D01*
X29190Y7929D01*
X29267Y7842D01*
X29329Y7752D01*
X29388Y7655D01*
X29437Y7554D01*
X29475Y7453D01*
X29510Y7353D01*
X29537Y7252D01*
X29562Y7159D01*
X29579Y7068D01*
X29593Y6982D01*
X29600Y6909D01*
X29607Y6843D01*
X29610Y6787D01*
X29614Y6767D01*
Y6749D01*
Y6735D01*
Y6725D01*
Y6718D01*
Y6714D01*
X29610Y6572D01*
X29596Y6437D01*
X29576Y6312D01*
X29548Y6194D01*
X29517Y6086D01*
X29478Y5986D01*
X29440Y5892D01*
X29402Y5812D01*
X29360Y5736D01*
X29322Y5673D01*
X29288Y5618D01*
X29253Y5573D01*
X29225Y5538D01*
X29204Y5514D01*
X29190Y5497D01*
X29187Y5493D01*
X29104Y5417D01*
X29017Y5347D01*
X28927Y5288D01*
X28833Y5240D01*
X28736Y5195D01*
X28642Y5160D01*
X28552Y5132D01*
X28462Y5108D01*
X28378Y5091D01*
X28302Y5077D01*
X28233Y5066D01*
X28174Y5059D01*
X28125Y5056D01*
X28087Y5052D01*
X28056D01*
X27913Y5059D01*
X27782Y5073D01*
X27723Y5083D01*
X27664Y5094D01*
X27612Y5104D01*
X27563Y5115D01*
X27518Y5129D01*
X27480Y5139D01*
X27445Y5150D01*
X27417Y5160D01*
X27397Y5170D01*
X27379Y5174D01*
X27369Y5181D01*
X27365D01*
X27282Y5219D01*
X27206Y5264D01*
X27133Y5313D01*
X27074Y5361D01*
X27022Y5403D01*
X27001Y5420D01*
X26984Y5438D01*
X26970Y5451D01*
X26959Y5462D01*
X26952Y5465D01*
X26949Y5469D01*
X26883Y5545D01*
X26824Y5618D01*
X26772Y5694D01*
X26730Y5760D01*
X26699Y5823D01*
X26685Y5847D01*
X26675Y5868D01*
X26664Y5885D01*
X26657Y5899D01*
X26654Y5906D01*
Y5909D01*
X26630Y5972D01*
X26605Y6041D01*
X26571Y6177D01*
X26543Y6315D01*
X26536Y6381D01*
X26526Y6444D01*
X26522Y6506D01*
X26515Y6558D01*
X26512Y6607D01*
Y6649D01*
X26508Y6683D01*
Y6711D01*
Y6725D01*
Y6732D01*
X26512Y6871D01*
X26526Y7002D01*
X26546Y7127D01*
X26574Y7242D01*
X26605Y7349D01*
X26640Y7447D01*
X26678Y7537D01*
X26720Y7617D01*
X26758Y7689D01*
X26796Y7752D01*
X26831Y7807D01*
X26862Y7853D01*
X26890Y7887D01*
X26911Y7912D01*
X26925Y7925D01*
X26928Y7932D01*
X27011Y8009D01*
X27098Y8075D01*
X27188Y8134D01*
X27282Y8182D01*
X27376Y8224D01*
X27473Y8259D01*
X27563Y8290D01*
X27653Y8311D01*
X27736Y8331D01*
X27813Y8342D01*
X27886Y8352D01*
X27945Y8359D01*
X27993Y8363D01*
X28032Y8366D01*
X28063D01*
X28191Y8363D01*
D02*
G37*
G36*
X40648Y11236D02*
X40034D01*
Y11851D01*
X40648D01*
Y11236D01*
D02*
G37*
G36*
X35676D02*
X35062D01*
Y11851D01*
X35676D01*
Y11236D01*
D02*
G37*
G36*
X31102Y11899D02*
X31168Y11896D01*
X31234Y11885D01*
X31293Y11875D01*
X31349Y11861D01*
X31401Y11847D01*
X31449Y11833D01*
X31495Y11816D01*
X31533Y11798D01*
X31567Y11784D01*
X31599Y11771D01*
X31623Y11757D01*
X31644Y11746D01*
X31658Y11736D01*
X31665Y11733D01*
X31668Y11729D01*
X31713Y11694D01*
X31758Y11656D01*
X31835Y11573D01*
X31901Y11490D01*
X31953Y11406D01*
X31973Y11368D01*
X31991Y11330D01*
X32008Y11299D01*
X32022Y11271D01*
X32029Y11247D01*
X32036Y11229D01*
X32043Y11219D01*
Y11215D01*
X31432Y11111D01*
X31411Y11174D01*
X31387Y11226D01*
X31363Y11271D01*
X31335Y11306D01*
X31314Y11333D01*
X31297Y11354D01*
X31283Y11365D01*
X31279Y11368D01*
X31241Y11392D01*
X31200Y11413D01*
X31161Y11427D01*
X31123Y11434D01*
X31089Y11441D01*
X31064Y11445D01*
X31040D01*
X31002Y11441D01*
X30964Y11438D01*
X30894Y11420D01*
X30832Y11396D01*
X30780Y11368D01*
X30738Y11344D01*
X30707Y11320D01*
X30689Y11302D01*
X30686Y11295D01*
X30683D01*
X30634Y11233D01*
X30599Y11163D01*
X30575Y11090D01*
X30558Y11021D01*
X30547Y10962D01*
X30544Y10934D01*
X30540Y10910D01*
X30537Y10893D01*
Y10875D01*
Y10868D01*
Y10865D01*
X32074D01*
Y10737D01*
X32064Y10619D01*
X32050Y10508D01*
X32032Y10403D01*
X32012Y10310D01*
X31987Y10227D01*
X31963Y10147D01*
X31935Y10077D01*
X31907Y10018D01*
X31880Y9966D01*
X31855Y9921D01*
X31831Y9883D01*
X31814Y9855D01*
X31800Y9838D01*
X31789Y9824D01*
X31786Y9821D01*
X31727Y9762D01*
X31665Y9706D01*
X31599Y9661D01*
X31533Y9623D01*
X31463Y9588D01*
X31397Y9560D01*
X31332Y9539D01*
X31266Y9519D01*
X31207Y9505D01*
X31151Y9494D01*
X31099Y9487D01*
X31057Y9484D01*
X31019Y9481D01*
X30995Y9477D01*
X30971D01*
X30887Y9481D01*
X30804Y9491D01*
X30728Y9508D01*
X30658Y9529D01*
X30589Y9553D01*
X30526Y9581D01*
X30467Y9612D01*
X30415Y9640D01*
X30370Y9671D01*
X30329Y9702D01*
X30290Y9730D01*
X30263Y9755D01*
X30238Y9775D01*
X30221Y9793D01*
X30211Y9803D01*
X30207Y9807D01*
X30155Y9869D01*
X30110Y9939D01*
X30068Y10011D01*
X30034Y10084D01*
X30006Y10161D01*
X29982Y10237D01*
X29961Y10310D01*
X29947Y10379D01*
X29933Y10449D01*
X29926Y10508D01*
X29919Y10567D01*
X29912Y10615D01*
Y10653D01*
X29909Y10684D01*
Y10702D01*
Y10709D01*
X29912Y10796D01*
X29919Y10882D01*
X29930Y10962D01*
X29943Y11039D01*
X29961Y11108D01*
X29982Y11174D01*
X30002Y11236D01*
X30023Y11292D01*
X30044Y11340D01*
X30065Y11385D01*
X30086Y11420D01*
X30103Y11451D01*
X30117Y11479D01*
X30127Y11496D01*
X30134Y11507D01*
X30138Y11510D01*
X30197Y11580D01*
X30259Y11639D01*
X30329Y11691D01*
X30398Y11736D01*
X30474Y11774D01*
X30547Y11805D01*
X30620Y11833D01*
X30693Y11854D01*
X30762Y11871D01*
X30825Y11882D01*
X30884Y11892D01*
X30932Y11896D01*
X30974Y11899D01*
X31005Y11902D01*
X31033D01*
X31102Y11899D01*
D02*
G37*
G36*
X29350Y11229D02*
X29309Y11160D01*
X29267Y11101D01*
X29229Y11042D01*
X29194Y10990D01*
X29163Y10941D01*
X29131Y10900D01*
X29104Y10862D01*
X29079Y10827D01*
X29059Y10799D01*
X29038Y10775D01*
X29020Y10754D01*
X29007Y10737D01*
X28996Y10726D01*
X28989Y10716D01*
X28982Y10709D01*
X28930Y10657D01*
X28871Y10605D01*
X28812Y10560D01*
X28757Y10521D01*
X28708Y10487D01*
X28670Y10463D01*
X28656Y10452D01*
X28646Y10449D01*
X28639Y10442D01*
X28635D01*
X28712Y10428D01*
X28784Y10410D01*
X28850Y10390D01*
X28913Y10369D01*
X28972Y10345D01*
X29024Y10320D01*
X29069Y10296D01*
X29111Y10268D01*
X29149Y10244D01*
X29180Y10220D01*
X29208Y10199D01*
X29232Y10181D01*
X29250Y10164D01*
X29260Y10154D01*
X29267Y10147D01*
X29270Y10143D01*
X29309Y10098D01*
X29340Y10050D01*
X29368Y10001D01*
X29392Y9949D01*
X29413Y9900D01*
X29430Y9852D01*
X29454Y9755D01*
X29465Y9713D01*
X29472Y9671D01*
X29475Y9637D01*
X29478Y9605D01*
X29482Y9581D01*
Y9564D01*
Y9550D01*
Y9546D01*
X29475Y9442D01*
X29461Y9349D01*
X29437Y9262D01*
X29413Y9189D01*
X29399Y9158D01*
X29385Y9127D01*
X29374Y9102D01*
X29360Y9081D01*
X29354Y9064D01*
X29347Y9054D01*
X29340Y9047D01*
Y9043D01*
X29284Y8967D01*
X29222Y8901D01*
X29163Y8849D01*
X29104Y8804D01*
X29048Y8773D01*
X29027Y8762D01*
X29007Y8752D01*
X28989Y8745D01*
X28979Y8738D01*
X28972Y8734D01*
X28968D01*
X28923Y8721D01*
X28871Y8707D01*
X28812Y8693D01*
X28753Y8686D01*
X28632Y8669D01*
X28507Y8658D01*
X28451Y8655D01*
X28396Y8651D01*
X28347D01*
X28306Y8648D01*
X26862D01*
Y11851D01*
X27507D01*
Y10514D01*
X27716D01*
X27782Y10521D01*
X27837Y10525D01*
X27882Y10532D01*
X27917Y10539D01*
X27941Y10546D01*
X27959Y10549D01*
X27962Y10553D01*
X28000Y10567D01*
X28035Y10587D01*
X28070Y10608D01*
X28097Y10633D01*
X28122Y10653D01*
X28142Y10667D01*
X28153Y10681D01*
X28156Y10684D01*
X28177Y10705D01*
X28198Y10733D01*
X28222Y10764D01*
X28250Y10799D01*
X28306Y10875D01*
X28365Y10955D01*
X28417Y11032D01*
X28441Y11063D01*
X28458Y11094D01*
X28476Y11118D01*
X28490Y11136D01*
X28497Y11150D01*
X28500Y11153D01*
X28968Y11851D01*
X29742D01*
X29350Y11229D01*
D02*
G37*
G36*
X24159Y11906D02*
X24256Y11892D01*
X24346Y11871D01*
X24430Y11844D01*
X24506Y11812D01*
X24575Y11774D01*
X24641Y11736D01*
X24700Y11698D01*
X24752Y11660D01*
X24798Y11621D01*
X24836Y11583D01*
X24867Y11552D01*
X24895Y11524D01*
X24912Y11503D01*
X24922Y11490D01*
X24926Y11486D01*
X24968Y11427D01*
X25002Y11365D01*
X25033Y11306D01*
X25061Y11243D01*
X25082Y11184D01*
X25103Y11125D01*
X25117Y11070D01*
X25131Y11014D01*
X25137Y10966D01*
X25144Y10921D01*
X25151Y10879D01*
X25155Y10844D01*
X25158Y10816D01*
Y10796D01*
Y10782D01*
Y10778D01*
X25155Y10691D01*
X25144Y10608D01*
X25131Y10532D01*
X25113Y10456D01*
X25092Y10390D01*
X25068Y10324D01*
X25040Y10265D01*
X25016Y10213D01*
X24988Y10164D01*
X24961Y10122D01*
X24936Y10088D01*
X24915Y10060D01*
X24898Y10036D01*
X24884Y10018D01*
X24874Y10008D01*
X24870Y10004D01*
X24815Y9952D01*
X24759Y9907D01*
X24700Y9866D01*
X24641Y9831D01*
X24582Y9803D01*
X24527Y9779D01*
X24471Y9758D01*
X24416Y9744D01*
X24367Y9730D01*
X24322Y9723D01*
X24280Y9716D01*
X24246Y9709D01*
X24215D01*
X24194Y9706D01*
X24176D01*
X24096Y9709D01*
X24020Y9723D01*
X23951Y9737D01*
X23885Y9758D01*
X23833Y9775D01*
X23812Y9786D01*
X23791Y9793D01*
X23777Y9800D01*
X23767Y9807D01*
X23760Y9810D01*
X23756D01*
X23854Y9265D01*
X25016D01*
Y8689D01*
X23392D01*
X23076Y10358D01*
X23573Y10428D01*
X23611Y10386D01*
X23652Y10351D01*
X23694Y10320D01*
X23736Y10292D01*
X23774Y10272D01*
X23816Y10251D01*
X23888Y10223D01*
X23954Y10209D01*
X23979Y10202D01*
X24003Y10199D01*
X24024Y10195D01*
X24086D01*
X24124Y10202D01*
X24190Y10220D01*
X24249Y10244D01*
X24298Y10268D01*
X24339Y10296D01*
X24367Y10320D01*
X24385Y10338D01*
X24392Y10341D01*
Y10345D01*
X24437Y10407D01*
X24471Y10476D01*
X24496Y10549D01*
X24509Y10622D01*
X24520Y10688D01*
X24523Y10716D01*
Y10740D01*
X24527Y10761D01*
Y10775D01*
Y10785D01*
Y10789D01*
Y10844D01*
X24520Y10900D01*
X24513Y10948D01*
X24506Y10997D01*
X24496Y11039D01*
X24485Y11077D01*
X24471Y11111D01*
X24461Y11143D01*
X24447Y11170D01*
X24433Y11195D01*
X24423Y11215D01*
X24412Y11233D01*
X24405Y11243D01*
X24398Y11254D01*
X24392Y11257D01*
Y11261D01*
X24367Y11288D01*
X24339Y11313D01*
X24284Y11351D01*
X24232Y11378D01*
X24180Y11396D01*
X24135Y11410D01*
X24096Y11413D01*
X24083Y11417D01*
X24065D01*
X24003Y11410D01*
X23947Y11396D01*
X23895Y11378D01*
X23854Y11354D01*
X23816Y11333D01*
X23791Y11313D01*
X23774Y11299D01*
X23767Y11295D01*
X23725Y11247D01*
X23690Y11191D01*
X23663Y11139D01*
X23642Y11084D01*
X23628Y11039D01*
X23621Y11000D01*
X23618Y10986D01*
X23614Y10976D01*
Y10969D01*
Y10966D01*
X23004Y11032D01*
X23017Y11104D01*
X23031Y11174D01*
X23052Y11240D01*
X23076Y11302D01*
X23104Y11358D01*
X23132Y11410D01*
X23160Y11458D01*
X23187Y11503D01*
X23215Y11542D01*
X23243Y11576D01*
X23267Y11604D01*
X23288Y11628D01*
X23309Y11649D01*
X23323Y11663D01*
X23330Y11670D01*
X23333Y11673D01*
X23389Y11715D01*
X23444Y11750D01*
X23503Y11781D01*
X23566Y11809D01*
X23625Y11833D01*
X23687Y11851D01*
X23802Y11878D01*
X23854Y11889D01*
X23902Y11896D01*
X23947Y11902D01*
X23986Y11906D01*
X24017Y11909D01*
X24058D01*
X24159Y11906D01*
D02*
G37*
G36*
X38986Y8637D02*
X38487D01*
X38466Y8693D01*
X38442Y8745D01*
X38383Y8842D01*
X38320Y8929D01*
X38254Y9005D01*
X38223Y9040D01*
X38195Y9067D01*
X38171Y9095D01*
X38147Y9116D01*
X38129Y9133D01*
X38115Y9144D01*
X38105Y9151D01*
X38101Y9154D01*
X37997Y9231D01*
X37900Y9293D01*
X37813Y9345D01*
X37737Y9383D01*
X37702Y9401D01*
X37671Y9414D01*
X37647Y9425D01*
X37623Y9435D01*
X37605Y9442D01*
X37591Y9446D01*
X37584Y9449D01*
X37581D01*
Y10008D01*
X37664Y9977D01*
X37744Y9945D01*
X37824Y9911D01*
X37897Y9873D01*
X37966Y9834D01*
X38032Y9796D01*
X38091Y9758D01*
X38147Y9720D01*
X38199Y9685D01*
X38240Y9651D01*
X38282Y9619D01*
X38313Y9595D01*
X38337Y9574D01*
X38358Y9557D01*
X38369Y9546D01*
X38372Y9543D01*
Y11851D01*
X38986D01*
Y8637D01*
D02*
G37*
G36*
X34683Y9529D02*
X34052D01*
X33611Y10716D01*
X33587Y10789D01*
X33577Y10820D01*
X33566Y10851D01*
X33556Y10875D01*
X33552Y10896D01*
X33545Y10910D01*
Y10914D01*
X33538Y10934D01*
X33531Y10962D01*
X33521Y10997D01*
X33511Y11028D01*
X33500Y11059D01*
X33490Y11087D01*
X33486Y11104D01*
X33483Y11108D01*
Y11111D01*
X33358Y10716D01*
X32921Y9529D01*
X32275D01*
X33209Y11851D01*
X33760D01*
X34683Y9529D01*
D02*
G37*
G36*
X22580Y11281D02*
X21359D01*
X21400Y11222D01*
X21421Y11195D01*
X21439Y11167D01*
X21456Y11146D01*
X21470Y11129D01*
X21480Y11118D01*
X21484Y11115D01*
X21501Y11097D01*
X21522Y11073D01*
X21546Y11049D01*
X21574Y11021D01*
X21633Y10962D01*
X21695Y10903D01*
X21754Y10848D01*
X21782Y10823D01*
X21806Y10802D01*
X21824Y10785D01*
X21837Y10771D01*
X21848Y10764D01*
X21851Y10761D01*
X21903Y10712D01*
X21952Y10667D01*
X21997Y10622D01*
X22039Y10584D01*
X22073Y10546D01*
X22108Y10514D01*
X22136Y10483D01*
X22164Y10456D01*
X22202Y10410D01*
X22233Y10379D01*
X22247Y10358D01*
X22254Y10351D01*
X22313Y10272D01*
X22365Y10195D01*
X22407Y10126D01*
X22441Y10067D01*
X22466Y10015D01*
X22476Y9994D01*
X22486Y9977D01*
X22493Y9963D01*
X22497Y9949D01*
X22500Y9945D01*
Y9942D01*
X22528Y9869D01*
X22545Y9796D01*
X22559Y9727D01*
X22570Y9661D01*
X22577Y9609D01*
Y9585D01*
X22580Y9567D01*
Y9550D01*
Y9539D01*
Y9533D01*
Y9529D01*
X22577Y9460D01*
X22570Y9394D01*
X22556Y9331D01*
X22538Y9269D01*
X22518Y9213D01*
X22493Y9161D01*
X22469Y9113D01*
X22445Y9071D01*
X22417Y9029D01*
X22393Y8995D01*
X22368Y8963D01*
X22348Y8939D01*
X22330Y8922D01*
X22316Y8904D01*
X22309Y8897D01*
X22306Y8894D01*
X22254Y8849D01*
X22195Y8811D01*
X22136Y8776D01*
X22077Y8745D01*
X22015Y8721D01*
X21952Y8700D01*
X21893Y8682D01*
X21834Y8669D01*
X21779Y8658D01*
X21726Y8651D01*
X21681Y8644D01*
X21643Y8641D01*
X21609Y8637D01*
X21563D01*
X21484Y8641D01*
X21407Y8648D01*
X21334Y8658D01*
X21269Y8672D01*
X21203Y8689D01*
X21144Y8707D01*
X21091Y8727D01*
X21039Y8748D01*
X20994Y8769D01*
X20956Y8790D01*
X20922Y8807D01*
X20894Y8825D01*
X20873Y8839D01*
X20855Y8849D01*
X20845Y8856D01*
X20842Y8859D01*
X20790Y8904D01*
X20744Y8953D01*
X20703Y9008D01*
X20668Y9067D01*
X20637Y9127D01*
X20609Y9189D01*
X20585Y9248D01*
X20564Y9307D01*
X20547Y9363D01*
X20533Y9414D01*
X20522Y9463D01*
X20516Y9505D01*
X20508Y9539D01*
X20505Y9567D01*
X20502Y9581D01*
Y9588D01*
X21112Y9647D01*
X21116Y9598D01*
X21123Y9553D01*
X21140Y9473D01*
X21161Y9408D01*
X21182Y9356D01*
X21206Y9314D01*
X21223Y9286D01*
X21237Y9272D01*
X21241Y9265D01*
X21286Y9227D01*
X21338Y9196D01*
X21390Y9175D01*
X21439Y9161D01*
X21484Y9154D01*
X21518Y9147D01*
X21550D01*
X21619Y9151D01*
X21678Y9165D01*
X21730Y9182D01*
X21775Y9203D01*
X21810Y9224D01*
X21834Y9241D01*
X21851Y9255D01*
X21855Y9258D01*
X21893Y9303D01*
X21921Y9356D01*
X21938Y9408D01*
X21952Y9456D01*
X21959Y9505D01*
X21966Y9539D01*
Y9553D01*
Y9564D01*
Y9571D01*
Y9574D01*
X21959Y9644D01*
X21945Y9713D01*
X21924Y9775D01*
X21903Y9831D01*
X21879Y9879D01*
X21858Y9918D01*
X21848Y9932D01*
X21845Y9942D01*
X21837Y9945D01*
Y9949D01*
X21817Y9977D01*
X21789Y10011D01*
X21754Y10050D01*
X21720Y10088D01*
X21636Y10175D01*
X21546Y10261D01*
X21504Y10303D01*
X21463Y10345D01*
X21428Y10379D01*
X21393Y10410D01*
X21366Y10435D01*
X21345Y10456D01*
X21331Y10469D01*
X21328Y10473D01*
X21234Y10560D01*
X21150Y10643D01*
X21071Y10723D01*
X21001Y10796D01*
X20939Y10862D01*
X20883Y10927D01*
X20831Y10983D01*
X20790Y11035D01*
X20751Y11084D01*
X20720Y11122D01*
X20692Y11160D01*
X20672Y11188D01*
X20658Y11208D01*
X20644Y11226D01*
X20640Y11236D01*
X20637Y11240D01*
X20578Y11347D01*
X20533Y11455D01*
X20495Y11559D01*
X20467Y11653D01*
X20457Y11694D01*
X20449Y11733D01*
X20443Y11767D01*
X20436Y11795D01*
X20432Y11819D01*
Y11837D01*
X20429Y11847D01*
Y11851D01*
X22580D01*
Y11281D01*
D02*
G37*
G36*
X17604D02*
X16383D01*
X16424Y11222D01*
X16445Y11195D01*
X16463Y11167D01*
X16480Y11146D01*
X16494Y11129D01*
X16504Y11118D01*
X16508Y11115D01*
X16525Y11097D01*
X16546Y11073D01*
X16570Y11049D01*
X16598Y11021D01*
X16657Y10962D01*
X16719Y10903D01*
X16778Y10848D01*
X16806Y10823D01*
X16830Y10802D01*
X16848Y10785D01*
X16862Y10771D01*
X16872Y10764D01*
X16875Y10761D01*
X16928Y10712D01*
X16976Y10667D01*
X17021Y10622D01*
X17063Y10584D01*
X17097Y10546D01*
X17132Y10514D01*
X17160Y10483D01*
X17188Y10456D01*
X17226Y10410D01*
X17257Y10379D01*
X17271Y10358D01*
X17278Y10351D01*
X17337Y10272D01*
X17389Y10195D01*
X17431Y10126D01*
X17465Y10067D01*
X17490Y10015D01*
X17500Y9994D01*
X17511Y9977D01*
X17517Y9963D01*
X17521Y9949D01*
X17524Y9945D01*
Y9942D01*
X17552Y9869D01*
X17570Y9796D01*
X17583Y9727D01*
X17594Y9661D01*
X17601Y9609D01*
Y9585D01*
X17604Y9567D01*
Y9550D01*
Y9539D01*
Y9533D01*
Y9529D01*
X17601Y9460D01*
X17594Y9394D01*
X17580Y9331D01*
X17562Y9269D01*
X17542Y9213D01*
X17517Y9161D01*
X17493Y9113D01*
X17469Y9071D01*
X17441Y9029D01*
X17417Y8995D01*
X17392Y8963D01*
X17372Y8939D01*
X17354Y8922D01*
X17340Y8904D01*
X17334Y8897D01*
X17330Y8894D01*
X17278Y8849D01*
X17219Y8811D01*
X17160Y8776D01*
X17101Y8745D01*
X17039Y8721D01*
X16976Y8700D01*
X16917Y8682D01*
X16858Y8669D01*
X16803Y8658D01*
X16750Y8651D01*
X16705Y8644D01*
X16667Y8641D01*
X16633Y8637D01*
X16587D01*
X16508Y8641D01*
X16431Y8648D01*
X16358Y8658D01*
X16293Y8672D01*
X16227Y8689D01*
X16168Y8707D01*
X16116Y8727D01*
X16063Y8748D01*
X16018Y8769D01*
X15980Y8790D01*
X15946Y8807D01*
X15918Y8825D01*
X15897Y8839D01*
X15880Y8849D01*
X15869Y8856D01*
X15866Y8859D01*
X15814Y8904D01*
X15768Y8953D01*
X15727Y9008D01*
X15692Y9067D01*
X15661Y9127D01*
X15633Y9189D01*
X15609Y9248D01*
X15588Y9307D01*
X15571Y9363D01*
X15557Y9414D01*
X15546Y9463D01*
X15540Y9505D01*
X15533Y9539D01*
X15529Y9567D01*
X15526Y9581D01*
Y9588D01*
X16136Y9647D01*
X16140Y9598D01*
X16147Y9553D01*
X16164Y9473D01*
X16185Y9408D01*
X16206Y9356D01*
X16230Y9314D01*
X16247Y9286D01*
X16261Y9272D01*
X16265Y9265D01*
X16310Y9227D01*
X16362Y9196D01*
X16414Y9175D01*
X16463Y9161D01*
X16508Y9154D01*
X16542Y9147D01*
X16574D01*
X16643Y9151D01*
X16702Y9165D01*
X16754Y9182D01*
X16799Y9203D01*
X16834Y9224D01*
X16858Y9241D01*
X16875Y9255D01*
X16879Y9258D01*
X16917Y9303D01*
X16945Y9356D01*
X16962Y9408D01*
X16976Y9456D01*
X16983Y9505D01*
X16990Y9539D01*
Y9553D01*
Y9564D01*
Y9571D01*
Y9574D01*
X16983Y9644D01*
X16969Y9713D01*
X16948Y9775D01*
X16928Y9831D01*
X16903Y9879D01*
X16882Y9918D01*
X16872Y9932D01*
X16869Y9942D01*
X16862Y9945D01*
Y9949D01*
X16841Y9977D01*
X16813Y10011D01*
X16778Y10050D01*
X16744Y10088D01*
X16660Y10175D01*
X16570Y10261D01*
X16529Y10303D01*
X16487Y10345D01*
X16452Y10379D01*
X16417Y10410D01*
X16390Y10435D01*
X16369Y10456D01*
X16355Y10469D01*
X16352Y10473D01*
X16258Y10560D01*
X16174Y10643D01*
X16095Y10723D01*
X16025Y10796D01*
X15963Y10862D01*
X15907Y10927D01*
X15855Y10983D01*
X15814Y11035D01*
X15776Y11084D01*
X15744Y11122D01*
X15717Y11160D01*
X15696Y11188D01*
X15682Y11208D01*
X15668Y11226D01*
X15664Y11236D01*
X15661Y11240D01*
X15602Y11347D01*
X15557Y11455D01*
X15519Y11559D01*
X15491Y11653D01*
X15481Y11694D01*
X15474Y11733D01*
X15467Y11767D01*
X15460Y11795D01*
X15456Y11819D01*
Y11837D01*
X15453Y11847D01*
Y11851D01*
X17604D01*
Y11281D01*
D02*
G37*
G36*
X42265Y11906D02*
X42345Y11896D01*
X42422Y11878D01*
X42491Y11857D01*
X42557Y11833D01*
X42616Y11805D01*
X42671Y11778D01*
X42720Y11746D01*
X42762Y11715D01*
X42800Y11687D01*
X42834Y11660D01*
X42859Y11635D01*
X42880Y11614D01*
X42897Y11597D01*
X42904Y11587D01*
X42907Y11583D01*
X42963Y11503D01*
X43012Y11413D01*
X43053Y11313D01*
X43091Y11212D01*
X43119Y11104D01*
X43147Y10993D01*
X43168Y10886D01*
X43185Y10778D01*
X43195Y10678D01*
X43206Y10584D01*
X43213Y10497D01*
X43220Y10424D01*
Y10390D01*
Y10362D01*
X43223Y10338D01*
Y10313D01*
Y10299D01*
Y10285D01*
Y10278D01*
Y10275D01*
X43220Y10112D01*
X43209Y9959D01*
X43195Y9817D01*
X43175Y9689D01*
X43150Y9571D01*
X43126Y9463D01*
X43095Y9366D01*
X43067Y9283D01*
X43039Y9206D01*
X43012Y9144D01*
X42984Y9088D01*
X42959Y9047D01*
X42939Y9012D01*
X42925Y8988D01*
X42914Y8974D01*
X42911Y8970D01*
X42859Y8911D01*
X42803Y8859D01*
X42744Y8814D01*
X42685Y8776D01*
X42626Y8745D01*
X42564Y8717D01*
X42505Y8696D01*
X42449Y8679D01*
X42394Y8665D01*
X42342Y8655D01*
X42297Y8648D01*
X42259Y8641D01*
X42227D01*
X42203Y8637D01*
X42182D01*
X42099Y8641D01*
X42019Y8651D01*
X41943Y8669D01*
X41873Y8689D01*
X41807Y8714D01*
X41748Y8741D01*
X41693Y8773D01*
X41644Y8800D01*
X41603Y8832D01*
X41565Y8863D01*
X41533Y8891D01*
X41506Y8915D01*
X41485Y8936D01*
X41471Y8953D01*
X41460Y8963D01*
X41457Y8967D01*
X41401Y9047D01*
X41353Y9137D01*
X41311Y9234D01*
X41276Y9338D01*
X41245Y9446D01*
X41221Y9553D01*
X41200Y9661D01*
X41183Y9769D01*
X41172Y9869D01*
X41162Y9963D01*
X41155Y10046D01*
X41148Y10122D01*
Y10154D01*
Y10181D01*
X41145Y10206D01*
Y10230D01*
Y10244D01*
Y10258D01*
Y10265D01*
Y10268D01*
X41148Y10435D01*
X41159Y10587D01*
X41172Y10730D01*
X41190Y10858D01*
X41211Y10976D01*
X41235Y11080D01*
X41259Y11174D01*
X41287Y11257D01*
X41315Y11327D01*
X41339Y11389D01*
X41363Y11441D01*
X41384Y11483D01*
X41401Y11514D01*
X41419Y11535D01*
X41426Y11549D01*
X41429Y11552D01*
X41485Y11614D01*
X41544Y11670D01*
X41606Y11719D01*
X41669Y11760D01*
X41731Y11791D01*
X41794Y11823D01*
X41853Y11847D01*
X41912Y11864D01*
X41967Y11878D01*
X42019Y11892D01*
X42064Y11899D01*
X42106Y11902D01*
X42137Y11906D01*
X42161Y11909D01*
X42182D01*
X42265Y11906D01*
D02*
G37*
G36*
X19138D02*
X19218Y11896D01*
X19294Y11878D01*
X19363Y11857D01*
X19429Y11833D01*
X19488Y11805D01*
X19544Y11778D01*
X19592Y11746D01*
X19634Y11715D01*
X19672Y11687D01*
X19707Y11660D01*
X19731Y11635D01*
X19752Y11614D01*
X19769Y11597D01*
X19776Y11587D01*
X19780Y11583D01*
X19835Y11503D01*
X19884Y11413D01*
X19926Y11313D01*
X19964Y11212D01*
X19992Y11104D01*
X20019Y10993D01*
X20040Y10886D01*
X20057Y10778D01*
X20068Y10678D01*
X20078Y10584D01*
X20085Y10497D01*
X20092Y10424D01*
Y10390D01*
Y10362D01*
X20096Y10338D01*
Y10313D01*
Y10299D01*
Y10285D01*
Y10278D01*
Y10275D01*
X20092Y10112D01*
X20082Y9959D01*
X20068Y9817D01*
X20047Y9689D01*
X20023Y9571D01*
X19998Y9463D01*
X19967Y9366D01*
X19940Y9283D01*
X19912Y9206D01*
X19884Y9144D01*
X19856Y9088D01*
X19832Y9047D01*
X19811Y9012D01*
X19797Y8988D01*
X19787Y8974D01*
X19783Y8970D01*
X19731Y8911D01*
X19676Y8859D01*
X19617Y8814D01*
X19558Y8776D01*
X19499Y8745D01*
X19436Y8717D01*
X19377Y8696D01*
X19322Y8679D01*
X19266Y8665D01*
X19214Y8655D01*
X19169Y8648D01*
X19131Y8641D01*
X19100D01*
X19075Y8637D01*
X19055D01*
X18971Y8641D01*
X18891Y8651D01*
X18815Y8669D01*
X18746Y8689D01*
X18680Y8714D01*
X18621Y8741D01*
X18565Y8773D01*
X18517Y8800D01*
X18475Y8832D01*
X18437Y8863D01*
X18406Y8891D01*
X18378Y8915D01*
X18357Y8936D01*
X18343Y8953D01*
X18333Y8963D01*
X18329Y8967D01*
X18274Y9047D01*
X18225Y9137D01*
X18184Y9234D01*
X18149Y9338D01*
X18118Y9446D01*
X18093Y9553D01*
X18073Y9661D01*
X18055Y9769D01*
X18045Y9869D01*
X18034Y9963D01*
X18027Y10046D01*
X18021Y10122D01*
Y10154D01*
Y10181D01*
X18017Y10206D01*
Y10230D01*
Y10244D01*
Y10258D01*
Y10265D01*
Y10268D01*
X18021Y10435D01*
X18031Y10587D01*
X18045Y10730D01*
X18062Y10858D01*
X18083Y10976D01*
X18107Y11080D01*
X18132Y11174D01*
X18159Y11257D01*
X18187Y11327D01*
X18211Y11389D01*
X18236Y11441D01*
X18257Y11483D01*
X18274Y11514D01*
X18291Y11535D01*
X18298Y11549D01*
X18302Y11552D01*
X18357Y11614D01*
X18416Y11670D01*
X18479Y11719D01*
X18541Y11760D01*
X18604Y11791D01*
X18666Y11823D01*
X18725Y11847D01*
X18784Y11864D01*
X18839Y11878D01*
X18891Y11892D01*
X18937Y11899D01*
X18978Y11902D01*
X19010Y11906D01*
X19034Y11909D01*
X19055D01*
X19138Y11906D01*
D02*
G37*
%LPC*%
G36*
X50208Y3395D02*
X49330D01*
X49764Y2209D01*
X50208Y3395D01*
D02*
G37*
G36*
X72611Y2819D02*
X72021D01*
Y2004D01*
X72715Y2004D01*
X72763Y2007D01*
X72847D01*
X72881Y2011D01*
X72933D01*
X72951Y2014D01*
X72978D01*
X72992Y2018D01*
X72996D01*
X73051Y2032D01*
X73103Y2049D01*
X73145Y2066D01*
X73180Y2091D01*
X73207Y2108D01*
X73225Y2125D01*
X73239Y2139D01*
X73242Y2143D01*
X73270Y2184D01*
X73291Y2226D01*
X73308Y2268D01*
X73318Y2309D01*
X73325Y2348D01*
X73329Y2375D01*
Y2396D01*
Y2400D01*
Y2403D01*
X73325Y2455D01*
X73318Y2504D01*
X73308Y2545D01*
X73298Y2580D01*
X73284Y2608D01*
X73273Y2629D01*
X73266Y2642D01*
X73263Y2646D01*
X73235Y2681D01*
X73207Y2708D01*
X73176Y2733D01*
X73145Y2750D01*
X73121Y2764D01*
X73100Y2774D01*
X73086Y2778D01*
X73079Y2781D01*
X73055Y2788D01*
X73020Y2795D01*
X72982Y2799D01*
X72940Y2802D01*
X72847Y2809D01*
X72746Y2816D01*
X72652D01*
X72611Y2819D01*
D02*
G37*
G36*
X27129D02*
X26539D01*
Y2004D01*
X27233D01*
X27282Y2007D01*
X27365D01*
X27400Y2011D01*
X27452D01*
X27469Y2014D01*
X27497D01*
X27511Y2018D01*
X27514D01*
X27570Y2032D01*
X27622Y2049D01*
X27664Y2066D01*
X27698Y2091D01*
X27726Y2108D01*
X27744Y2125D01*
X27757Y2139D01*
X27761Y2143D01*
X27789Y2184D01*
X27809Y2226D01*
X27827Y2268D01*
X27837Y2309D01*
X27844Y2348D01*
X27848Y2375D01*
Y2396D01*
Y2400D01*
Y2403D01*
X27844Y2455D01*
X27837Y2504D01*
X27827Y2545D01*
X27816Y2580D01*
X27803Y2608D01*
X27792Y2629D01*
X27785Y2642D01*
X27782Y2646D01*
X27754Y2681D01*
X27726Y2708D01*
X27695Y2733D01*
X27664Y2750D01*
X27639Y2764D01*
X27619Y2774D01*
X27605Y2778D01*
X27598Y2781D01*
X27573Y2788D01*
X27539Y2795D01*
X27501Y2799D01*
X27459Y2802D01*
X27365Y2809D01*
X27265Y2816D01*
X27171D01*
X27129Y2819D01*
D02*
G37*
G36*
X69335Y4173D02*
X69318D01*
X69248Y4169D01*
X69179Y4159D01*
X69113Y4145D01*
X69054Y4128D01*
X68998Y4107D01*
X68946Y4082D01*
X68898Y4058D01*
X68853Y4030D01*
X68814Y4006D01*
X68780Y3982D01*
X68748Y3957D01*
X68724Y3937D01*
X68703Y3916D01*
X68690Y3902D01*
X68682Y3895D01*
X68679Y3892D01*
X68634Y3836D01*
X68596Y3774D01*
X68564Y3711D01*
X68533Y3645D01*
X68509Y3576D01*
X68492Y3506D01*
X68474Y3441D01*
X68461Y3375D01*
X68450Y3312D01*
X68443Y3253D01*
X68436Y3201D01*
X68433Y3156D01*
Y3118D01*
X68429Y3090D01*
Y3073D01*
Y3066D01*
X68433Y2965D01*
X68440Y2871D01*
X68450Y2785D01*
X68467Y2705D01*
X68485Y2629D01*
X68506Y2563D01*
X68530Y2500D01*
X68551Y2445D01*
X68575Y2396D01*
X68596Y2354D01*
X68617Y2320D01*
X68634Y2292D01*
X68651Y2268D01*
X68662Y2254D01*
X68669Y2243D01*
X68672Y2240D01*
X68721Y2191D01*
X68769Y2150D01*
X68825Y2111D01*
X68877Y2080D01*
X68932Y2052D01*
X68984Y2028D01*
X69037Y2011D01*
X69089Y1997D01*
X69134Y1987D01*
X69179Y1976D01*
X69217Y1969D01*
X69252Y1966D01*
X69279Y1962D01*
X69318D01*
X69390Y1966D01*
X69460Y1973D01*
X69526Y1987D01*
X69585Y2004D01*
X69644Y2025D01*
X69696Y2049D01*
X69744Y2073D01*
X69789Y2098D01*
X69828Y2125D01*
X69862Y2150D01*
X69890Y2174D01*
X69914Y2195D01*
X69935Y2212D01*
X69949Y2226D01*
X69956Y2233D01*
X69959Y2236D01*
X70001Y2289D01*
X70039Y2351D01*
X70070Y2413D01*
X70102Y2479D01*
X70123Y2545D01*
X70143Y2615D01*
X70161Y2684D01*
X70171Y2750D01*
X70182Y2812D01*
X70188Y2871D01*
X70196Y2923D01*
X70199Y2969D01*
X70202Y3007D01*
Y3035D01*
Y3052D01*
Y3059D01*
X70199Y3159D01*
X70192Y3257D01*
X70178Y3343D01*
X70164Y3427D01*
X70143Y3500D01*
X70123Y3569D01*
X70102Y3631D01*
X70078Y3687D01*
X70053Y3735D01*
X70032Y3777D01*
X70012Y3815D01*
X69991Y3843D01*
X69977Y3867D01*
X69963Y3881D01*
X69956Y3892D01*
X69952Y3895D01*
X69904Y3944D01*
X69852Y3985D01*
X69800Y4024D01*
X69748Y4055D01*
X69696Y4082D01*
X69640Y4103D01*
X69592Y4124D01*
X69543Y4138D01*
X69494Y4148D01*
X69453Y4159D01*
X69415Y4166D01*
X69384Y4169D01*
X69356D01*
X69335Y4173D01*
D02*
G37*
G36*
X30565D02*
X30547D01*
X30478Y4169D01*
X30408Y4159D01*
X30343Y4145D01*
X30283Y4128D01*
X30228Y4107D01*
X30176Y4082D01*
X30127Y4058D01*
X30082Y4030D01*
X30044Y4006D01*
X30009Y3982D01*
X29978Y3957D01*
X29954Y3937D01*
X29933Y3916D01*
X29919Y3902D01*
X29912Y3895D01*
X29909Y3892D01*
X29864Y3836D01*
X29825Y3774D01*
X29794Y3711D01*
X29763Y3645D01*
X29739Y3576D01*
X29721Y3506D01*
X29704Y3441D01*
X29690Y3375D01*
X29680Y3312D01*
X29673Y3253D01*
X29666Y3201D01*
X29662Y3156D01*
Y3118D01*
X29659Y3090D01*
Y3073D01*
Y3066D01*
X29662Y2965D01*
X29669Y2871D01*
X29680Y2785D01*
X29697Y2705D01*
X29714Y2629D01*
X29735Y2563D01*
X29759Y2500D01*
X29780Y2445D01*
X29805Y2396D01*
X29825Y2354D01*
X29846Y2320D01*
X29864Y2292D01*
X29881Y2268D01*
X29891Y2254D01*
X29898Y2243D01*
X29902Y2240D01*
X29950Y2191D01*
X29999Y2150D01*
X30055Y2111D01*
X30106Y2080D01*
X30162Y2052D01*
X30214Y2028D01*
X30266Y2011D01*
X30318Y1997D01*
X30363Y1987D01*
X30408Y1976D01*
X30447Y1969D01*
X30481Y1966D01*
X30509Y1962D01*
X30547D01*
X30620Y1966D01*
X30689Y1973D01*
X30755Y1987D01*
X30814Y2004D01*
X30873Y2025D01*
X30926Y2049D01*
X30974Y2073D01*
X31019Y2098D01*
X31057Y2125D01*
X31092Y2150D01*
X31120Y2174D01*
X31144Y2195D01*
X31165Y2212D01*
X31179Y2226D01*
X31186Y2233D01*
X31189Y2236D01*
X31231Y2289D01*
X31269Y2351D01*
X31300Y2413D01*
X31332Y2479D01*
X31352Y2545D01*
X31373Y2615D01*
X31390Y2684D01*
X31401Y2750D01*
X31411Y2812D01*
X31418Y2871D01*
X31425Y2923D01*
X31429Y2969D01*
X31432Y3007D01*
Y3035D01*
Y3052D01*
Y3059D01*
X31429Y3159D01*
X31422Y3257D01*
X31408Y3343D01*
X31394Y3427D01*
X31373Y3500D01*
X31352Y3569D01*
X31332Y3631D01*
X31307Y3687D01*
X31283Y3735D01*
X31262Y3777D01*
X31241Y3815D01*
X31220Y3843D01*
X31207Y3867D01*
X31193Y3881D01*
X31186Y3892D01*
X31182Y3895D01*
X31134Y3944D01*
X31082Y3985D01*
X31030Y4024D01*
X30977Y4055D01*
X30926Y4082D01*
X30870Y4103D01*
X30821Y4124D01*
X30773Y4138D01*
X30724Y4148D01*
X30683Y4159D01*
X30644Y4166D01*
X30613Y4169D01*
X30585D01*
X30565Y4173D01*
D02*
G37*
G36*
X31356Y6461D02*
X30766D01*
Y5646D01*
X31460D01*
X31508Y5649D01*
X31592D01*
X31626Y5653D01*
X31679D01*
X31696Y5656D01*
X31724D01*
X31738Y5660D01*
X31741D01*
X31796Y5673D01*
X31848Y5691D01*
X31890Y5708D01*
X31925Y5732D01*
X31953Y5750D01*
X31970Y5767D01*
X31984Y5781D01*
X31987Y5785D01*
X32015Y5826D01*
X32036Y5868D01*
X32053Y5909D01*
X32064Y5951D01*
X32071Y5989D01*
X32074Y6017D01*
Y6038D01*
Y6041D01*
Y6045D01*
X32071Y6097D01*
X32064Y6145D01*
X32053Y6187D01*
X32043Y6222D01*
X32029Y6250D01*
X32019Y6270D01*
X32012Y6284D01*
X32008Y6288D01*
X31980Y6322D01*
X31953Y6350D01*
X31921Y6374D01*
X31890Y6392D01*
X31866Y6406D01*
X31845Y6416D01*
X31831Y6419D01*
X31824Y6423D01*
X31800Y6430D01*
X31765Y6437D01*
X31727Y6440D01*
X31685Y6444D01*
X31592Y6451D01*
X31491Y6458D01*
X31397D01*
X31356Y6461D01*
D02*
G37*
G36*
X20422D02*
X19832D01*
Y5646D01*
X20526D01*
X20574Y5649D01*
X20658D01*
X20692Y5653D01*
X20744D01*
X20762Y5656D01*
X20790D01*
X20804Y5660D01*
X20807D01*
X20863Y5673D01*
X20914Y5691D01*
X20956Y5708D01*
X20991Y5732D01*
X21019Y5750D01*
X21036Y5767D01*
X21050Y5781D01*
X21053Y5785D01*
X21081Y5826D01*
X21102Y5868D01*
X21119Y5909D01*
X21130Y5951D01*
X21137Y5989D01*
X21140Y6017D01*
Y6038D01*
Y6041D01*
Y6045D01*
X21137Y6097D01*
X21130Y6145D01*
X21119Y6187D01*
X21109Y6222D01*
X21095Y6250D01*
X21084Y6270D01*
X21078Y6284D01*
X21074Y6288D01*
X21046Y6322D01*
X21019Y6350D01*
X20987Y6374D01*
X20956Y6392D01*
X20932Y6406D01*
X20911Y6416D01*
X20897Y6419D01*
X20890Y6423D01*
X20866Y6430D01*
X20831Y6437D01*
X20793Y6440D01*
X20751Y6444D01*
X20658Y6451D01*
X20557Y6458D01*
X20463D01*
X20422Y6461D01*
D02*
G37*
G36*
X47370Y6558D02*
X46922D01*
Y5646D01*
X47356D01*
X47408Y5649D01*
X47453D01*
X47495Y5653D01*
X47533D01*
X47568Y5656D01*
X47599D01*
X47623Y5660D01*
X47644Y5663D01*
X47661D01*
X47675Y5666D01*
X47692Y5670D01*
X47699D01*
X47755Y5684D01*
X47807Y5705D01*
X47852Y5725D01*
X47887Y5750D01*
X47918Y5774D01*
X47942Y5795D01*
X47956Y5809D01*
X47960Y5812D01*
X47994Y5857D01*
X48019Y5906D01*
X48039Y5954D01*
X48050Y6000D01*
X48057Y6038D01*
X48064Y6072D01*
Y6093D01*
Y6097D01*
Y6100D01*
X48060Y6152D01*
X48053Y6201D01*
X48039Y6242D01*
X48026Y6277D01*
X48012Y6308D01*
X47998Y6329D01*
X47991Y6347D01*
X47987Y6350D01*
X47960Y6388D01*
X47925Y6419D01*
X47890Y6447D01*
X47859Y6471D01*
X47831Y6489D01*
X47807Y6499D01*
X47793Y6506D01*
X47786Y6510D01*
X47758Y6517D01*
X47727Y6527D01*
X47692Y6531D01*
X47651Y6538D01*
X47568Y6548D01*
X47484Y6551D01*
X47405Y6555D01*
X47370Y6558D01*
D02*
G37*
G36*
X44236Y7814D02*
X44219D01*
X44150Y7811D01*
X44080Y7801D01*
X44014Y7787D01*
X43955Y7769D01*
X43900Y7749D01*
X43848Y7724D01*
X43799Y7700D01*
X43754Y7672D01*
X43716Y7648D01*
X43681Y7624D01*
X43650Y7599D01*
X43626Y7579D01*
X43605Y7558D01*
X43591Y7544D01*
X43584Y7537D01*
X43581Y7533D01*
X43535Y7478D01*
X43497Y7415D01*
X43466Y7353D01*
X43435Y7287D01*
X43411Y7218D01*
X43393Y7148D01*
X43376Y7082D01*
X43362Y7016D01*
X43352Y6954D01*
X43345Y6895D01*
X43338Y6843D01*
X43334Y6798D01*
Y6759D01*
X43331Y6732D01*
Y6714D01*
Y6707D01*
X43334Y6607D01*
X43341Y6513D01*
X43352Y6426D01*
X43369Y6347D01*
X43386Y6270D01*
X43407Y6204D01*
X43431Y6142D01*
X43452Y6086D01*
X43477Y6038D01*
X43497Y5996D01*
X43518Y5961D01*
X43535Y5934D01*
X43553Y5909D01*
X43563Y5895D01*
X43570Y5885D01*
X43574Y5882D01*
X43622Y5833D01*
X43671Y5791D01*
X43726Y5753D01*
X43778Y5722D01*
X43834Y5694D01*
X43886Y5670D01*
X43938Y5653D01*
X43990Y5639D01*
X44035Y5628D01*
X44080Y5618D01*
X44118Y5611D01*
X44153Y5607D01*
X44181Y5604D01*
X44219D01*
X44292Y5607D01*
X44361Y5614D01*
X44427Y5628D01*
X44486Y5646D01*
X44545Y5666D01*
X44597Y5691D01*
X44646Y5715D01*
X44691Y5739D01*
X44729Y5767D01*
X44764Y5791D01*
X44792Y5816D01*
X44816Y5836D01*
X44837Y5854D01*
X44851Y5868D01*
X44857Y5875D01*
X44861Y5878D01*
X44903Y5930D01*
X44941Y5993D01*
X44972Y6055D01*
X45003Y6121D01*
X45024Y6187D01*
X45045Y6256D01*
X45062Y6326D01*
X45073Y6392D01*
X45083Y6454D01*
X45090Y6513D01*
X45097Y6565D01*
X45100Y6610D01*
X45104Y6649D01*
Y6676D01*
Y6694D01*
Y6701D01*
X45100Y6801D01*
X45094Y6898D01*
X45080Y6985D01*
X45066Y7068D01*
X45045Y7141D01*
X45024Y7211D01*
X45003Y7273D01*
X44979Y7329D01*
X44955Y7377D01*
X44934Y7419D01*
X44913Y7457D01*
X44892Y7485D01*
X44878Y7509D01*
X44864Y7523D01*
X44857Y7533D01*
X44854Y7537D01*
X44805Y7585D01*
X44753Y7627D01*
X44701Y7665D01*
X44649Y7696D01*
X44597Y7724D01*
X44542Y7745D01*
X44493Y7766D01*
X44445Y7780D01*
X44396Y7790D01*
X44354Y7801D01*
X44316Y7807D01*
X44285Y7811D01*
X44257D01*
X44236Y7814D01*
D02*
G37*
G36*
X28080D02*
X28063D01*
X27993Y7811D01*
X27924Y7801D01*
X27858Y7787D01*
X27799Y7769D01*
X27744Y7749D01*
X27691Y7724D01*
X27643Y7700D01*
X27598Y7672D01*
X27560Y7648D01*
X27525Y7624D01*
X27494Y7599D01*
X27469Y7579D01*
X27448Y7558D01*
X27435Y7544D01*
X27428Y7537D01*
X27424Y7533D01*
X27379Y7478D01*
X27341Y7415D01*
X27310Y7353D01*
X27279Y7287D01*
X27254Y7218D01*
X27237Y7148D01*
X27220Y7082D01*
X27206Y7016D01*
X27195Y6954D01*
X27188Y6895D01*
X27181Y6843D01*
X27178Y6798D01*
Y6759D01*
X27174Y6732D01*
Y6714D01*
Y6707D01*
X27178Y6607D01*
X27185Y6513D01*
X27195Y6426D01*
X27213Y6347D01*
X27230Y6270D01*
X27251Y6204D01*
X27275Y6142D01*
X27296Y6086D01*
X27320Y6038D01*
X27341Y5996D01*
X27362Y5961D01*
X27379Y5934D01*
X27397Y5909D01*
X27407Y5895D01*
X27414Y5885D01*
X27417Y5882D01*
X27466Y5833D01*
X27514Y5791D01*
X27570Y5753D01*
X27622Y5722D01*
X27678Y5694D01*
X27730Y5670D01*
X27782Y5653D01*
X27834Y5639D01*
X27879Y5628D01*
X27924Y5618D01*
X27962Y5611D01*
X27997Y5607D01*
X28025Y5604D01*
X28063D01*
X28136Y5607D01*
X28205Y5614D01*
X28271Y5628D01*
X28330Y5646D01*
X28389Y5666D01*
X28441Y5691D01*
X28490Y5715D01*
X28535Y5739D01*
X28573Y5767D01*
X28607Y5791D01*
X28635Y5816D01*
X28660Y5836D01*
X28680Y5854D01*
X28694Y5868D01*
X28701Y5875D01*
X28705Y5878D01*
X28746Y5930D01*
X28784Y5993D01*
X28816Y6055D01*
X28847Y6121D01*
X28868Y6187D01*
X28889Y6256D01*
X28906Y6326D01*
X28916Y6392D01*
X28927Y6454D01*
X28934Y6513D01*
X28941Y6565D01*
X28944Y6610D01*
X28948Y6649D01*
Y6676D01*
Y6694D01*
Y6701D01*
X28944Y6801D01*
X28937Y6898D01*
X28923Y6985D01*
X28909Y7068D01*
X28889Y7141D01*
X28868Y7211D01*
X28847Y7273D01*
X28823Y7329D01*
X28798Y7377D01*
X28778Y7419D01*
X28757Y7457D01*
X28736Y7485D01*
X28722Y7509D01*
X28708Y7523D01*
X28701Y7533D01*
X28698Y7537D01*
X28649Y7585D01*
X28597Y7627D01*
X28545Y7665D01*
X28493Y7696D01*
X28441Y7724D01*
X28385Y7745D01*
X28337Y7766D01*
X28288Y7780D01*
X28240Y7790D01*
X28198Y7801D01*
X28160Y7807D01*
X28129Y7811D01*
X28101D01*
X28080Y7814D01*
D02*
G37*
G36*
X31463Y10490D02*
X30547D01*
X30551Y10400D01*
X30565Y10324D01*
X30585Y10254D01*
X30610Y10199D01*
X30634Y10154D01*
X30655Y10122D01*
X30669Y10102D01*
X30676Y10095D01*
X30700Y10067D01*
X30728Y10046D01*
X30780Y10008D01*
X30835Y9980D01*
X30887Y9963D01*
X30936Y9952D01*
X30971Y9949D01*
X30985Y9945D01*
X31005D01*
X31071Y9952D01*
X31134Y9966D01*
X31189Y9990D01*
X31234Y10015D01*
X31273Y10043D01*
X31300Y10067D01*
X31318Y10081D01*
X31324Y10088D01*
X31370Y10143D01*
X31401Y10209D01*
X31425Y10275D01*
X31442Y10341D01*
X31453Y10400D01*
X31456Y10424D01*
X31460Y10445D01*
X31463Y10466D01*
Y10480D01*
Y10487D01*
Y10490D01*
D02*
G37*
G36*
X28097Y10004D02*
X27507D01*
Y9189D01*
X28201D01*
X28250Y9192D01*
X28333D01*
X28368Y9196D01*
X28420D01*
X28438Y9199D01*
X28465D01*
X28479Y9203D01*
X28483D01*
X28538Y9217D01*
X28590Y9234D01*
X28632Y9251D01*
X28666Y9276D01*
X28694Y9293D01*
X28712Y9310D01*
X28725Y9324D01*
X28729Y9328D01*
X28757Y9369D01*
X28778Y9411D01*
X28795Y9453D01*
X28805Y9494D01*
X28812Y9533D01*
X28816Y9560D01*
Y9581D01*
Y9585D01*
Y9588D01*
X28812Y9640D01*
X28805Y9689D01*
X28795Y9730D01*
X28784Y9765D01*
X28771Y9793D01*
X28760Y9814D01*
X28753Y9827D01*
X28750Y9831D01*
X28722Y9866D01*
X28694Y9893D01*
X28663Y9918D01*
X28632Y9935D01*
X28607Y9949D01*
X28587Y9959D01*
X28573Y9963D01*
X28566Y9966D01*
X28542Y9973D01*
X28507Y9980D01*
X28469Y9984D01*
X28427Y9987D01*
X28333Y9994D01*
X28233Y10001D01*
X28139D01*
X28097Y10004D01*
D02*
G37*
G36*
X42200Y11399D02*
X42182D01*
X42140Y11396D01*
X42106Y11389D01*
X42071Y11378D01*
X42043Y11365D01*
X42019Y11351D01*
X41998Y11340D01*
X41988Y11333D01*
X41984Y11330D01*
X41953Y11299D01*
X41925Y11257D01*
X41901Y11212D01*
X41880Y11163D01*
X41863Y11122D01*
X41853Y11087D01*
X41849Y11073D01*
X41846Y11063D01*
X41842Y11056D01*
Y11052D01*
X41832Y11007D01*
X41825Y10959D01*
X41818Y10903D01*
X41811Y10841D01*
X41800Y10712D01*
X41794Y10584D01*
X41790Y10521D01*
Y10466D01*
Y10414D01*
X41787Y10365D01*
Y10327D01*
Y10299D01*
Y10282D01*
Y10275D01*
Y10175D01*
X41790Y10081D01*
X41794Y9990D01*
X41797Y9914D01*
X41800Y9841D01*
X41807Y9775D01*
X41811Y9716D01*
X41818Y9664D01*
X41825Y9619D01*
X41828Y9578D01*
X41835Y9546D01*
X41839Y9519D01*
X41842Y9498D01*
X41846Y9484D01*
X41849Y9477D01*
Y9473D01*
X41870Y9411D01*
X41891Y9356D01*
X41915Y9314D01*
X41936Y9279D01*
X41953Y9251D01*
X41971Y9234D01*
X41981Y9224D01*
X41984Y9220D01*
X42019Y9196D01*
X42050Y9179D01*
X42085Y9165D01*
X42116Y9158D01*
X42144Y9151D01*
X42165Y9147D01*
X42182D01*
X42224Y9151D01*
X42259Y9158D01*
X42293Y9172D01*
X42324Y9182D01*
X42345Y9196D01*
X42366Y9210D01*
X42377Y9217D01*
X42380Y9220D01*
X42411Y9251D01*
X42439Y9293D01*
X42463Y9338D01*
X42484Y9387D01*
X42501Y9432D01*
X42512Y9467D01*
X42515Y9481D01*
X42519Y9491D01*
X42522Y9498D01*
Y9501D01*
X42533Y9546D01*
X42543Y9595D01*
X42550Y9651D01*
X42557Y9713D01*
X42567Y9838D01*
X42574Y9966D01*
X42578Y10029D01*
Y10084D01*
X42581Y10140D01*
Y10185D01*
Y10223D01*
Y10251D01*
Y10268D01*
Y10275D01*
Y10376D01*
X42578Y10473D01*
X42574Y10560D01*
X42571Y10639D01*
X42567Y10712D01*
X42560Y10778D01*
X42553Y10837D01*
X42550Y10889D01*
X42543Y10934D01*
X42536Y10972D01*
X42529Y11004D01*
X42526Y11032D01*
X42522Y11052D01*
X42519Y11066D01*
X42515Y11073D01*
Y11077D01*
X42494Y11139D01*
X42474Y11195D01*
X42453Y11236D01*
X42428Y11271D01*
X42411Y11299D01*
X42394Y11316D01*
X42383Y11327D01*
X42380Y11330D01*
X42345Y11354D01*
X42314Y11372D01*
X42279Y11382D01*
X42248Y11389D01*
X42220Y11396D01*
X42200Y11399D01*
D02*
G37*
G36*
X19072D02*
X19055D01*
X19013Y11396D01*
X18978Y11389D01*
X18944Y11378D01*
X18916Y11365D01*
X18891Y11351D01*
X18871Y11340D01*
X18860Y11333D01*
X18857Y11330D01*
X18826Y11299D01*
X18798Y11257D01*
X18774Y11212D01*
X18753Y11163D01*
X18735Y11122D01*
X18725Y11087D01*
X18722Y11073D01*
X18718Y11063D01*
X18714Y11056D01*
Y11052D01*
X18704Y11007D01*
X18697Y10959D01*
X18690Y10903D01*
X18683Y10841D01*
X18673Y10712D01*
X18666Y10584D01*
X18663Y10521D01*
Y10466D01*
Y10414D01*
X18659Y10365D01*
Y10327D01*
Y10299D01*
Y10282D01*
Y10275D01*
Y10175D01*
X18663Y10081D01*
X18666Y9990D01*
X18669Y9914D01*
X18673Y9841D01*
X18680Y9775D01*
X18683Y9716D01*
X18690Y9664D01*
X18697Y9619D01*
X18701Y9578D01*
X18708Y9546D01*
X18711Y9519D01*
X18714Y9498D01*
X18718Y9484D01*
X18722Y9477D01*
Y9473D01*
X18742Y9411D01*
X18763Y9356D01*
X18787Y9314D01*
X18808Y9279D01*
X18826Y9251D01*
X18843Y9234D01*
X18853Y9224D01*
X18857Y9220D01*
X18891Y9196D01*
X18923Y9179D01*
X18958Y9165D01*
X18989Y9158D01*
X19016Y9151D01*
X19037Y9147D01*
X19055D01*
X19096Y9151D01*
X19131Y9158D01*
X19166Y9172D01*
X19197Y9182D01*
X19218Y9196D01*
X19239Y9210D01*
X19249Y9217D01*
X19252Y9220D01*
X19284Y9251D01*
X19311Y9293D01*
X19336Y9338D01*
X19356Y9387D01*
X19374Y9432D01*
X19384Y9467D01*
X19388Y9481D01*
X19391Y9491D01*
X19395Y9498D01*
Y9501D01*
X19405Y9546D01*
X19415Y9595D01*
X19422Y9651D01*
X19429Y9713D01*
X19440Y9838D01*
X19447Y9966D01*
X19450Y10029D01*
Y10084D01*
X19454Y10140D01*
Y10185D01*
Y10223D01*
Y10251D01*
Y10268D01*
Y10275D01*
Y10376D01*
X19450Y10473D01*
X19447Y10560D01*
X19443Y10639D01*
X19440Y10712D01*
X19433Y10778D01*
X19426Y10837D01*
X19422Y10889D01*
X19415Y10934D01*
X19409Y10972D01*
X19402Y11004D01*
X19398Y11032D01*
X19395Y11052D01*
X19391Y11066D01*
X19388Y11073D01*
Y11077D01*
X19367Y11139D01*
X19346Y11195D01*
X19325Y11236D01*
X19301Y11271D01*
X19284Y11299D01*
X19266Y11316D01*
X19256Y11327D01*
X19252Y11330D01*
X19218Y11354D01*
X19186Y11372D01*
X19152Y11382D01*
X19120Y11389D01*
X19093Y11396D01*
X19072Y11399D01*
D02*
G37*
%LPD*%
D19*
X129921Y94488D02*
D03*
X7874Y94488D02*
D03*
Y7874D02*
D03*
X129921Y7874D02*
D03*
D23*
X125856Y44755D02*
D03*
X106201Y43799D02*
D03*
X101390Y66929D02*
D03*
X111122Y58366D02*
D03*
X106295Y61417D02*
D03*
X108858Y66831D02*
D03*
X111644Y75984D02*
D03*
X107551Y69527D02*
D03*
X95656Y69512D02*
D03*
X70472Y82087D02*
D03*
X80216Y90748D02*
D03*
X75984Y90945D02*
D03*
X55905Y84252D02*
D03*
X66000Y79000D02*
D03*
X75590Y74016D02*
D03*
X81791Y57480D02*
D03*
X75492Y55512D02*
D03*
X75590Y52067D02*
D03*
X112205Y88075D02*
D03*
X112091Y84925D02*
D03*
X93811Y84500D02*
D03*
X93701Y90220D02*
D03*
X83961Y94167D02*
D03*
X75812Y81999D02*
D03*
X78897Y70775D02*
D03*
X65030Y70866D02*
D03*
X62382D02*
D03*
X57480Y69291D02*
D03*
X64494Y92342D02*
D03*
X56750Y87732D02*
D03*
X43500Y84274D02*
D03*
X48650Y87732D02*
D03*
X46457Y80709D02*
D03*
X42476Y76566D02*
D03*
X22047Y76559D02*
D03*
X14124Y56742D02*
D03*
X11762D02*
D03*
X9400D02*
D03*
X7037D02*
D03*
X131102Y46457D02*
D03*
Y55905D02*
D03*
Y53543D02*
D03*
Y51181D02*
D03*
Y48819D02*
D03*
X107463Y48014D02*
D03*
X111346Y47481D02*
D03*
X112598Y36614D02*
D03*
X101406Y41732D02*
D03*
X36614Y41339D02*
D03*
X46850Y35827D02*
D03*
X50000Y42732D02*
D03*
X22441Y24016D02*
D03*
X45669Y12598D02*
D03*
X58268Y16142D02*
D03*
X60584Y15289D02*
D03*
X84252Y12598D02*
D03*
X112205D02*
D03*
X60500Y53000D02*
D03*
X22500Y32000D02*
D03*
X64500Y51000D02*
D03*
X22500Y28000D02*
D03*
X73000Y82000D02*
D03*
X86500D02*
D03*
X59033Y36118D02*
D03*
X91500Y38000D02*
D03*
X100996Y48004D02*
D03*
X96665D02*
D03*
X92335D02*
D03*
X88004D02*
D03*
X100996Y52335D02*
D03*
X96665D02*
D03*
X92335D02*
D03*
X88004D02*
D03*
X100996Y56665D02*
D03*
X96665D02*
D03*
X92335D02*
D03*
X88004D02*
D03*
X100996Y60996D02*
D03*
X96665D02*
D03*
X92335D02*
D03*
X88004D02*
D03*
D71*
X80610Y58661D02*
X81791Y57480D01*
X80610Y66240D02*
X88583Y74213D01*
X80610Y58661D02*
Y66240D01*
X88583Y74213D02*
Y82382D01*
X80216Y90748D02*
X80269D01*
X88279Y82737D01*
Y82685D02*
X88583Y82382D01*
X88279Y82685D02*
Y82737D01*
D73*
X73000Y79000D02*
X83500D01*
X86500Y82000D01*
X66000Y79000D02*
X73000D01*
X30500Y32000D02*
X51500Y53000D01*
X29500Y28000D02*
X52500Y51000D01*
X22500Y32000D02*
X30500D01*
X51500Y53000D02*
X60500D01*
X22500Y28000D02*
X29500D01*
X52500Y51000D02*
X64500D01*
X73000Y79000D02*
Y82000D01*
X59033Y36118D02*
X60651Y34500D01*
X88000D02*
X91500Y38000D01*
X60651Y34500D02*
X88000D01*
D77*
X125886Y68602D02*
D03*
D78*
X11024Y51181D02*
D03*
X126772D02*
D03*
M02*
