G04*
G04 #@! TF.GenerationSoftware,Altium Limited,Altium Designer,24.5.2 (23)*
G04*
G04 Layer_Physical_Order=2*
G04 Layer_Color=36540*
%FSLAX25Y25*%
%MOIN*%
G70*
G04*
G04 #@! TF.SameCoordinates,DA11F9B2-49B4-46D7-84E3-7535E75C2908*
G04*
G04*
G04 #@! TF.FilePolarity,Positive*
G04*
G01*
G75*
%ADD19C,0.11811*%
%ADD23C,0.01968*%
%ADD77C,0.05512*%
G36*
X130618Y101559D02*
X131984Y101288D01*
X133271Y100755D01*
X134429Y99981D01*
X135414Y98996D01*
X136188Y97838D01*
X136721Y96551D01*
X136993Y95185D01*
X136993Y94488D01*
D01*
Y94488D01*
Y87992D01*
X115551D01*
Y62992D01*
X136993D01*
X136993Y7874D01*
X136993Y7177D01*
X136721Y5811D01*
X136188Y4524D01*
X135414Y3366D01*
X134429Y2381D01*
X133271Y1608D01*
X131984Y1075D01*
X130618Y803D01*
X129921Y803D01*
D01*
X129921D01*
X7177D01*
X5811Y1075D01*
X4524Y1608D01*
X3366Y2381D01*
X2381Y3366D01*
X1608Y4524D01*
X1075Y5811D01*
X803Y7177D01*
Y7874D01*
X803Y94488D01*
Y95185D01*
X1075Y96551D01*
X1608Y97838D01*
X2381Y98996D01*
X3366Y99981D01*
X4525Y100755D01*
X5811Y101288D01*
X7177Y101559D01*
X7874Y101559D01*
D01*
X7874D01*
X129921Y101559D01*
X130618Y101559D01*
D02*
G37*
%LPC*%
G36*
X84257Y95651D02*
X83666D01*
X83121Y95425D01*
X82703Y95007D01*
X82477Y94462D01*
Y93871D01*
X82703Y93326D01*
X83121Y92908D01*
X83666Y92682D01*
X84257D01*
X84802Y92908D01*
X85220Y93326D01*
X85445Y93871D01*
Y94462D01*
X85220Y95007D01*
X84802Y95425D01*
X84257Y95651D01*
D02*
G37*
G36*
X64789Y93827D02*
X64199D01*
X63653Y93601D01*
X63236Y93183D01*
X63010Y92638D01*
Y92047D01*
X63236Y91502D01*
X63653Y91084D01*
X64199Y90858D01*
X64789D01*
X65335Y91084D01*
X65753Y91502D01*
X65978Y92047D01*
Y92638D01*
X65753Y93183D01*
X65335Y93601D01*
X64789Y93827D01*
D02*
G37*
G36*
X76279Y92429D02*
X75689D01*
X75143Y92203D01*
X74726Y91786D01*
X74500Y91240D01*
Y90650D01*
X74726Y90104D01*
X75143Y89687D01*
X75689Y89461D01*
X76279D01*
X76825Y89687D01*
X77242Y90104D01*
X77469Y90650D01*
Y91240D01*
X77242Y91786D01*
X76825Y92203D01*
X76279Y92429D01*
D02*
G37*
G36*
X80512Y92232D02*
X79921D01*
X79376Y92006D01*
X78958Y91589D01*
X78732Y91043D01*
Y90453D01*
X78958Y89907D01*
X79376Y89490D01*
X79921Y89264D01*
X80512D01*
X81057Y89490D01*
X81475Y89907D01*
X81701Y90453D01*
Y91043D01*
X81475Y91589D01*
X81057Y92006D01*
X80512Y92232D01*
D02*
G37*
G36*
X93996Y91705D02*
X93406D01*
X92860Y91479D01*
X92443Y91061D01*
X92216Y90516D01*
Y89925D01*
X92443Y89380D01*
X92860Y88962D01*
X93406Y88736D01*
X93996D01*
X94542Y88962D01*
X94959Y89380D01*
X95185Y89925D01*
Y90516D01*
X94959Y91061D01*
X94542Y91479D01*
X93996Y91705D01*
D02*
G37*
G36*
X57045Y89217D02*
X56455D01*
X55909Y88991D01*
X55492Y88573D01*
X55266Y88028D01*
Y87437D01*
X55492Y86892D01*
X55909Y86474D01*
X56455Y86248D01*
X57045D01*
X57591Y86474D01*
X58008Y86892D01*
X58234Y87437D01*
Y88028D01*
X58008Y88573D01*
X57591Y88991D01*
X57045Y89217D01*
D02*
G37*
G36*
X48945D02*
X48354D01*
X47809Y88991D01*
X47391Y88573D01*
X47165Y88028D01*
Y87437D01*
X47391Y86892D01*
X47809Y86474D01*
X48354Y86248D01*
X48945D01*
X49490Y86474D01*
X49908Y86892D01*
X50134Y87437D01*
Y88028D01*
X49908Y88573D01*
X49490Y88991D01*
X48945Y89217D01*
D02*
G37*
G36*
X112386Y86409D02*
X111795D01*
X111250Y86184D01*
X110832Y85766D01*
X110606Y85220D01*
Y84630D01*
X110832Y84084D01*
X111250Y83667D01*
X111795Y83441D01*
X112386D01*
X112931Y83667D01*
X113349Y84084D01*
X113575Y84630D01*
Y85220D01*
X113349Y85766D01*
X112931Y86184D01*
X112386Y86409D01*
D02*
G37*
G36*
X86795Y83484D02*
X86205D01*
X85659Y83258D01*
X85242Y82841D01*
X85016Y82295D01*
Y81705D01*
X85242Y81159D01*
X85659Y80742D01*
X86205Y80516D01*
X86795D01*
X87341Y80742D01*
X87758Y81159D01*
X87984Y81705D01*
Y82295D01*
X87758Y82841D01*
X87341Y83258D01*
X86795Y83484D01*
D02*
G37*
G36*
X73295D02*
X72705D01*
X72159Y83258D01*
X71742Y82841D01*
X71516Y82295D01*
Y81705D01*
X71742Y81159D01*
X72159Y80742D01*
X72705Y80516D01*
X73295D01*
X73841Y80742D01*
X74258Y81159D01*
X74484Y81705D01*
Y82295D01*
X74258Y82841D01*
X73841Y83258D01*
X73295Y83484D01*
D02*
G37*
G36*
X46752Y82193D02*
X46161D01*
X45616Y81967D01*
X45198Y81549D01*
X44972Y81004D01*
Y80413D01*
X45198Y79868D01*
X45616Y79450D01*
X46161Y79224D01*
X46752D01*
X47297Y79450D01*
X47715Y79868D01*
X47941Y80413D01*
Y81004D01*
X47715Y81549D01*
X47297Y81967D01*
X46752Y82193D01*
D02*
G37*
G36*
X66295Y80484D02*
X65705D01*
X65159Y80258D01*
X64742Y79841D01*
X64516Y79295D01*
Y78705D01*
X64742Y78159D01*
X65159Y77742D01*
X65705Y77516D01*
X66295D01*
X66841Y77742D01*
X67258Y78159D01*
X67484Y78705D01*
Y79295D01*
X67258Y79841D01*
X66841Y80258D01*
X66295Y80484D01*
D02*
G37*
G36*
X42771Y78051D02*
X42181D01*
X41635Y77825D01*
X41218Y77407D01*
X40992Y76862D01*
Y76271D01*
X41218Y75726D01*
X41635Y75308D01*
X42181Y75082D01*
X42771D01*
X43317Y75308D01*
X43734Y75726D01*
X43960Y76271D01*
Y76862D01*
X43734Y77407D01*
X43317Y77825D01*
X42771Y78051D01*
D02*
G37*
G36*
X22343Y78043D02*
X21752D01*
X21206Y77817D01*
X20789Y77400D01*
X20563Y76854D01*
Y76264D01*
X20789Y75718D01*
X21206Y75301D01*
X21752Y75075D01*
X22343D01*
X22888Y75301D01*
X23305Y75718D01*
X23531Y76264D01*
Y76854D01*
X23305Y77400D01*
X22888Y77817D01*
X22343Y78043D01*
D02*
G37*
G36*
X75886Y75500D02*
X75295D01*
X74750Y75274D01*
X74332Y74857D01*
X74106Y74311D01*
Y73721D01*
X74332Y73175D01*
X74750Y72758D01*
X75295Y72531D01*
X75886D01*
X76431Y72758D01*
X76849Y73175D01*
X77075Y73721D01*
Y74311D01*
X76849Y74857D01*
X76431Y75274D01*
X75886Y75500D01*
D02*
G37*
G36*
X62677Y72350D02*
X62087D01*
X61541Y72124D01*
X61124Y71707D01*
X60898Y71161D01*
Y70571D01*
X61124Y70025D01*
X61541Y69608D01*
X62087Y69382D01*
X62677D01*
X63223Y69608D01*
X63640Y70025D01*
X63866Y70571D01*
Y71161D01*
X63640Y71707D01*
X63223Y72124D01*
X62677Y72350D01*
D02*
G37*
G36*
X57775Y70776D02*
X57185D01*
X56639Y70550D01*
X56222Y70132D01*
X55996Y69587D01*
Y68996D01*
X56222Y68451D01*
X56639Y68033D01*
X57185Y67807D01*
X57775D01*
X58321Y68033D01*
X58739Y68451D01*
X58965Y68996D01*
Y69587D01*
X58739Y70132D01*
X58321Y70550D01*
X57775Y70776D01*
D02*
G37*
G36*
X101685Y68413D02*
X101094D01*
X100549Y68187D01*
X100131Y67770D01*
X99906Y67224D01*
Y66634D01*
X100131Y66088D01*
X100549Y65671D01*
X101094Y65445D01*
X101685D01*
X102231Y65671D01*
X102648Y66088D01*
X102874Y66634D01*
Y67224D01*
X102648Y67770D01*
X102231Y68187D01*
X101685Y68413D01*
D02*
G37*
G36*
X101291Y62480D02*
X100701D01*
X100155Y62254D01*
X99738Y61837D01*
X99512Y61291D01*
Y60701D01*
X99738Y60155D01*
X100155Y59738D01*
X100701Y59512D01*
X101291D01*
X101837Y59738D01*
X102254Y60155D01*
X102480Y60701D01*
Y61291D01*
X102254Y61837D01*
X101837Y62254D01*
X101291Y62480D01*
D02*
G37*
G36*
X96961D02*
X96370D01*
X95825Y62254D01*
X95407Y61837D01*
X95181Y61291D01*
Y60701D01*
X95407Y60155D01*
X95825Y59738D01*
X96370Y59512D01*
X96961D01*
X97506Y59738D01*
X97924Y60155D01*
X98150Y60701D01*
Y61291D01*
X97924Y61837D01*
X97506Y62254D01*
X96961Y62480D01*
D02*
G37*
G36*
X92630D02*
X92039D01*
X91494Y62254D01*
X91076Y61837D01*
X90850Y61291D01*
Y60701D01*
X91076Y60155D01*
X91494Y59738D01*
X92039Y59512D01*
X92630D01*
X93175Y59738D01*
X93593Y60155D01*
X93819Y60701D01*
Y61291D01*
X93593Y61837D01*
X93175Y62254D01*
X92630Y62480D01*
D02*
G37*
G36*
X88299D02*
X87709D01*
X87163Y62254D01*
X86746Y61837D01*
X86520Y61291D01*
Y60701D01*
X86746Y60155D01*
X87163Y59738D01*
X87709Y59512D01*
X88299D01*
X88845Y59738D01*
X89262Y60155D01*
X89488Y60701D01*
Y61291D01*
X89262Y61837D01*
X88845Y62254D01*
X88299Y62480D01*
D02*
G37*
G36*
X14419Y58226D02*
X13829D01*
X13283Y58000D01*
X12943Y57660D01*
X12603Y58000D01*
X12057Y58226D01*
X11467D01*
X10921Y58000D01*
X10581Y57660D01*
X10240Y58000D01*
X9695Y58226D01*
X9104D01*
X8559Y58000D01*
X8219Y57660D01*
X7878Y58000D01*
X7333Y58226D01*
X6742D01*
X6197Y58000D01*
X5779Y57583D01*
X5553Y57037D01*
Y56447D01*
X5779Y55901D01*
X6197Y55484D01*
X6742Y55258D01*
X7333D01*
X7878Y55484D01*
X8219Y55824D01*
X8559Y55484D01*
X9104Y55258D01*
X9695D01*
X10240Y55484D01*
X10581Y55824D01*
X10921Y55484D01*
X11467Y55258D01*
X12057D01*
X12603Y55484D01*
X12943Y55824D01*
X13283Y55484D01*
X13829Y55258D01*
X14419D01*
X14965Y55484D01*
X15382Y55901D01*
X15608Y56447D01*
Y57037D01*
X15382Y57583D01*
X14965Y58000D01*
X14419Y58226D01*
D02*
G37*
G36*
X82087Y58965D02*
X81496D01*
X80951Y58739D01*
X80533Y58321D01*
X80307Y57775D01*
Y57185D01*
X80533Y56639D01*
X80951Y56222D01*
X81496Y55996D01*
X82087D01*
X82632Y56222D01*
X83050Y56639D01*
X83276Y57185D01*
Y57775D01*
X83050Y58321D01*
X82632Y58739D01*
X82087Y58965D01*
D02*
G37*
G36*
X101291Y58150D02*
X100701D01*
X100155Y57924D01*
X99738Y57506D01*
X99512Y56961D01*
Y56370D01*
X99738Y55825D01*
X100155Y55407D01*
X100701Y55181D01*
X101291D01*
X101837Y55407D01*
X102254Y55825D01*
X102480Y56370D01*
Y56961D01*
X102254Y57506D01*
X101837Y57924D01*
X101291Y58150D01*
D02*
G37*
G36*
X96961D02*
X96370D01*
X95825Y57924D01*
X95407Y57506D01*
X95181Y56961D01*
Y56370D01*
X95407Y55825D01*
X95825Y55407D01*
X96370Y55181D01*
X96961D01*
X97506Y55407D01*
X97924Y55825D01*
X98150Y56370D01*
Y56961D01*
X97924Y57506D01*
X97506Y57924D01*
X96961Y58150D01*
D02*
G37*
G36*
X92630D02*
X92039D01*
X91494Y57924D01*
X91076Y57506D01*
X90850Y56961D01*
Y56370D01*
X91076Y55825D01*
X91494Y55407D01*
X92039Y55181D01*
X92630D01*
X93175Y55407D01*
X93593Y55825D01*
X93819Y56370D01*
Y56961D01*
X93593Y57506D01*
X93175Y57924D01*
X92630Y58150D01*
D02*
G37*
G36*
X88299D02*
X87709D01*
X87163Y57924D01*
X86746Y57506D01*
X86520Y56961D01*
Y56370D01*
X86746Y55825D01*
X87163Y55407D01*
X87709Y55181D01*
X88299D01*
X88845Y55407D01*
X89262Y55825D01*
X89488Y56370D01*
Y56961D01*
X89262Y57506D01*
X88845Y57924D01*
X88299Y58150D01*
D02*
G37*
G36*
X75787Y56996D02*
X75197D01*
X74651Y56770D01*
X74234Y56353D01*
X74008Y55807D01*
Y55217D01*
X74234Y54671D01*
X74651Y54254D01*
X75197Y54028D01*
X75787D01*
X76333Y54254D01*
X76750Y54671D01*
X76976Y55217D01*
Y55807D01*
X76750Y56353D01*
X76333Y56770D01*
X75787Y56996D01*
D02*
G37*
G36*
X60795Y54484D02*
X60205D01*
X59659Y54258D01*
X59242Y53841D01*
X59016Y53295D01*
Y52705D01*
X59242Y52159D01*
X59659Y51742D01*
X60205Y51516D01*
X60795D01*
X61341Y51742D01*
X61758Y52159D01*
X61984Y52705D01*
Y53295D01*
X61758Y53841D01*
X61341Y54258D01*
X60795Y54484D01*
D02*
G37*
G36*
X101291Y53819D02*
X100701D01*
X100155Y53593D01*
X99738Y53175D01*
X99512Y52630D01*
Y52039D01*
X99738Y51494D01*
X100155Y51076D01*
X100701Y50850D01*
X101291D01*
X101837Y51076D01*
X102254Y51494D01*
X102480Y52039D01*
Y52630D01*
X102254Y53175D01*
X101837Y53593D01*
X101291Y53819D01*
D02*
G37*
G36*
X96961D02*
X96370D01*
X95825Y53593D01*
X95407Y53175D01*
X95181Y52630D01*
Y52039D01*
X95407Y51494D01*
X95825Y51076D01*
X96370Y50850D01*
X96961D01*
X97506Y51076D01*
X97924Y51494D01*
X98150Y52039D01*
Y52630D01*
X97924Y53175D01*
X97506Y53593D01*
X96961Y53819D01*
D02*
G37*
G36*
X92630D02*
X92039D01*
X91494Y53593D01*
X91076Y53175D01*
X90850Y52630D01*
Y52039D01*
X91076Y51494D01*
X91494Y51076D01*
X92039Y50850D01*
X92630D01*
X93175Y51076D01*
X93593Y51494D01*
X93819Y52039D01*
Y52630D01*
X93593Y53175D01*
X93175Y53593D01*
X92630Y53819D01*
D02*
G37*
G36*
X88299D02*
X87709D01*
X87163Y53593D01*
X86746Y53175D01*
X86520Y52630D01*
Y52039D01*
X86746Y51494D01*
X87163Y51076D01*
X87709Y50850D01*
X88299D01*
X88845Y51076D01*
X89262Y51494D01*
X89488Y52039D01*
Y52630D01*
X89262Y53175D01*
X88845Y53593D01*
X88299Y53819D01*
D02*
G37*
G36*
X64795Y52484D02*
X64205D01*
X63659Y52258D01*
X63242Y51841D01*
X63016Y51295D01*
Y50705D01*
X63242Y50159D01*
X63659Y49742D01*
X64205Y49516D01*
X64795D01*
X65341Y49742D01*
X65758Y50159D01*
X65984Y50705D01*
Y51295D01*
X65758Y51841D01*
X65341Y52258D01*
X64795Y52484D01*
D02*
G37*
G36*
X101291Y49488D02*
X100701D01*
X100155Y49262D01*
X99738Y48845D01*
X99512Y48299D01*
Y47709D01*
X99738Y47163D01*
X100155Y46746D01*
X100701Y46520D01*
X101291D01*
X101837Y46746D01*
X102254Y47163D01*
X102480Y47709D01*
Y48299D01*
X102254Y48845D01*
X101837Y49262D01*
X101291Y49488D01*
D02*
G37*
G36*
X96961D02*
X96370D01*
X95825Y49262D01*
X95407Y48845D01*
X95181Y48299D01*
Y47709D01*
X95407Y47163D01*
X95825Y46746D01*
X96370Y46520D01*
X96961D01*
X97506Y46746D01*
X97924Y47163D01*
X98150Y47709D01*
Y48299D01*
X97924Y48845D01*
X97506Y49262D01*
X96961Y49488D01*
D02*
G37*
G36*
X92630D02*
X92039D01*
X91494Y49262D01*
X91076Y48845D01*
X90850Y48299D01*
Y47709D01*
X91076Y47163D01*
X91494Y46746D01*
X92039Y46520D01*
X92630D01*
X93175Y46746D01*
X93593Y47163D01*
X93819Y47709D01*
Y48299D01*
X93593Y48845D01*
X93175Y49262D01*
X92630Y49488D01*
D02*
G37*
G36*
X88299D02*
X87709D01*
X87163Y49262D01*
X86746Y48845D01*
X86520Y48299D01*
Y47709D01*
X86746Y47163D01*
X87163Y46746D01*
X87709Y46520D01*
X88299D01*
X88845Y46746D01*
X89262Y47163D01*
X89488Y47709D01*
Y48299D01*
X89262Y48845D01*
X88845Y49262D01*
X88299Y49488D01*
D02*
G37*
G36*
X106496Y45283D02*
X105905D01*
X105360Y45057D01*
X104943Y44640D01*
X104717Y44094D01*
Y43504D01*
X104943Y42958D01*
X105360Y42541D01*
X105905Y42315D01*
X106496D01*
X107042Y42541D01*
X107459Y42958D01*
X107685Y43504D01*
Y44094D01*
X107459Y44640D01*
X107042Y45057D01*
X106496Y45283D01*
D02*
G37*
G36*
X50295Y44216D02*
X49705D01*
X49159Y43991D01*
X48742Y43573D01*
X48516Y43027D01*
Y42437D01*
X48742Y41892D01*
X49159Y41474D01*
X49705Y41248D01*
X50295D01*
X50841Y41474D01*
X51258Y41892D01*
X51484Y42437D01*
Y43027D01*
X51258Y43573D01*
X50841Y43991D01*
X50295Y44216D01*
D02*
G37*
G36*
X91795Y39484D02*
X91205D01*
X90659Y39258D01*
X90242Y38841D01*
X90016Y38295D01*
Y37705D01*
X90242Y37159D01*
X90659Y36742D01*
X91205Y36516D01*
X91795D01*
X92341Y36742D01*
X92758Y37159D01*
X92984Y37705D01*
Y38295D01*
X92758Y38841D01*
X92341Y39258D01*
X91795Y39484D01*
D02*
G37*
G36*
X59328Y37602D02*
X58738D01*
X58192Y37376D01*
X57775Y36959D01*
X57549Y36413D01*
Y35823D01*
X57775Y35277D01*
X58192Y34860D01*
X58738Y34634D01*
X59328D01*
X59874Y34860D01*
X60291Y35277D01*
X60517Y35823D01*
Y36413D01*
X60291Y36959D01*
X59874Y37376D01*
X59328Y37602D01*
D02*
G37*
G36*
X22795Y33484D02*
X22205D01*
X21659Y33258D01*
X21242Y32841D01*
X21016Y32295D01*
Y31705D01*
X21242Y31159D01*
X21659Y30742D01*
X22205Y30516D01*
X22795D01*
X23341Y30742D01*
X23758Y31159D01*
X23984Y31705D01*
Y32295D01*
X23758Y32841D01*
X23341Y33258D01*
X22795Y33484D01*
D02*
G37*
G36*
Y29484D02*
X22205D01*
X21659Y29258D01*
X21242Y28841D01*
X21016Y28295D01*
Y27705D01*
X21242Y27159D01*
X21659Y26742D01*
X22205Y26516D01*
X22795D01*
X23341Y26742D01*
X23758Y27159D01*
X23984Y27705D01*
Y28295D01*
X23758Y28841D01*
X23341Y29258D01*
X22795Y29484D01*
D02*
G37*
G36*
X58563Y17626D02*
X57973D01*
X57427Y17400D01*
X57009Y16983D01*
X56783Y16437D01*
Y15846D01*
X57009Y15301D01*
X57427Y14883D01*
X57973Y14658D01*
X58563D01*
X59109Y14883D01*
X59526Y15301D01*
X59752Y15846D01*
Y16437D01*
X59526Y16983D01*
X59109Y17400D01*
X58563Y17626D01*
D02*
G37*
G36*
X45965Y14083D02*
X45374D01*
X44829Y13857D01*
X44411Y13439D01*
X44185Y12894D01*
Y12303D01*
X44411Y11758D01*
X44829Y11340D01*
X45374Y11114D01*
X45965D01*
X46510Y11340D01*
X46928Y11758D01*
X47153Y12303D01*
Y12894D01*
X46928Y13439D01*
X46510Y13857D01*
X45965Y14083D01*
D02*
G37*
%LPD*%
D19*
X129921Y94488D02*
D03*
X7874Y94488D02*
D03*
Y7874D02*
D03*
X129921Y7874D02*
D03*
D23*
X125856Y44755D02*
D03*
X106201Y43799D02*
D03*
X101390Y66929D02*
D03*
X111122Y58366D02*
D03*
X106295Y61417D02*
D03*
X108858Y66831D02*
D03*
X111644Y75984D02*
D03*
X107551Y69527D02*
D03*
X95656Y69512D02*
D03*
X70472Y82087D02*
D03*
X80216Y90748D02*
D03*
X75984Y90945D02*
D03*
X55905Y84252D02*
D03*
X66000Y79000D02*
D03*
X75590Y74016D02*
D03*
X81791Y57480D02*
D03*
X75492Y55512D02*
D03*
X75590Y52067D02*
D03*
X112205Y88075D02*
D03*
X112091Y84925D02*
D03*
X93811Y84500D02*
D03*
X93701Y90220D02*
D03*
X83961Y94167D02*
D03*
X75812Y81999D02*
D03*
X78897Y70775D02*
D03*
X65030Y70866D02*
D03*
X62382D02*
D03*
X57480Y69291D02*
D03*
X64494Y92342D02*
D03*
X56750Y87732D02*
D03*
X43500Y84274D02*
D03*
X48650Y87732D02*
D03*
X46457Y80709D02*
D03*
X42476Y76566D02*
D03*
X22047Y76559D02*
D03*
X14124Y56742D02*
D03*
X11762D02*
D03*
X9400D02*
D03*
X7037D02*
D03*
X131102Y46457D02*
D03*
Y55905D02*
D03*
Y53543D02*
D03*
Y51181D02*
D03*
Y48819D02*
D03*
X107463Y48014D02*
D03*
X111346Y47481D02*
D03*
X112598Y36614D02*
D03*
X101406Y41732D02*
D03*
X36614Y41339D02*
D03*
X46850Y35827D02*
D03*
X50000Y42732D02*
D03*
X22441Y24016D02*
D03*
X45669Y12598D02*
D03*
X58268Y16142D02*
D03*
X60584Y15289D02*
D03*
X84252Y12598D02*
D03*
X112205D02*
D03*
X60500Y53000D02*
D03*
X22500Y32000D02*
D03*
X64500Y51000D02*
D03*
X22500Y28000D02*
D03*
X73000Y82000D02*
D03*
X86500D02*
D03*
X59033Y36118D02*
D03*
X91500Y38000D02*
D03*
X100996Y48004D02*
D03*
X96665D02*
D03*
X92335D02*
D03*
X88004D02*
D03*
X100996Y52335D02*
D03*
X96665D02*
D03*
X92335D02*
D03*
X88004D02*
D03*
X100996Y56665D02*
D03*
X96665D02*
D03*
X92335D02*
D03*
X88004D02*
D03*
X100996Y60996D02*
D03*
X96665D02*
D03*
X92335D02*
D03*
X88004D02*
D03*
D77*
X125886Y68602D02*
D03*
M02*
