G04*
G04 #@! TF.GenerationSoftware,Altium Limited,Altium Designer,24.5.2 (23)*
G04*
G04 Layer_Color=16711935*
%FSLAX25Y25*%
%MOIN*%
G70*
G04*
G04 #@! TF.SameCoordinates,DA11F9B2-49B4-46D7-84E3-7535E75C2908*
G04*
G04*
G04 #@! TF.FilePolarity,Positive*
G04*
G01*
G75*
%ADD16C,0.00787*%
%ADD17C,0.00394*%
D16*
X25591Y19685D02*
Y82677D01*
X112205Y19685D02*
Y82677D01*
X25591Y19685D02*
X112205D01*
X25591Y82677D02*
X112205D01*
X12795Y37402D02*
Y64961D01*
X125000Y37402D02*
Y64961D01*
X12795Y37402D02*
X125000D01*
X12795Y64961D02*
X125000D01*
D17*
X90169Y60799D02*
X89906Y61783D01*
X89185Y62504D01*
X88201Y62768D01*
X87217Y62504D01*
X86496Y61783D01*
X86232Y60799D01*
X86496Y59815D01*
X87217Y59094D01*
X88201Y58831D01*
X89185Y59094D01*
X89906Y59815D01*
X90169Y60799D01*
X9575Y76953D02*
X9311Y77937D01*
X8591Y78658D01*
X7606Y78921D01*
X6622Y78658D01*
X5901Y77937D01*
X5638Y76953D01*
X5901Y75968D01*
X6622Y75248D01*
X7606Y74984D01*
X8591Y75248D01*
X9311Y75968D01*
X9575Y76953D01*
X56410Y26185D02*
X56146Y27169D01*
X55425Y27890D01*
X54441Y28153D01*
X53457Y27890D01*
X52736Y27169D01*
X52473Y26185D01*
X52736Y25201D01*
X53457Y24480D01*
X54441Y24216D01*
X55425Y24480D01*
X56146Y25201D01*
X56410Y26185D01*
X70287Y85000D02*
X69743Y85749D01*
X68863Y85463D01*
Y84537D01*
X69743Y84251D01*
X70287Y85000D01*
X87994Y11417D02*
Y13583D01*
X92128Y11417D02*
Y13583D01*
X87994D02*
X92128D01*
X87994Y11417D02*
X92128D01*
X95933Y11417D02*
X100067D01*
X95933Y13583D02*
X100067D01*
Y11417D02*
Y13583D01*
X95933Y11417D02*
Y13583D01*
X108092Y11417D02*
Y13583D01*
X103959Y11417D02*
Y13583D01*
Y11417D02*
X108092D01*
X103959Y13583D02*
X108092D01*
X105189Y68417D02*
Y70583D01*
X101055Y68417D02*
Y70583D01*
Y68417D02*
X105189D01*
X101055Y70583D02*
X105189D01*
X100169Y73146D02*
Y78854D01*
X108831Y73146D02*
Y78854D01*
X100169D02*
X108831D01*
X100169Y73146D02*
X108831D01*
X77461Y51673D02*
X79626D01*
X77461Y55807D02*
X79626D01*
X77461Y51673D02*
Y55807D01*
X79626Y51673D02*
Y55807D01*
X126264Y50721D02*
Y53280D01*
X121736Y50721D02*
Y53280D01*
Y50721D02*
X126264D01*
X121736Y53280D02*
X126264D01*
Y55221D02*
Y57780D01*
X121736Y55221D02*
Y57780D01*
Y55221D02*
X126264D01*
X121736Y57780D02*
X126264D01*
X122071Y59917D02*
Y62083D01*
X126205Y59917D02*
Y62083D01*
X122071D02*
X126205D01*
X122071Y59917D02*
X126205D01*
X113933Y46417D02*
Y48583D01*
X118067Y46417D02*
Y48583D01*
X113933D02*
X118067D01*
X113933Y46417D02*
X118067D01*
X113933Y59917D02*
Y62083D01*
X118067Y59917D02*
Y62083D01*
X113933D02*
X118067D01*
X113933Y59917D02*
X118067D01*
X116220Y52036D02*
X118780D01*
X116220Y56564D02*
X118780D01*
X116220Y52036D02*
Y56564D01*
X118780Y52036D02*
Y56564D01*
X122071Y46417D02*
Y48583D01*
X126205Y46417D02*
Y48583D01*
X122071D02*
X126205D01*
X122071Y46417D02*
X126205D01*
X111417Y39433D02*
X113583D01*
X111417Y43567D02*
X113583D01*
X111417Y39433D02*
Y43567D01*
X113583Y39433D02*
Y43567D01*
X84658Y44657D02*
X104342D01*
X84658Y64342D02*
X104342D01*
Y44657D02*
Y64342D01*
X84658Y44657D02*
Y64342D01*
X50386Y86453D02*
Y89012D01*
X54913Y86453D02*
Y89012D01*
X50386D02*
X54913D01*
X50386Y86453D02*
X54913D01*
X4063Y45063D02*
X39496D01*
X4063Y80496D02*
X39496D01*
Y45063D02*
Y80496D01*
X4063Y45063D02*
Y80496D01*
X71752Y16158D02*
Y35842D01*
X124902Y16158D02*
Y35842D01*
X71752D02*
X124902D01*
X71752Y16158D02*
X124902D01*
X50898Y22642D02*
X63102D01*
X50898Y40358D02*
X63102D01*
X50898Y22642D02*
Y40358D01*
X63102Y22642D02*
Y40358D01*
X45917Y51567D02*
X48083D01*
X45917Y47433D02*
X48083D01*
Y51567D01*
X45917Y47433D02*
Y51567D01*
X31744Y40984D02*
X37256D01*
X31744Y29016D02*
X37256D01*
X31744D02*
Y40984D01*
X37256Y29016D02*
Y40984D01*
X52476Y11417D02*
Y13583D01*
X48342Y11417D02*
Y13583D01*
Y11417D02*
X52476D01*
X48342Y13583D02*
X52476D01*
X60650Y11417D02*
Y13583D01*
X56516Y11417D02*
Y13583D01*
Y11417D02*
X60650D01*
X56516Y13583D02*
X60650D01*
X56417Y62933D02*
X58583D01*
X56417Y67067D02*
X58583D01*
X56417Y62933D02*
Y67067D01*
X58583Y62933D02*
Y67067D01*
X60315Y59469D02*
Y66161D01*
X72126Y59469D02*
Y66161D01*
X60315Y59469D02*
X72126D01*
X60315Y66161D02*
X72126D01*
X61319Y74311D02*
X65453D01*
X61319Y72146D02*
X65453D01*
X61319D02*
Y74311D01*
X65453Y72146D02*
Y74311D01*
X69433Y72917D02*
Y75083D01*
X73567Y72917D02*
Y75083D01*
X69433D02*
X73567D01*
X69433Y72917D02*
X73567D01*
X44827Y77902D02*
X48173D01*
X44827Y72980D02*
X48173D01*
Y77902D01*
X44827Y72980D02*
Y77902D01*
X47583Y83933D02*
Y88067D01*
X45417Y83933D02*
Y88067D01*
X47583D01*
X45417Y83933D02*
X47583D01*
X60083D02*
Y88067D01*
X57917Y83933D02*
Y88067D01*
X60083D01*
X57917Y83933D02*
X60083D01*
X71634Y82866D02*
Y91134D01*
X63366Y82866D02*
Y91134D01*
Y82866D02*
X71634D01*
X63366Y91134D02*
X71634D01*
X86122Y95177D02*
X90256D01*
X86122Y93012D02*
X90256D01*
X86122D02*
Y95177D01*
X90256Y93012D02*
Y95177D01*
X97083Y86433D02*
Y90567D01*
X94917Y86433D02*
Y90567D01*
X97083D01*
X94917Y86433D02*
X97083D01*
X103850Y83350D02*
X110150D01*
X103850Y89650D02*
X110150D01*
Y83350D02*
Y89650D01*
X103850Y83350D02*
Y89650D01*
X112949Y84591D02*
Y88724D01*
X115114Y84591D02*
Y88724D01*
X112949Y84591D02*
X115114D01*
X112949Y88724D02*
X115114D01*
X82799Y83417D02*
Y91291D01*
X92642Y83417D02*
Y91291D01*
X82799Y83417D02*
X92642D01*
X82799Y91291D02*
X92642D01*
X77819Y73335D02*
X80181D01*
X77819Y77665D02*
X80181D01*
X77819Y73335D02*
Y77665D01*
X80181Y73335D02*
Y77665D01*
X82417Y77567D02*
X84583D01*
X82417Y73433D02*
X84583D01*
Y77567D01*
X82417Y73433D02*
Y77567D01*
X107780Y64740D02*
X109945D01*
X107780Y60606D02*
X109945D01*
Y64740D01*
X107780Y60606D02*
Y64740D01*
X48083Y38933D02*
Y43067D01*
X45917Y38933D02*
Y43067D01*
X48083D01*
X45917Y38933D02*
X48083D01*
X74757Y84185D02*
X76922D01*
X74757Y88319D02*
X76922D01*
X74757Y84185D02*
Y88319D01*
X76922Y84185D02*
Y88319D01*
X103933Y38917D02*
X108067D01*
X103933Y41083D02*
X108067D01*
Y38917D02*
Y41083D01*
X103933Y38917D02*
Y41083D01*
X89244Y70583D02*
X93378D01*
X89244Y68417D02*
X93378D01*
X89244D02*
Y70583D01*
X93378Y68417D02*
Y70583D01*
M02*
