G04*
G04 #@! TF.GenerationSoftware,Altium Limited,Altium Designer,24.5.2 (23)*
G04*
G04 Layer_Color=16711935*
%FSLAX25Y25*%
%MOIN*%
G70*
G04*
G04 #@! TF.SameCoordinates,DA11F9B2-49B4-46D7-84E3-7535E75C2908*
G04*
G04*
G04 #@! TF.FilePolarity,Positive*
G04*
G01*
G75*
%ADD16C,0.00787*%
D16*
X-0Y7874D02*
X67Y6846D01*
X268Y5836D01*
X599Y4861D01*
X1055Y3937D01*
X1627Y3081D01*
X2306Y2306D01*
X3081Y1627D01*
X3937Y1055D01*
X4861Y599D01*
X5836Y268D01*
X6846Y67D01*
X7874Y0D01*
X129921Y-0D02*
X130949Y67D01*
X131959Y268D01*
X132934Y599D01*
X133858Y1055D01*
X134715Y1627D01*
X135489Y2306D01*
X136168Y3081D01*
X136740Y3937D01*
X137196Y4861D01*
X137527Y5836D01*
X137728Y6846D01*
X137795Y7874D01*
X137795Y94488D02*
X137728Y95516D01*
X137527Y96526D01*
X137196Y97501D01*
X136740Y98425D01*
X136168Y99282D01*
X135489Y100056D01*
X134715Y100735D01*
X133858Y101307D01*
X132934Y101763D01*
X131959Y102094D01*
X130949Y102295D01*
X129921Y102362D01*
X7874Y102362D02*
X6846Y102295D01*
X5836Y102094D01*
X4861Y101763D01*
X3937Y101307D01*
X3081Y100735D01*
X2306Y100056D01*
X1627Y99282D01*
X1055Y98425D01*
X599Y97501D01*
X268Y96526D01*
X67Y95516D01*
X0Y94488D01*
Y7874D02*
Y94488D01*
X7874Y102362D02*
X129921D01*
X137795Y7874D02*
Y94488D01*
X7874Y0D02*
X129921D01*
M02*
