G04*
G04 #@! TF.GenerationSoftware,Altium Limited,Altium Designer,24.5.2 (23)*
G04*
G04 Layer_Physical_Order=1*
G04 Layer_Color=255*
%FSLAX25Y25*%
%MOIN*%
G70*
G04*
G04 #@! TF.SameCoordinates,DA11F9B2-49B4-46D7-84E3-7535E75C2908*
G04*
G04*
G04 #@! TF.FilePolarity,Positive*
G04*
G01*
G75*
%ADD10C,0.00984*%
%ADD16C,0.00787*%
%ADD18C,0.03937*%
%ADD19C,0.11811*%
%ADD20R,0.02598X0.02441*%
%ADD21R,0.02362X0.02165*%
%ADD22R,0.04921X0.05709*%
%ADD23C,0.01968*%
%ADD24R,0.02441X0.02598*%
%ADD25R,0.02638X0.02677*%
%ADD26R,0.02677X0.02638*%
%ADD27R,0.15748X0.15748*%
%ADD28R,0.00984X0.02559*%
%ADD29R,0.02559X0.00984*%
%ADD30R,0.09843X0.09843*%
%ADD31R,0.06102X0.02362*%
%ADD32R,0.07087X0.04724*%
%ADD33R,0.23622X0.07874*%
%ADD34R,0.01772X0.05512*%
%ADD35R,0.02165X0.02362*%
%ADD36R,0.03937X0.02362*%
%ADD37O,0.01968X0.03937*%
%ADD38R,0.01575X0.03150*%
%ADD39R,0.01181X0.01181*%
%ADD40R,0.01181X0.01181*%
%ADD41R,0.02362X0.01575*%
%ADD42R,0.01378X0.01378*%
%ADD43R,0.02559X0.02756*%
%ADD71C,0.00591*%
%ADD72C,0.01968*%
%ADD73C,0.01000*%
%ADD74C,0.01375*%
%ADD75C,0.01181*%
%ADD76C,0.00600*%
%ADD77C,0.05512*%
D10*
X101100Y88075D02*
X103850D01*
X125856Y44755D02*
X125870Y44769D01*
Y47500D01*
X111743Y58555D02*
X114189Y61000D01*
X111310Y58555D02*
X111743D01*
X111122Y58366D02*
X111310Y58555D01*
X114189Y61000D02*
X114268D01*
X104342Y57453D02*
X107536D01*
X108449Y58366D01*
X111122D01*
X107382Y59421D02*
X108862Y60902D01*
X104342Y59421D02*
X107382D01*
X106268Y61390D02*
X106295Y61417D01*
X104342Y61390D02*
X106268D01*
X108862Y60902D02*
Y61000D01*
X108860Y64348D02*
Y66829D01*
Y64348D02*
X108862Y64346D01*
X108858Y66831D02*
X108860Y66829D01*
X107764Y75984D02*
X111644D01*
X107748Y76000D02*
X107764Y75984D01*
X107524Y69500D02*
X107551Y69527D01*
X104854Y69500D02*
X107524D01*
X95644D02*
X95656Y69512D01*
X93043Y69500D02*
X95644D01*
X70463Y82096D02*
Y84037D01*
Y82096D02*
X70472Y82087D01*
X70453Y84047D02*
X70463Y84037D01*
X75590Y52067D02*
X75620Y52037D01*
X78465D02*
X78646Y52219D01*
X75620Y52037D02*
X78465D01*
X81961Y53516D02*
X84658D01*
X78646Y52219D02*
X80664D01*
X81961Y53516D01*
X105632Y49579D02*
X107196Y48014D01*
X104342Y49579D02*
X105632D01*
X107196Y48014D02*
X107463D01*
X111346Y47481D02*
X111365Y47500D01*
X114268D01*
X112500Y39768D02*
X112549Y39718D01*
Y36663D02*
Y39718D01*
Y36663D02*
X112598Y36614D01*
X101390Y41732D02*
Y44657D01*
Y41717D02*
X101406Y41732D01*
X101390Y40736D02*
Y41717D01*
X101969Y40157D02*
X104110D01*
X104268Y40000D01*
X101390Y40736D02*
X101969Y40157D01*
D16*
X112205Y88075D02*
X113716D01*
X111811D02*
X112205D01*
X113716D02*
X114032Y88390D01*
X93811Y84500D02*
X96000Y86689D01*
Y86768D01*
X91559Y84500D02*
X93811D01*
X89000Y87059D02*
Y90209D01*
Y87059D02*
X91559Y84500D01*
X89842Y94095D02*
X89921D01*
X89000Y90209D02*
Y93252D01*
X89842Y94095D01*
X83961Y94167D02*
X86385D01*
X86457Y94095D01*
X86441Y90209D02*
Y94079D01*
X86457Y94095D01*
X64521Y89979D02*
X64547Y89953D01*
X64521Y89979D02*
Y92316D01*
X64494Y92342D02*
X64521Y92316D01*
X63181Y86016D02*
X64547D01*
X61433Y84268D02*
X63181Y86016D01*
X59000Y84268D02*
X61433D01*
X35559Y49000D02*
X46500Y59941D01*
Y72882D01*
D18*
X70079Y51968D02*
D03*
X59055Y94095D02*
D03*
X54331Y78740D02*
D03*
X68504Y45669D02*
D03*
X74016D02*
D03*
X77165Y66929D02*
D03*
X102264Y94291D02*
D03*
X107762D02*
D03*
X46457Y26772D02*
D03*
X39201Y23908D02*
D03*
X70472Y12205D02*
D03*
D19*
X129921Y94488D02*
D03*
X7874Y94488D02*
D03*
Y7874D02*
D03*
X129921Y7874D02*
D03*
X129921Y94488D02*
D03*
X7874Y94488D02*
D03*
Y7874D02*
D03*
X129921Y7874D02*
D03*
D20*
X88329Y12500D02*
D03*
X91793D02*
D03*
X107758D02*
D03*
X104293D02*
D03*
X104854Y69500D02*
D03*
X101390D02*
D03*
X122406Y61000D02*
D03*
X125870D02*
D03*
X114268Y47500D02*
D03*
X117732D02*
D03*
X114268Y61000D02*
D03*
X117732D02*
D03*
X122406Y47500D02*
D03*
X125870D02*
D03*
X61654Y73228D02*
D03*
X65118D02*
D03*
X86457Y94095D02*
D03*
X89921D02*
D03*
X107732Y40000D02*
D03*
X104268D02*
D03*
X89579Y69500D02*
D03*
X93043D02*
D03*
D21*
X99673Y12500D02*
D03*
X96327D02*
D03*
X52083D02*
D03*
X48736D02*
D03*
X60256D02*
D03*
X56910D02*
D03*
X69827Y74000D02*
D03*
X73173D02*
D03*
D22*
X101252Y76000D02*
D03*
X107748D02*
D03*
D23*
X117682Y65393D02*
D03*
X125856Y44755D02*
D03*
X106201Y43799D02*
D03*
X101390Y66929D02*
D03*
X111122Y58366D02*
D03*
X106295Y61417D02*
D03*
X108858Y66831D02*
D03*
X111644Y75984D02*
D03*
X107551Y69527D02*
D03*
X95656Y69512D02*
D03*
X70472Y82087D02*
D03*
X80216Y90748D02*
D03*
X75984Y90945D02*
D03*
X55905Y84252D02*
D03*
X66000Y79000D02*
D03*
X75590Y74016D02*
D03*
X81791Y57480D02*
D03*
X75492Y55512D02*
D03*
X75590Y52067D02*
D03*
X112205Y88075D02*
D03*
X112091Y84925D02*
D03*
X93811Y84500D02*
D03*
X93701Y90220D02*
D03*
X83961Y94167D02*
D03*
X75812Y81999D02*
D03*
X78897Y70775D02*
D03*
X65030Y70866D02*
D03*
X62382D02*
D03*
X57480Y69291D02*
D03*
X64494Y92342D02*
D03*
X56750Y87732D02*
D03*
X43500Y84274D02*
D03*
X48650Y87732D02*
D03*
X46457Y80709D02*
D03*
X42476Y76566D02*
D03*
X22047Y76559D02*
D03*
X14124Y56742D02*
D03*
X11762D02*
D03*
X9400D02*
D03*
X7037D02*
D03*
X131102Y46457D02*
D03*
Y55905D02*
D03*
Y53543D02*
D03*
Y51181D02*
D03*
Y48819D02*
D03*
X107463Y48014D02*
D03*
X111346Y47481D02*
D03*
X112598Y36614D02*
D03*
X101406Y41732D02*
D03*
X36614Y41339D02*
D03*
X46850Y35827D02*
D03*
X50000Y42732D02*
D03*
X22441Y24016D02*
D03*
X45669Y12598D02*
D03*
X58268Y16142D02*
D03*
X60584Y15289D02*
D03*
X84252Y12598D02*
D03*
X112205D02*
D03*
X60500Y53000D02*
D03*
X22500Y32000D02*
D03*
X64500Y51000D02*
D03*
X22500Y28000D02*
D03*
X73000Y82000D02*
D03*
X86500D02*
D03*
X59033Y36118D02*
D03*
X91500Y38000D02*
D03*
X100996Y48004D02*
D03*
X96665D02*
D03*
X92335D02*
D03*
X88004D02*
D03*
X100996Y52335D02*
D03*
X96665D02*
D03*
X92335D02*
D03*
X88004D02*
D03*
X100996Y56665D02*
D03*
X96665D02*
D03*
X92335D02*
D03*
X88004D02*
D03*
X100996Y60996D02*
D03*
X96665D02*
D03*
X92335D02*
D03*
X88004D02*
D03*
D24*
X78543Y52008D02*
D03*
Y55472D02*
D03*
X112500Y39768D02*
D03*
Y43232D02*
D03*
X46500Y87732D02*
D03*
Y84268D02*
D03*
X59000Y87732D02*
D03*
Y84268D02*
D03*
X96000Y90232D02*
D03*
Y86768D02*
D03*
X114032Y84925D02*
D03*
Y88390D02*
D03*
X47000Y42732D02*
D03*
Y39268D02*
D03*
X75839Y84520D02*
D03*
Y87984D02*
D03*
D25*
X125850Y52000D02*
D03*
X122150D02*
D03*
X125850Y56500D02*
D03*
X122150D02*
D03*
X50799Y87732D02*
D03*
X54500D02*
D03*
D26*
X117500Y52450D02*
D03*
Y56150D02*
D03*
D27*
X94500Y54500D02*
D03*
D28*
X87610Y64342D02*
D03*
X89579D02*
D03*
X91547D02*
D03*
X93516D02*
D03*
X95484D02*
D03*
X97453D02*
D03*
X99421D02*
D03*
X101390D02*
D03*
Y44657D02*
D03*
X99421D02*
D03*
X97453D02*
D03*
X95484D02*
D03*
X93516D02*
D03*
X91547D02*
D03*
X89579D02*
D03*
X87610D02*
D03*
D29*
X104342Y61390D02*
D03*
Y59421D02*
D03*
Y57453D02*
D03*
Y55484D02*
D03*
Y53516D02*
D03*
Y51547D02*
D03*
Y49579D02*
D03*
Y47610D02*
D03*
X84658D02*
D03*
Y49579D02*
D03*
Y51547D02*
D03*
Y53516D02*
D03*
Y55484D02*
D03*
Y57453D02*
D03*
Y59421D02*
D03*
Y61390D02*
D03*
D30*
X35559Y76559D02*
D03*
Y49000D02*
D03*
X8000D02*
D03*
Y76559D02*
D03*
D31*
X17232Y24094D02*
D03*
Y31969D02*
D03*
Y28032D02*
D03*
D32*
X7291Y37087D02*
D03*
Y18976D02*
D03*
D33*
X78642Y26000D02*
D03*
X118012D02*
D03*
D34*
X53161Y19886D02*
D03*
X55721D02*
D03*
X58280D02*
D03*
X60839D02*
D03*
X53161Y43114D02*
D03*
X55721D02*
D03*
X58280D02*
D03*
X60839D02*
D03*
D35*
X47000Y51173D02*
D03*
Y47827D02*
D03*
X57500Y63327D02*
D03*
Y66673D02*
D03*
X83500Y77173D02*
D03*
Y73827D02*
D03*
X108862Y64346D02*
D03*
Y61000D02*
D03*
D36*
X29776Y35000D02*
D03*
X39224Y38740D02*
D03*
Y31260D02*
D03*
D37*
X62382Y57500D02*
D03*
X64941D02*
D03*
X67500D02*
D03*
X70059D02*
D03*
X62382Y68130D02*
D03*
X64941D02*
D03*
X67500D02*
D03*
X70059D02*
D03*
D38*
X46500Y78000D02*
D03*
Y72882D02*
D03*
D39*
X70453Y84047D02*
D03*
Y86016D02*
D03*
Y87984D02*
D03*
Y89953D02*
D03*
X64547D02*
D03*
Y87984D02*
D03*
Y86016D02*
D03*
Y84047D02*
D03*
D40*
X68484Y89953D02*
D03*
X66516D02*
D03*
Y84047D02*
D03*
X68484D02*
D03*
D41*
X110150Y88075D02*
D03*
Y84925D02*
D03*
X103850Y88075D02*
D03*
Y84925D02*
D03*
D42*
X83882Y84500D02*
D03*
Y90209D02*
D03*
X86441Y84500D02*
D03*
Y90209D02*
D03*
X89000Y84500D02*
D03*
Y90209D02*
D03*
X91559Y84500D02*
D03*
Y90209D02*
D03*
D43*
X79000Y73728D02*
D03*
Y77272D02*
D03*
D71*
X101100Y92272D02*
X102264Y93436D01*
Y94291D01*
X101100Y88075D02*
Y92272D01*
X104244Y84925D02*
X107669Y88350D01*
Y95276D01*
X103850Y84925D02*
X104244D01*
X70965Y93701D02*
X77264D01*
X80216Y90748D01*
X68484Y91220D02*
X70965Y93701D01*
X68484Y89953D02*
Y91220D01*
X81805Y57467D02*
X84644D01*
X81791Y57480D02*
X81805Y57467D01*
X84644D02*
X84658Y57453D01*
X70069Y51978D02*
X70079Y51968D01*
X70069Y51978D02*
Y57490D01*
X70059Y57500D02*
X70069Y57490D01*
X77165Y62598D02*
Y66929D01*
X61811Y89370D02*
X63197Y87984D01*
X64547D01*
X59055Y94095D02*
X61811Y91339D01*
Y89370D02*
Y91339D01*
X58130Y78740D02*
X60098Y80709D01*
X54331Y78740D02*
X58130D01*
X60098Y80709D02*
X62992D01*
X64547Y82264D01*
Y84047D01*
X73750Y38000D02*
X74016Y38266D01*
Y45669D01*
X58280Y43114D02*
Y46862D01*
X59055Y47638D01*
X66436D02*
X68404Y45669D01*
X68504D01*
X59055Y47638D02*
X66436D01*
X39201Y23908D02*
Y31237D01*
X39224Y31260D01*
X55272Y26772D02*
X55721Y27220D01*
X46457Y26772D02*
X55272D01*
X64500Y12205D02*
X70472D01*
X122484Y61000D02*
X123876Y59609D01*
Y58495D02*
Y59609D01*
Y58495D02*
X125850Y56520D01*
Y56500D02*
Y56520D01*
X122406Y61000D02*
X122484D01*
D72*
X125870D02*
Y68602D01*
D73*
X106201Y43799D02*
X107732Y42268D01*
X104342Y45658D02*
X106201Y43799D01*
X101390Y66929D02*
Y69500D01*
Y64342D02*
Y66929D01*
X101252Y76000D02*
X101390Y75862D01*
X61000Y79000D02*
X66000D01*
X83842Y59465D02*
X83878Y59429D01*
X78157Y59465D02*
X83842D01*
X70059Y57500D02*
X76192D01*
X78157Y59465D01*
X78500Y55484D02*
X84658D01*
X75512Y55492D02*
X78492D01*
X75492Y55512D02*
X75512Y55492D01*
X78492D02*
X78500Y55484D01*
X79610Y61390D02*
X84658D01*
X95982Y90226D02*
X95988Y90220D01*
X91571D02*
X93701D01*
X93707Y90226D02*
X95982D01*
X93701Y90220D02*
X93707Y90226D01*
X77165Y62598D02*
X78402D01*
X72402D02*
X77165D01*
X78402D02*
X79610Y61390D01*
X70059Y64941D02*
X72402Y62598D01*
X70059Y64941D02*
Y68130D01*
X54500Y72500D02*
X61000Y79000D01*
X99421Y36716D02*
Y44657D01*
X73750Y38000D02*
X85500D01*
X62000D02*
X73750D01*
X29776Y37776D02*
X34000Y42000D01*
Y47441D01*
X35559Y49000D01*
X50000Y42732D02*
X52780D01*
X47000D02*
X50000D01*
X53161Y43114D02*
X55721D01*
X52780Y42732D02*
X53161Y43114D01*
X45719Y12549D02*
X48687D01*
X48736Y12500D01*
X45669Y12598D02*
X45719Y12549D01*
X58274Y19880D02*
X58280Y19886D01*
X58274Y16148D02*
Y19880D01*
X58268Y16142D02*
X58274Y16148D01*
X56910Y12500D02*
Y14591D01*
X55721Y15779D02*
Y19886D01*
Y15779D02*
X56910Y14591D01*
X55721Y19886D02*
Y27220D01*
X64500Y12205D02*
Y31500D01*
Y9500D02*
Y12205D01*
X101390Y69500D02*
Y75862D01*
X117707Y60975D02*
Y65368D01*
X117682Y65393D02*
X117707Y65368D01*
X117616Y60884D02*
X117707Y60975D01*
X64941Y54562D02*
Y57500D01*
X60500Y53000D02*
X63379D01*
X64941Y54562D01*
X17232Y31969D02*
X17248Y31984D01*
X22484D01*
X22500Y32000D01*
X67500Y54000D02*
Y57500D01*
X64500Y51000D02*
X67500Y54000D01*
X17248Y28016D02*
X22484D01*
X17232Y28032D02*
X17248Y28016D01*
X22484D02*
X22500Y28000D01*
X57500Y59500D02*
X59500Y57500D01*
X57500Y59500D02*
Y60500D01*
X59500Y57500D02*
X62382D01*
X29776Y35000D02*
Y37776D01*
X68484Y80000D02*
Y84047D01*
X70528Y86016D02*
X70543Y86000D01*
X72000D02*
X73000Y85000D01*
Y82000D02*
Y85000D01*
X70453Y86016D02*
X70528D01*
X70543Y86000D02*
X72000D01*
X68484Y80000D02*
X95500D01*
X86500Y82000D02*
X95025D01*
X101100Y88075D01*
X86471Y82029D02*
Y84470D01*
X86441Y84500D02*
X86471Y84470D01*
Y82029D02*
X86500Y82000D01*
X91559Y90209D02*
X91571Y90220D01*
X95988D02*
X96000Y90232D01*
X95500Y80000D02*
X100425Y84925D01*
X102882D01*
X83451Y77222D02*
X83500Y77173D01*
X79000Y77272D02*
X79049Y77222D01*
X83451D01*
X83500Y71500D02*
X87610Y67390D01*
Y64342D02*
Y67390D01*
X83500Y71500D02*
Y73827D01*
X89579Y64342D02*
Y69500D01*
X57500Y60500D02*
Y63327D01*
X68484Y78016D02*
Y80000D01*
X54500Y61500D02*
Y72500D01*
Y61500D02*
X55500Y60500D01*
X57500D01*
X83882Y80586D02*
Y84500D01*
X69827Y74000D02*
Y76673D01*
X68484Y78016D02*
X69827Y76673D01*
X69728Y74000D02*
X69827D01*
X67500Y68130D02*
Y71772D01*
X69728Y74000D01*
X58280Y37134D02*
X59033Y36380D01*
Y36118D02*
Y36380D01*
X58280Y37134D02*
Y43114D01*
X91500Y38000D02*
X93516Y40016D01*
Y44657D01*
X86000Y36000D02*
X91547Y41547D01*
Y44657D01*
X90000Y33500D02*
X95484Y38984D01*
Y44657D01*
X66500Y33500D02*
X90000D01*
X64500Y31500D02*
X66500Y33500D01*
X62500Y7500D02*
X64500Y9500D01*
X54000Y7500D02*
X62500D01*
X52083Y9417D02*
X54000Y7500D01*
X52083Y9417D02*
Y12500D01*
X60839Y39161D02*
X62000Y38000D01*
X85500D02*
X89579Y42079D01*
X64500Y36000D02*
X86000D01*
X55721Y27220D02*
X64500Y36000D01*
X89579Y42079D02*
Y44657D01*
X60839Y39161D02*
Y43114D01*
X53161Y15661D02*
Y19886D01*
X52083Y12500D02*
Y14583D01*
X53161Y15661D01*
X104342Y45658D02*
Y47610D01*
X107732Y40000D02*
Y42268D01*
X104293Y12500D02*
Y20155D01*
X110138Y26000D01*
X118012D01*
X99673Y12500D02*
X104293D01*
X91793D02*
X96327D01*
X86516Y26000D02*
X90500Y22016D01*
Y22000D02*
Y22016D01*
X78642Y26000D02*
X86516D01*
X90500Y22000D02*
X91793Y20707D01*
Y12500D02*
Y20707D01*
X86516Y26000D02*
X97453Y36937D01*
Y44657D01*
X99421Y36716D02*
X110138Y26000D01*
D74*
X109650Y56150D02*
X117500D01*
X108984Y55484D02*
X109650Y56150D01*
X104342Y55484D02*
X108984D01*
X104342Y53516D02*
X108984D01*
X117616Y52333D02*
X117725Y52225D01*
X117616Y47616D02*
Y52333D01*
Y47616D02*
X117732Y47500D01*
X117500Y52450D02*
X117616Y52333D01*
Y56266D02*
X117675Y56325D01*
X117500Y56150D02*
X117616Y56266D01*
X121975Y56325D02*
X122150Y56500D01*
X117675Y56325D02*
X121975D01*
X117616Y56266D02*
Y60884D01*
X117725Y52225D02*
X121925D01*
X122150Y52000D01*
X110000Y52500D02*
X117450D01*
X117500Y52450D01*
X108984Y53516D02*
X110000Y52500D01*
D75*
X75912Y90872D02*
X75984Y90945D01*
X75839Y87984D02*
X75912Y88057D01*
Y90872D01*
X55913Y84260D02*
X58992D01*
X55905Y84252D02*
X55913Y84260D01*
X58992D02*
X59000Y84268D01*
X75583Y74008D02*
X75590Y74016D01*
X73173Y74000D02*
X73181Y74008D01*
X75583D01*
X75812Y81999D02*
X75839Y82026D01*
Y84520D01*
X70453Y87984D02*
X75839D01*
X78897Y70775D02*
X79000Y70878D01*
Y73728D01*
X65030Y68218D02*
Y70866D01*
X65074Y70910D02*
Y73184D01*
X65030Y70866D02*
X65074Y70910D01*
Y73184D02*
X65118Y73228D01*
X62382Y68130D02*
Y70866D01*
X62231Y71017D02*
Y72651D01*
Y71017D02*
X62382Y70866D01*
X61654Y73228D02*
X62231Y72651D01*
X64941Y68130D02*
X65030Y68218D01*
X62358Y68154D02*
X62382Y68130D01*
X57490Y66683D02*
X57500Y66673D01*
X57490Y66683D02*
Y69282D01*
X57480Y69291D02*
X57490Y69282D01*
X56750Y87732D02*
X59000D01*
X43500Y84274D02*
X43506Y84268D01*
X46500D01*
X46457Y80709D02*
X46478Y80687D01*
Y78022D02*
X46500Y78000D01*
X46478Y78022D02*
Y80687D01*
X42469Y76559D02*
X42476Y76566D01*
X35559Y76559D02*
X42469D01*
X22047D02*
X35559D01*
X8000D02*
X22047D01*
X38437Y38740D02*
X39224D01*
X36765Y40412D02*
X38437Y38740D01*
X36765Y40412D02*
Y41188D01*
X36614Y41339D02*
X36765Y41188D01*
X46925Y35902D02*
Y39193D01*
X46850Y35827D02*
X46925Y35902D01*
Y39193D02*
X47000Y39268D01*
X17272Y24055D02*
X22402D01*
X17232Y24094D02*
X17272Y24055D01*
X22402D02*
X22441Y24016D01*
X7606Y24094D02*
X17232D01*
X7291Y24409D02*
Y37087D01*
Y18976D02*
Y24409D01*
X7606Y24094D01*
X60256Y12500D02*
X60434Y12678D01*
Y15138D01*
X60584Y15289D01*
X60839Y15563D02*
Y19886D01*
X84301Y12549D02*
X88279D01*
X84252Y12598D02*
X84301Y12549D01*
X88279D02*
X88329Y12500D01*
X107807Y12549D02*
X112155D01*
X112205Y12598D01*
X107758Y12500D02*
X107807Y12549D01*
X8000Y49000D02*
X35559D01*
D76*
X82650Y51547D02*
X84658D01*
X80102Y49000D02*
X82650Y51547D01*
X53500Y49000D02*
X80102D01*
X106453Y51547D02*
X109500Y48500D01*
X43500Y32000D02*
Y46000D01*
X42760Y31260D02*
X43500Y32000D01*
Y46000D02*
X45327Y47827D01*
X122484Y47500D02*
X123871Y48887D01*
Y50001D01*
X125850Y51980D01*
X122406Y47500D02*
X122484D01*
X125850Y51980D02*
Y52000D01*
X109500Y44500D02*
X110731Y43269D01*
X109500Y44500D02*
Y48500D01*
X112500Y43232D02*
X119732D01*
X122231Y45731D01*
X112463Y43269D02*
X112500Y43232D01*
X122231Y45731D02*
Y47326D01*
X104342Y51547D02*
X106453D01*
X51327Y51173D02*
X53500Y49000D01*
X45327Y47827D02*
X47000D01*
Y51173D02*
X51327D01*
X39224Y31260D02*
X42760D01*
X110731Y43269D02*
X112463D01*
X122231Y47326D02*
X122406Y47500D01*
D77*
X125886Y68602D02*
D03*
M02*
