M48
;Layer_Color=9474304
;FILE_FORMAT=2:4
INCH,TZ
;TYPE=PLATED
T01F00S00C0.0079
T02F00S00C0.0394
T03F00S00C0.0866
%
T01
X6058Y1529
X8425Y1260
X11220
X11260Y3661
X11135Y4748
X10746Y4801
X10620Y4380
X10141Y4173
X10100Y4800
X9667
X9233
X8800
Y5233
Y5667
X9233
Y5233
X9667
Y5667
X10100
Y5233
Y6100
X9667
X9233
X8800
X8179Y5748
X7549Y5551
X7559Y5207
X6450Y5100
X6050Y5300
X6238Y7087
X6503
X6600Y7900
X7047Y8209
X7300Y8200
X7581Y8200
X7559Y7402
X7890Y7078
X9566Y6951
X10139Y6693
X10886Y6683
X10755Y6953
X10630Y6142
X11112Y5837
X11164Y7598
X11209Y8493
X11220Y8807
X9381Y8450
X8650Y8200
X9150Y3800
X12586Y4476
X13110Y4646
Y4882
Y5118
Y5354
Y5591
X5748Y6929
X5591Y8425
X5675Y8773
X4865
X4350Y8427
X4646Y8071
X4248Y7657
X2205Y7656
X1412Y5674
X1176
X940
X704
X2250Y3200
Y2800
X2244Y2402
X3661Y4134
X5000Y4273
X4685Y3583
X5903Y3612
X5827Y1614
X4567Y1260
X6449Y9234
X7598Y9094
X8022Y9075
X8396Y9417
X9370Y9022
T02
X12589Y6860
T03
X12992Y787
X787Y787
Y9449
X12992Y9449
M30
