G04*
G04 #@! TF.GenerationSoftware,Altium Limited,Altium Designer,24.5.2 (23)*
G04*
G04 Layer_Color=32896*
%FSLAX25Y25*%
%MOIN*%
G70*
G04*
G04 #@! TF.SameCoordinates,DA11F9B2-49B4-46D7-84E3-7535E75C2908*
G04*
G04*
G04 #@! TF.FilePolarity,Positive*
G04*
G01*
G75*
%ADD80C,0.01575*%
G36*
X22333Y89762D02*
X22357Y89710D01*
X22416Y89613D01*
X22478Y89526D01*
X22544Y89449D01*
X22576Y89415D01*
X22603Y89387D01*
X22628Y89359D01*
X22652Y89338D01*
X22669Y89321D01*
X22683Y89311D01*
X22693Y89304D01*
X22697Y89300D01*
X22801Y89224D01*
X22898Y89161D01*
X22985Y89109D01*
X23061Y89071D01*
X23096Y89054D01*
X23127Y89040D01*
X23152Y89030D01*
X23176Y89019D01*
X23193Y89012D01*
X23207Y89009D01*
X23214Y89005D01*
X23217D01*
Y88447D01*
X23134Y88478D01*
X23054Y88509D01*
X22975Y88544D01*
X22902Y88582D01*
X22832Y88620D01*
X22766Y88658D01*
X22707Y88696D01*
X22652Y88735D01*
X22600Y88769D01*
X22558Y88804D01*
X22517Y88835D01*
X22485Y88859D01*
X22461Y88880D01*
X22440Y88898D01*
X22430Y88908D01*
X22426Y88911D01*
Y86604D01*
X21812D01*
Y89817D01*
X22312D01*
X22333Y89762D01*
D02*
G37*
G36*
X24578Y87732D02*
Y87662D01*
X24581Y87600D01*
X24585Y87541D01*
X24592Y87489D01*
X24599Y87440D01*
X24606Y87399D01*
X24616Y87361D01*
X24623Y87329D01*
X24630Y87301D01*
X24640Y87277D01*
X24647Y87260D01*
X24654Y87243D01*
X24661Y87232D01*
X24665Y87225D01*
X24668Y87218D01*
X24706Y87177D01*
X24755Y87149D01*
X24803Y87128D01*
X24855Y87111D01*
X24901Y87104D01*
X24939Y87100D01*
X24952Y87097D01*
X24973D01*
X25012Y87100D01*
X25050Y87104D01*
X25112Y87125D01*
X25168Y87152D01*
X25213Y87183D01*
X25247Y87215D01*
X25272Y87239D01*
X25289Y87260D01*
X25293Y87263D01*
Y87267D01*
X25306Y87291D01*
X25317Y87315D01*
X25334Y87378D01*
X25348Y87440D01*
X25359Y87506D01*
X25365Y87565D01*
X25369Y87590D01*
Y87614D01*
X25372Y87631D01*
Y87648D01*
Y87655D01*
Y87659D01*
X25983Y87590D01*
X25980Y87496D01*
X25973Y87409D01*
X25959Y87326D01*
X25942Y87249D01*
X25924Y87180D01*
X25903Y87118D01*
X25879Y87059D01*
X25855Y87006D01*
X25830Y86961D01*
X25806Y86920D01*
X25785Y86885D01*
X25768Y86857D01*
X25751Y86836D01*
X25737Y86823D01*
X25730Y86812D01*
X25726Y86809D01*
X25674Y86764D01*
X25622Y86722D01*
X25563Y86687D01*
X25504Y86656D01*
X25442Y86632D01*
X25383Y86611D01*
X25324Y86594D01*
X25265Y86580D01*
X25209Y86566D01*
X25161Y86559D01*
X25116Y86552D01*
X25074Y86549D01*
X25043D01*
X25019Y86545D01*
X24998D01*
X24925Y86549D01*
X24852Y86552D01*
X24786Y86559D01*
X24724Y86573D01*
X24668Y86583D01*
X24612Y86597D01*
X24564Y86614D01*
X24519Y86628D01*
X24481Y86646D01*
X24446Y86659D01*
X24415Y86673D01*
X24390Y86687D01*
X24370Y86698D01*
X24356Y86705D01*
X24349Y86708D01*
X24345Y86712D01*
X24300Y86746D01*
X24259Y86781D01*
X24189Y86854D01*
X24130Y86930D01*
X24081Y87000D01*
X24047Y87066D01*
X24033Y87093D01*
X24023Y87118D01*
X24016Y87135D01*
X24009Y87149D01*
X24005Y87159D01*
Y87163D01*
X23991Y87204D01*
X23981Y87249D01*
X23964Y87350D01*
X23950Y87451D01*
X23943Y87548D01*
X23939Y87593D01*
X23936Y87638D01*
Y87676D01*
X23932Y87707D01*
Y87735D01*
Y87756D01*
Y87770D01*
Y87773D01*
Y89807D01*
X24578D01*
Y87732D01*
D02*
G37*
D80*
X112992Y51181D02*
X112981Y52181D01*
X112947Y53181D01*
X112890Y54179D01*
X112811Y55176D01*
X112709Y56171D01*
X112584Y57164D01*
X112437Y58153D01*
X112268Y59139D01*
X112076Y60120D01*
X111863Y61098D01*
X111627Y62069D01*
X111369Y63036D01*
X111089Y63996D01*
X110787Y64950D01*
X110464Y65896D01*
X110120Y66835D01*
X109754Y67766D01*
X109368Y68688D01*
X108960Y69602D01*
X108532Y70506D01*
X108083Y71400D01*
X107615Y72283D01*
X107126Y73156D01*
X106618Y74018D01*
X106090Y74867D01*
X105543Y75705D01*
X104978Y76530D01*
X104394Y77341D01*
X103791Y78140D01*
X103171Y78924D01*
X102533Y79694D01*
X101877Y80450D01*
X101205Y81190D01*
X100516Y81915D01*
X99811Y82625D01*
X99090Y83318D01*
X98353Y83994D01*
X97601Y84654D01*
X96835Y85296D01*
X96054Y85921D01*
X95259Y86528D01*
X94450Y87117D01*
X93629Y87687D01*
X92794Y88239D01*
X91948Y88771D01*
X91089Y89284D01*
X90219Y89778D01*
X89338Y90252D01*
X88447Y90705D01*
X87545Y91138D01*
X86634Y91551D01*
X85714Y91943D01*
X84785Y92314D01*
X83848Y92664D01*
X82903Y92992D01*
X81952Y93299D01*
X80993Y93584D01*
X80028Y93848D01*
X79058Y94089D01*
X78082Y94309D01*
X77101Y94506D01*
X76116Y94681D01*
X75128Y94833D01*
X74136Y94963D01*
X73142Y95071D01*
X72145Y95156D01*
X71147Y95218D01*
X70148Y95258D01*
X69148Y95275D01*
X68147Y95269D01*
X67148Y95241D01*
X66149Y95190D01*
X65151Y95116D01*
X64156Y95020D01*
X63163Y94901D01*
X62173Y94760D01*
X61186Y94596D01*
X60203Y94410D01*
X59225Y94202D01*
X58252Y93971D01*
X57284Y93719D01*
X56322Y93444D01*
X55367Y93148D01*
X54418Y92831D01*
X53478Y92492D01*
X52545Y92131D01*
X51620Y91750D01*
X50704Y91347D01*
X49798Y90924D01*
X48902Y90481D01*
X48015Y90017D01*
X47140Y89534D01*
X46275Y89030D01*
X45423Y88507D01*
X44582Y87966D01*
X43754Y87405D01*
X42939Y86825D01*
X42137Y86227D01*
X41349Y85611D01*
X40576Y84977D01*
X39816Y84326D01*
X39072Y83658D01*
X38343Y82973D01*
X37630Y82272D01*
X36933Y81555D01*
X36252Y80822D01*
X35588Y80074D01*
X34941Y79311D01*
X34312Y78534D01*
X33701Y77742D01*
X33107Y76937D01*
X32532Y76119D01*
X31976Y75287D01*
X31439Y74444D01*
X30921Y73588D01*
X30422Y72721D01*
X29944Y71843D01*
X29485Y70954D01*
X29047Y70055D01*
X28629Y69147D01*
X28232Y68229D01*
X27856Y67302D01*
X27501Y66367D01*
X27167Y65424D01*
X26855Y64474D01*
X26564Y63517D01*
X26295Y62553D01*
X26048Y61584D01*
X25823Y60610D01*
X25620Y59630D01*
X25440Y58647D01*
X25282Y57659D01*
X25146Y56668D01*
X25033Y55674D01*
X24942Y54678D01*
X24874Y53680D01*
X24829Y52681D01*
X24806Y51681D01*
X24806Y50681D01*
X24829Y49681D01*
X24874Y48682D01*
X24942Y47684D01*
X25033Y46688D01*
X25146Y45694D01*
X25282Y44704D01*
X25440Y43716D01*
X25620Y42732D01*
X25823Y41753D01*
X26048Y40778D01*
X26295Y39809D01*
X26564Y38846D01*
X26854Y37889D01*
X27167Y36939D01*
X27501Y35996D01*
X27856Y35061D01*
X28232Y34134D01*
X28629Y33216D01*
X29047Y32307D01*
X29485Y31408D01*
X29944Y30519D01*
X30422Y29641D01*
X30921Y28774D01*
X31439Y27918D01*
X31976Y27075D01*
X32532Y26244D01*
X33107Y25425D01*
X33700Y24620D01*
X34312Y23829D01*
X34941Y23051D01*
X35588Y22288D01*
X36252Y21540D01*
X36933Y20807D01*
X37630Y20090D01*
X38343Y19389D01*
X39072Y18704D01*
X39816Y18036D01*
X40575Y17385D01*
X41349Y16751D01*
X42137Y16135D01*
X42939Y15537D01*
X43754Y14958D01*
X44582Y14397D01*
X45423Y13855D01*
X46275Y13332D01*
X47140Y12829D01*
X48015Y12345D01*
X48901Y11881D01*
X49798Y11438D01*
X50704Y11015D01*
X51620Y10613D01*
X52544Y10231D01*
X53477Y9871D01*
X54418Y9532D01*
X55367Y9214D01*
X56322Y8918D01*
X57284Y8644D01*
X58252Y8391D01*
X59225Y8161D01*
X60203Y7952D01*
X61186Y7766D01*
X62173Y7603D01*
X63163Y7461D01*
X64156Y7342D01*
X65151Y7246D01*
X66149Y7172D01*
X67148Y7121D01*
X68147Y7093D01*
X69148Y7087D01*
X70148Y7104D01*
X71147Y7144D01*
X72145Y7206D01*
X73142Y7291D01*
X74136Y7399D01*
X75128Y7529D01*
X76116Y7682D01*
X77101Y7856D01*
X78082Y8054D01*
X79058Y8273D01*
X80028Y8514D01*
X80993Y8778D01*
X81952Y9063D01*
X82904Y9370D01*
X83848Y9699D01*
X84785Y10048D01*
X85714Y10419D01*
X86634Y10811D01*
X87546Y11224D01*
X88447Y11657D01*
X89338Y12111D01*
X90219Y12584D01*
X91089Y13078D01*
X91948Y13591D01*
X92794Y14123D01*
X93629Y14675D01*
X94450Y15245D01*
X95259Y15834D01*
X96054Y16441D01*
X96835Y17066D01*
X97601Y17708D01*
X98353Y18368D01*
X99090Y19045D01*
X99811Y19738D01*
X100516Y20447D01*
X101205Y21172D01*
X101877Y21913D01*
X102533Y22668D01*
X103171Y23438D01*
X103791Y24223D01*
X104394Y25021D01*
X104978Y25833D01*
X105544Y26658D01*
X106090Y27495D01*
X106618Y28345D01*
X107126Y29206D01*
X107615Y30079D01*
X108084Y30963D01*
X108532Y31857D01*
X108960Y32761D01*
X109368Y33674D01*
X109754Y34596D01*
X110120Y35527D01*
X110465Y36466D01*
X110787Y37413D01*
X111089Y38367D01*
X111369Y39327D01*
X111627Y40293D01*
X111863Y41265D01*
X112077Y42242D01*
X112268Y43224D01*
X112437Y44210D01*
X112584Y45199D01*
X112709Y46191D01*
X112811Y47186D01*
X112890Y48183D01*
X112947Y49182D01*
X112981Y50182D01*
X112992Y51181D01*
X11398Y27681D02*
X17697D01*
X14398Y24382D02*
Y30681D01*
M02*
