G04*
G04 #@! TF.GenerationSoftware,Altium Limited,Altium Designer,24.5.2 (23)*
G04*
G04 Layer_Color=8421504*
%FSLAX25Y25*%
%MOIN*%
G70*
G04*
G04 #@! TF.SameCoordinates,DA11F9B2-49B4-46D7-84E3-7535E75C2908*
G04*
G04*
G04 #@! TF.FilePolarity,Positive*
G04*
G01*
G75*
%ADD18C,0.03937*%
%ADD19C,0.11811*%
%ADD20R,0.02598X0.02441*%
%ADD21R,0.02362X0.02165*%
%ADD22R,0.04921X0.05709*%
%ADD23C,0.01968*%
%ADD24R,0.02441X0.02598*%
%ADD25R,0.02638X0.02677*%
%ADD26R,0.02677X0.02638*%
%ADD27R,0.15748X0.15748*%
%ADD28R,0.00984X0.02559*%
%ADD29R,0.02559X0.00984*%
%ADD30R,0.09843X0.09843*%
%ADD31R,0.06102X0.02362*%
%ADD32R,0.07087X0.04724*%
%ADD33R,0.23622X0.07874*%
%ADD34R,0.01772X0.05512*%
%ADD35R,0.02165X0.02362*%
%ADD36R,0.03937X0.02362*%
%ADD37O,0.01968X0.03937*%
%ADD38R,0.01575X0.03150*%
%ADD39R,0.01181X0.01181*%
%ADD40R,0.01181X0.01181*%
%ADD41R,0.02362X0.01575*%
%ADD42R,0.01378X0.01378*%
%ADD43R,0.02559X0.02756*%
D18*
X70079Y51968D02*
D03*
X59055Y94095D02*
D03*
X54331Y78740D02*
D03*
X68504Y45669D02*
D03*
X74016D02*
D03*
X77165Y66929D02*
D03*
X102264Y94291D02*
D03*
X107762D02*
D03*
X46457Y26772D02*
D03*
X39201Y23908D02*
D03*
X70472Y12205D02*
D03*
D19*
X129921Y94488D02*
D03*
X7874Y94488D02*
D03*
Y7874D02*
D03*
X129921Y7874D02*
D03*
D20*
X88329Y12500D02*
D03*
X91793D02*
D03*
X107758D02*
D03*
X104293D02*
D03*
X104854Y69500D02*
D03*
X101390D02*
D03*
X122406Y61000D02*
D03*
X125870D02*
D03*
X114268Y47500D02*
D03*
X117732D02*
D03*
X114268Y61000D02*
D03*
X117732D02*
D03*
X122406Y47500D02*
D03*
X125870D02*
D03*
X61654Y73228D02*
D03*
X65118D02*
D03*
X86457Y94095D02*
D03*
X89921D02*
D03*
X107732Y40000D02*
D03*
X104268D02*
D03*
X89579Y69500D02*
D03*
X93043D02*
D03*
D21*
X99673Y12500D02*
D03*
X96327D02*
D03*
X52083D02*
D03*
X48736D02*
D03*
X60256D02*
D03*
X56910D02*
D03*
X69827Y74000D02*
D03*
X73173D02*
D03*
D22*
X101252Y76000D02*
D03*
X107748D02*
D03*
D23*
X117682Y65393D02*
D03*
D24*
X78543Y52008D02*
D03*
Y55472D02*
D03*
X112500Y39768D02*
D03*
Y43232D02*
D03*
X46500Y87732D02*
D03*
Y84268D02*
D03*
X59000Y87732D02*
D03*
Y84268D02*
D03*
X96000Y90232D02*
D03*
Y86768D02*
D03*
X114032Y84925D02*
D03*
Y88390D02*
D03*
X47000Y42732D02*
D03*
Y39268D02*
D03*
X75839Y84520D02*
D03*
Y87984D02*
D03*
D25*
X125850Y52000D02*
D03*
X122150D02*
D03*
X125850Y56500D02*
D03*
X122150D02*
D03*
X50799Y87732D02*
D03*
X54500D02*
D03*
D26*
X117500Y52450D02*
D03*
Y56150D02*
D03*
D27*
X94500Y54500D02*
D03*
D28*
X87610Y64342D02*
D03*
X89579D02*
D03*
X91547D02*
D03*
X93516D02*
D03*
X95484D02*
D03*
X97453D02*
D03*
X99421D02*
D03*
X101390D02*
D03*
Y44657D02*
D03*
X99421D02*
D03*
X97453D02*
D03*
X95484D02*
D03*
X93516D02*
D03*
X91547D02*
D03*
X89579D02*
D03*
X87610D02*
D03*
D29*
X104342Y61390D02*
D03*
Y59421D02*
D03*
Y57453D02*
D03*
Y55484D02*
D03*
Y53516D02*
D03*
Y51547D02*
D03*
Y49579D02*
D03*
Y47610D02*
D03*
X84658D02*
D03*
Y49579D02*
D03*
Y51547D02*
D03*
Y53516D02*
D03*
Y55484D02*
D03*
Y57453D02*
D03*
Y59421D02*
D03*
Y61390D02*
D03*
D30*
X35559Y76559D02*
D03*
Y49000D02*
D03*
X8000D02*
D03*
Y76559D02*
D03*
D31*
X17232Y24094D02*
D03*
Y31969D02*
D03*
Y28032D02*
D03*
D32*
X7291Y37087D02*
D03*
Y18976D02*
D03*
D33*
X78642Y26000D02*
D03*
X118012D02*
D03*
D34*
X53161Y19886D02*
D03*
X55721D02*
D03*
X58280D02*
D03*
X60839D02*
D03*
X53161Y43114D02*
D03*
X55721D02*
D03*
X58280D02*
D03*
X60839D02*
D03*
D35*
X47000Y51173D02*
D03*
Y47827D02*
D03*
X57500Y63327D02*
D03*
Y66673D02*
D03*
X83500Y77173D02*
D03*
Y73827D02*
D03*
X108862Y64346D02*
D03*
Y61000D02*
D03*
D36*
X29776Y35000D02*
D03*
X39224Y38740D02*
D03*
Y31260D02*
D03*
D37*
X62382Y57500D02*
D03*
X64941D02*
D03*
X67500D02*
D03*
X70059D02*
D03*
X62382Y68130D02*
D03*
X64941D02*
D03*
X67500D02*
D03*
X70059D02*
D03*
D38*
X46500Y78000D02*
D03*
Y72882D02*
D03*
D39*
X70453Y84047D02*
D03*
Y86016D02*
D03*
Y87984D02*
D03*
Y89953D02*
D03*
X64547D02*
D03*
Y87984D02*
D03*
Y86016D02*
D03*
Y84047D02*
D03*
D40*
X68484Y89953D02*
D03*
X66516D02*
D03*
Y84047D02*
D03*
X68484D02*
D03*
D41*
X110150Y88075D02*
D03*
Y84925D02*
D03*
X103850Y88075D02*
D03*
Y84925D02*
D03*
D42*
X83882Y84500D02*
D03*
Y90209D02*
D03*
X86441Y84500D02*
D03*
Y90209D02*
D03*
X89000Y84500D02*
D03*
Y90209D02*
D03*
X91559Y84500D02*
D03*
Y90209D02*
D03*
D43*
X79000Y73728D02*
D03*
Y77272D02*
D03*
M02*
